<?xml version="1.0" encoding="utf-8"?>
<svg xmlns="http://www.w3.org/2000/svg" fill="none" version="1.1" viewBox="25.3465 -132.813 504.839 141.973" x="25.3465pt" y="-132.813pt" width="504.839pt" height="141.973pt" stroke-width="0.566929" stroke-miterlimit="10.000000">
 <path d="M26.3465 -117.055L137.528 -117.055L137.528 -127.974L26.3465 -127.974Z" stroke="#000" fill="#9cc"/>
 <g transform="matrix(1.000000,0.000000,0.000000,1.000000,28.346457,-119.055118)">
  <path d="M0.657534 -0M5.79826 -1.13574C5.21046 -0.747198 4.87173 -0.537983 3.88543 -0.537983C2.45081 -0.537983 1.55417 -2.03238 1.55417 -3.467C1.55417 -4.82192 2.38107 -6.38605 3.90535 -6.38605C4.6127 -6.38605 5.06102 -6.21669 5.60897 -5.868L5.74844 -6.68493C5.32005 -6.89415 4.55293 -7.02366 3.91532 -7.02366C2.07223 -7.02366 0.657534 -5.46949 0.657534 -3.37733C0.657534 -1.80324 1.84309 0.109589 3.91532 0.109589C4.83188 0.109589 5.21046 -0.0498132 5.85803 -0.448319ZM5.85803 -0.448319M6.64508 -0M10.122 -6.91407L9.24533 -6.91407L6.64508 -0L7.38232 -0L8.14944 -2.03238L11.0486 -2.03238L11.8057 -0L12.7223 -0ZM12.7223 -0M10.8294 -2.59029L8.35866 -2.59029L9.00623 -4.39352C9.21544 -4.98132 9.52428 -5.82814 9.59402 -6.19676L9.60399 -6.19676C9.62391 -6.05729 9.69365 -5.80822 9.92279 -5.15068ZM9.92279 -5.15068M13.9577 -0M15.193 -6.91407L13.9577 -6.91407L13.9577 -0L14.7347 -0L14.7347 -6.20672L14.7447 -6.20672C14.934 -5.79826 15.3524 -4.95143 15.4122 -4.84184L17.8531 -0L19.0884 -0L19.0884 -6.91407L18.3113 -6.91407L18.3113 -0.707347L18.3014 -0.707347C18.1121 -1.11582 17.6936 -1.96264 17.6339 -2.07223ZM17.6339 -2.07223" fill="black"/>
  <path d="M24.0421 -0M29.1829 -1.13574C28.5951 -0.747198 28.2563 -0.537983 27.27 -0.537983C25.8354 -0.537983 24.9388 -2.03238 24.9388 -3.467C24.9388 -4.82192 25.7657 -6.38605 27.29 -6.38605C27.9973 -6.38605 28.4456 -6.21669 28.9936 -5.868L29.133 -6.68493C28.7046 -6.89415 27.9375 -7.02366 27.2999 -7.02366C25.4568 -7.02366 24.0421 -5.46949 24.0421 -3.37733C24.0421 -1.80324 25.2277 0.109589 27.2999 0.109589C28.2165 0.109589 28.5951 -0.0498132 29.2426 -0.448319ZM29.2426 -0.448319M30.1891 -0M33.7258 -2.8792C33.7258 -3.89539 32.9985 -4.59278 32.082 -4.59278C31.4344 -4.59278 30.9861 -4.43337 30.5178 -4.16438L30.5776 -3.50685C31.0957 -3.87547 31.5938 -4.00498 32.082 -4.00498C32.5502 -4.00498 32.9487 -3.60648 32.9487 -2.86924L32.9487 -2.44085C31.4543 -2.42092 30.1891 -2.00249 30.1891 -1.12578C30.1891 -0.697385 30.4581 0.109589 31.3248 0.109589C31.4643 0.109589 32.4008 0.0896638 32.9786 -0.358655L32.9786 -0L33.7258 -0ZM33.7258 -0M32.9487 -1.31507C32.9487 -1.12578 32.9487 -0.876712 32.61 -0.687422C32.3211 -0.508095 31.9425 -0.498132 31.8329 -0.498132C31.3547 -0.498132 30.9064 -0.727273 30.9064 -1.1457C30.9064 -1.84309 32.5203 -1.91283 32.9487 -1.93275ZM32.9487 -1.93275M35.3398 -0M36.087 -6.91407L35.3398 -6.91407L35.3398 -0L36.087 -0ZM36.087 -0M37.6411 -0M38.5278 -6.7746L37.6411 -6.7746L37.6411 -5.88792L38.5278 -5.88792ZM38.5278 -5.88792M38.4581 -4.42341L37.7109 -4.42341L37.7109 -0L38.4581 -0ZM38.4581 -0M40.0919 -0M40.8391 -6.91407L40.0919 -6.91407L40.0919 -0L40.869 -0L40.869 -0.458281C41.1081 -0.239103 41.5365 0.109589 42.204 0.109589C43.2003 0.109589 44.0571 -0.886675 44.0571 -2.22167C44.0571 -3.45704 43.3796 -4.533 42.4431 -4.533C42.0546 -4.533 41.4369 -4.43337 40.8391 -3.94521ZM40.8391 -3.94521M40.869 -3.33748C41.0284 -3.57659 41.3871 -3.92528 41.935 -3.92528C42.5228 -3.92528 43.28 -3.49689 43.28 -2.22167C43.28 -0.926526 42.4431 -0.498132 41.8354 -0.498132C41.4469 -0.498132 41.1181 -0.67746 40.869 -1.13574ZM40.869 -1.13574" fill="black"/>
  <path d="M44.9847 -0M45.7319 -2.132C45.7319 -3.12827 46.4492 -3.84558 47.4256 -3.8655L47.4256 -4.533C46.5389 -4.52304 45.991 -4.03487 45.6821 -3.57659L45.6821 -4.48319L44.9847 -4.48319L44.9847 -0L45.7319 -0ZM45.7319 -0M48.0034 -0M51.5401 -2.8792C51.5401 -3.89539 50.8129 -4.59278 49.8963 -4.59278C49.2487 -4.59278 48.8004 -4.43337 48.3322 -4.16438L48.3919 -3.50685C48.91 -3.87547 49.4081 -4.00498 49.8963 -4.00498C50.3646 -4.00498 50.7631 -3.60648 50.7631 -2.86924L50.7631 -2.44085C49.2687 -2.42092 48.0034 -2.00249 48.0034 -1.12578C48.0034 -0.697385 48.2724 0.109589 49.1391 0.109589C49.2786 0.109589 50.2151 0.0896638 50.7929 -0.358655L50.7929 -0L51.5401 -0ZM51.5401 -0M50.7631 -1.31507C50.7631 -1.12578 50.7631 -0.876712 50.4243 -0.687422C50.1354 -0.508095 49.7568 -0.498132 49.6472 -0.498132C49.169 -0.498132 48.7207 -0.727273 48.7207 -1.1457C48.7207 -1.84309 50.3347 -1.91283 50.7631 -1.93275ZM50.7631 -1.93275M52.5364 -0M54.0906 -3.84558L55.4953 -3.84558L55.4953 -4.42341L54.0906 -4.42341L54.0906 -5.68867L53.4032 -5.68867L53.4032 -4.42341L52.5364 -4.42341L52.5364 -3.84558L53.3733 -3.84558L53.3733 -1.18555C53.3733 -0.587796 53.5127 0.109589 54.2002 0.109589C54.8976 0.109589 55.4056 -0.139477 55.6547 -0.268991L55.4953 -0.856787C55.2363 -0.647572 54.9175 -0.52802 54.5987 -0.52802C54.2301 -0.52802 54.0906 -0.826899 54.0906 -1.35492ZM54.0906 -1.35492M56.6809 -0M57.5675 -6.7746L56.6809 -6.7746L56.6809 -5.88792L57.5675 -5.88792ZM57.5675 -5.88792M57.4978 -4.42341L56.7506 -4.42341L56.7506 -0L57.4978 -0ZM57.4978 -0M58.6136 -0M62.9872 -2.19178C62.9872 -3.52677 61.991 -4.59278 60.8054 -4.59278C59.58 -4.59278 58.6136 -3.49689 58.6136 -2.19178C58.6136 -0.876712 59.6298 0.109589 60.7954 0.109589C61.991 0.109589 62.9872 -0.896638 62.9872 -2.19178ZM62.9872 -2.19178M60.7954 -0.52802C60.108 -0.52802 59.3907 -1.08593 59.3907 -2.29141C59.3907 -3.49689 60.1479 -3.98506 60.7954 -3.98506C61.4928 -3.98506 62.2101 -3.467 62.2101 -2.29141C62.2101 -1.11582 61.5327 -0.52802 60.7954 -0.52802ZM60.7954 -0.52802M64.103 -0M67.6298 -2.96887C67.6298 -3.6264 67.4804 -4.533 66.2649 -4.533C65.3683 -4.533 64.8801 -3.85554 64.8203 -3.77584L64.8203 -4.48319L64.103 -4.48319L64.103 -0L64.8801 -0L64.8801 -2.44085C64.8801 -3.09838 65.1292 -3.92528 65.8863 -3.92528C66.8428 -3.92528 66.8527 -3.21793 66.8527 -2.89913L66.8527 -0L67.6298 -0ZM67.6298 -0" fill="black"/>
  <path d="M72.7429 -0M75.2933 -2.8792C76.5287 -2.8792 77.5848 -3.7858 77.5848 -4.90162C77.5848 -5.96762 76.5985 -6.91407 75.2236 -6.91407L72.7429 -6.91407L72.7429 -0L73.6296 -0L73.6296 -2.8792ZM73.6296 -2.8792M75.0044 -6.35616C76.1003 -6.35616 76.7778 -5.74844 76.7778 -4.90162C76.7778 -4.11457 76.1501 -3.45704 75.0044 -3.45704L73.5997 -3.45704L73.5997 -6.35616ZM73.5997 -6.35616M78.9596 -0M79.7068 -2.132C79.7068 -3.12827 80.4241 -3.84558 81.4004 -3.8655L81.4004 -4.533C80.5138 -4.52304 79.9658 -4.03487 79.657 -3.57659L79.657 -4.48319L78.9596 -4.48319L78.9596 -0L79.7068 -0ZM79.7068 -0M81.8388 -0M86.2124 -2.19178C86.2124 -3.52677 85.2161 -4.59278 84.0306 -4.59278C82.8052 -4.59278 81.8388 -3.49689 81.8388 -2.19178C81.8388 -0.876712 82.855 0.109589 84.0206 0.109589C85.2161 0.109589 86.2124 -0.896638 86.2124 -2.19178ZM86.2124 -2.19178M84.0206 -0.52802C83.3332 -0.52802 82.6159 -1.08593 82.6159 -2.29141C82.6159 -3.49689 83.373 -3.98506 84.0206 -3.98506C84.718 -3.98506 85.4353 -3.467 85.4353 -2.29141C85.4353 -1.11582 84.7579 -0.52802 84.0206 -0.52802ZM84.0206 -0.52802M86.7105 -0M88.2647 -3.84558L89.6694 -3.84558L89.6694 -4.42341L88.2647 -4.42341L88.2647 -5.68867L87.5773 -5.68867L87.5773 -4.42341L86.7105 -4.42341L86.7105 -3.84558L87.5474 -3.84558L87.5474 -1.18555C87.5474 -0.587796 87.6869 0.109589 88.3743 0.109589C89.0717 0.109589 89.5798 -0.139477 89.8288 -0.268991L89.6694 -0.856787C89.4104 -0.647572 89.0916 -0.52802 88.7728 -0.52802C88.4042 -0.52802 88.2647 -0.826899 88.2647 -1.35492ZM88.2647 -1.35492M90.4166 -0M94.7902 -2.19178C94.7902 -3.52677 93.794 -4.59278 92.6084 -4.59278C91.383 -4.59278 90.4166 -3.49689 90.4166 -2.19178C90.4166 -0.876712 91.4328 0.109589 92.5985 0.109589C93.794 0.109589 94.7902 -0.896638 94.7902 -2.19178ZM94.7902 -2.19178M92.5985 -0.52802C91.911 -0.52802 91.1937 -1.08593 91.1937 -2.29141C91.1937 -3.49689 91.9509 -3.98506 92.5985 -3.98506C93.2958 -3.98506 94.0131 -3.467 94.0131 -2.29141C94.0131 -1.11582 93.3357 -0.52802 92.5985 -0.52802ZM92.5985 -0.52802" fill="black"/>
  <path d="M95.7511 -0M99.4772 -4.16438C98.8894 -4.50311 98.5506 -4.59278 97.9429 -4.59278C96.5581 -4.59278 95.7511 -3.3873 95.7511 -2.21171C95.7511 -0.976339 96.6577 0.109589 97.9031 0.109589C98.4411 0.109589 98.989 -0.0298879 99.527 -0.398506L99.4672 -1.066C98.9591 -0.667497 98.4211 -0.52802 97.913 -0.52802C97.0861 -0.52802 96.5282 -1.24533 96.5282 -2.22167C96.5282 -2.99875 96.8969 -3.95517 97.9529 -3.95517C98.4709 -3.95517 98.8097 -3.87547 99.3576 -3.51681ZM99.3576 -3.51681M100.115 -0M104.488 -2.19178C104.488 -3.52677 103.492 -4.59278 102.307 -4.59278C101.081 -4.59278 100.115 -3.49689 100.115 -2.19178C100.115 -0.876712 101.131 0.109589 102.297 0.109589C103.492 0.109589 104.488 -0.896638 104.488 -2.19178ZM104.488 -2.19178M102.297 -0.52802C101.609 -0.52802 100.892 -1.08593 100.892 -2.29141C100.892 -3.49689 101.649 -3.98506 102.297 -3.98506C102.994 -3.98506 103.711 -3.467 103.711 -2.29141C103.711 -1.11582 103.034 -0.52802 102.297 -0.52802ZM102.297 -0.52802M105.604 -0M106.351 -6.91407L105.604 -6.91407L105.604 -0L106.351 -0ZM106.351 -0" fill="black"/>
 </g>
 <g transform="matrix(1.000000,0.000000,0.000000,1.000000,28.346457,-107.716535)">
  <path d="M0.268991 -0M1.75342 -3.84558L2.92902 -3.84558L2.92902 -4.42341L1.72354 -4.42341L1.72354 -5.62889C1.72354 -6.2665 2.08219 -6.41594 2.33126 -6.41594C2.53051 -6.41594 2.74969 -6.35616 2.92902 -6.24658L2.92902 -6.91407C2.86924 -6.934 2.62017 -7.02366 2.33126 -7.02366C1.59402 -7.02366 1.00623 -6.32628 1.00623 -5.33001L1.00623 -4.42341L0.268991 -4.42341L0.268991 -3.84558L1.00623 -3.84558L1.00623 -0L1.75342 -0ZM1.75342 -0M4.51308 -6.91407L3.76588 -6.91407L3.76588 -0L4.51308 -0ZM4.51308 -0M5.77833 -0M9.31507 -2.8792C9.31507 -3.89539 8.5878 -4.59278 7.67123 -4.59278C7.02366 -4.59278 6.57534 -4.43337 6.1071 -4.16438L6.16687 -3.50685C6.68493 -3.87547 7.18306 -4.00498 7.67123 -4.00498C8.13948 -4.00498 8.53798 -3.60648 8.53798 -2.86924L8.53798 -2.44085C7.04359 -2.42092 5.77833 -2.00249 5.77833 -1.12578C5.77833 -0.697385 6.04732 0.109589 6.91407 0.109589C7.05355 0.109589 7.99004 0.0896638 8.56787 -0.358655L8.56787 -0L9.31507 -0ZM9.31507 -0M8.53798 -1.31507C8.53798 -1.12578 8.53798 -0.876712 8.19925 -0.687422C7.91034 -0.508095 7.53176 -0.498132 7.42217 -0.498132C6.94396 -0.498132 6.49564 -0.727273 6.49564 -1.1457C6.49564 -1.84309 8.10959 -1.91283 8.53798 -1.93275ZM8.53798 -1.93275M10.401 -0M13.6289 -3.89539C13.8481 -3.89539 14.127 -3.93524 14.3661 -3.93524C14.5455 -3.93524 14.934 -3.90535 14.9539 -3.90535L14.8443 -4.533C14.1469 -4.533 13.5691 -4.34371 13.2702 -4.2142C13.061 -4.38356 12.7223 -4.533 12.3238 -4.533C11.467 -4.533 10.7397 -3.81569 10.7397 -2.90909C10.7397 -2.54047 10.8692 -2.18182 11.0685 -1.92279C10.7796 -1.51432 10.7796 -1.12578 10.7796 -1.07597C10.7796 -0.816936 10.8692 -0.52802 11.0386 -0.318804C10.5205 -0.00996264 10.401 0.448319 10.401 0.707347C10.401 1.45455 11.3873 2.0523 12.6027 2.0523C13.8281 2.0523 14.8144 1.46451 14.8144 0.697385C14.8144 -0.687422 13.1507 -0.687422 12.7621 -0.687422L11.8854 -0.687422C11.7559 -0.687422 11.3076 -0.687422 11.3076 -1.21544C11.3076 -1.32503 11.3474 -1.48443 11.4172 -1.5741C11.6264 -1.42466 11.9552 -1.28518 12.3238 -1.28518C13.2204 -1.28518 13.9178 -2.02242 13.9178 -2.90909C13.9178 -3.3873 13.6986 -3.75592 13.589 -3.90535ZM13.589 -3.90535M12.3238 -1.85305C11.9552 -1.85305 11.4371 -2.08219 11.4371 -2.90909C11.4371 -3.73599 11.9552 -3.96513 12.3238 -3.96513C12.7522 -3.96513 13.2204 -3.68618 13.2204 -2.90909C13.2204 -2.132 12.7522 -1.85305 12.3238 -1.85305ZM12.3238 -1.85305M12.7721 0.0298879C12.9913 0.0298879 14.1171 0.0298879 14.1171 0.71731C14.1171 1.15567 13.4296 1.48443 12.6127 1.48443C11.8057 1.48443 11.0984 1.17559 11.0984 0.707347C11.0984 0.67746 11.0984 0.0298879 11.8755 0.0298879ZM11.8755 0.0298879M15.3823 -0M18.5205 -4.27397C18.0025 -4.51308 17.594 -4.59278 17.0859 -4.59278C16.8369 -4.59278 15.4321 -4.59278 15.4321 -3.28767C15.4321 -2.7995 15.721 -2.4807 15.9701 -2.29141C16.279 -2.07223 16.4981 -2.03238 17.0461 -1.92279C17.4047 -1.85305 17.9826 -1.7335 17.9826 -1.20548C17.9826 -0.518057 17.1955 -0.518057 17.0461 -0.518057C16.2391 -0.518057 15.6812 -0.886675 15.5019 -1.00623L15.3823 -0.328767C15.7011 -0.169365 16.2491 0.109589 17.056 0.109589C17.2354 0.109589 17.7833 0.109589 18.2117 -0.209215C18.5205 -0.448319 18.6899 -0.846824 18.6899 -1.27522C18.6899 -1.82316 18.3213 -2.16189 18.3014 -2.19178C17.9128 -2.54047 17.6438 -2.60025 17.1457 -2.68991C16.5978 -2.7995 16.1395 -2.89913 16.1395 -3.3873C16.1395 -4.00498 16.8568 -4.00498 16.9863 -4.00498C17.3051 -4.00498 17.8331 -3.96513 18.401 -3.6264ZM18.401 -3.6264" fill="black"/>
 </g>
 <g transform="matrix(1.000000,0.000000,0.000000,1.000000,124.724409,-107.716535)">
  <path d="M-7.41424 -0M-4.64662 -2.05031C-4.64662 -2.86924 -4.64662 -4.27995 -6.02744 -4.27995C-7.41424 -4.27995 -7.41424 -2.8812 -7.41424 -2.05031C-7.41424 -1.23138 -7.41424 0.131507 -6.03342 0.131507C-4.64662 0.131507 -4.64662 -1.21943 -4.64662 -2.05031ZM-4.64662 -2.05031M-6.03342 -0.298879C-6.47576 -0.298879 -6.54151 -0.848817 -6.55944 -1.01021C-6.60129 -1.32702 -6.60129 -1.88892 -6.60129 -2.134C-6.60129 -2.48667 -6.60129 -2.86924 -6.56542 -3.16214C-6.54749 -3.32354 -6.48771 -3.84956 -6.03342 -3.84956C-5.59108 -3.84956 -5.51935 -3.34745 -5.50141 -3.2279C-5.45957 -2.92304 -5.45957 -2.45081 -5.45957 -2.134C-5.45957 -1.79328 -5.45957 -1.32702 -5.50141 -0.998257C-5.51935 -0.842839 -5.5851 -0.298879 -6.03342 -0.298879ZM-6.03342 -0.298879M-3.83964 -0M-3.55272 -4.14844C-3.76791 -4.14844 -3.83964 -4.08269 -3.83964 -3.86152L-3.83964 -0.286924C-3.83964 -0.071731 -3.77389 -0 -3.55272 -0L-1.91486 -0C-1.47252 -0 -0.372645 -0.0777086 -0.372645 -1.15965C-0.372645 -2.00249 -1.20353 -2.134 -1.4247 -2.16986C-0.874762 -2.29539 -0.55795 -2.60623 -0.55795 -3.07248C-0.55795 -4.14844 -1.83118 -4.14844 -2.08223 -4.14844ZM-2.08223 -4.14844M-2.9968 -2.3731L-2.9968 -3.63437L-2.29743 -3.63437C-2.0643 -3.63437 -1.3709 -3.61644 -1.3709 -3.05455C-1.3709 -2.3731 -2.15397 -2.3731 -2.3034 -2.3731ZM-2.3034 -2.3731M-2.9968 -0.514072L-2.9968 -1.94271L-2.24363 -1.94271C-2.03441 -1.94271 -1.20353 -1.94271 -1.20353 -1.17161C-1.20353 -0.555915 -1.84313 -0.514072 -2.13006 -0.514072ZM-2.13006 -0.514072" fill="black"/>
 </g>
 <g stroke-width="0.400879">
  <path d="M152.078 -99.2648C217.473 -95.4778 306.02 -65.7211 311.92 -121.598" stroke="#3cc"/>
  <g stroke-linecap="butt" stroke-dasharray="none">
   <path d="M310.203 -120.961C310.882 -122.147 311.534 -123.401 312.159 -124.724C312.653 -123.347 313.078 -121.999 313.437 -120.68L311.92 -121.598Z" fill="#3cc"/>
  </g>
 </g>
 <g stroke-width="1.133858">
  <path d="M282.465 -123.724L341.998 -123.724L341.998 -131.813L282.465 -131.813Z" stroke="#3cc" fill="#9cc"/>
 </g>
 <g transform="matrix(1.000000,0.000000,0.000000,1.000000,283.464567,-124.724409)">
  <path d="M0.498132 -0M4.72229 -3.03861C4.72229 -4.89166 3.7061 -6.19676 2.61021 -6.19676C1.4944 -6.19676 0.498132 -4.86177 0.498132 -3.04857C0.498132 -1.19552 1.51432 0.109589 2.61021 0.109589C3.72603 0.109589 4.72229 -1.2254 4.72229 -3.03861ZM4.72229 -3.03861M2.61021 -0.498132C1.83313 -0.498132 1.18555 -1.67372 1.18555 -3.14819C1.18555 -4.60274 1.87298 -5.58904 2.61021 -5.58904C3.33748 -5.58904 4.03487 -4.6127 4.03487 -3.14819C4.03487 -1.67372 3.3873 -0.498132 2.61021 -0.498132ZM2.61021 -0.498132M5.72852 -0M9.95268 -3.03861C9.95268 -4.89166 8.93649 -6.19676 7.8406 -6.19676C6.72478 -6.19676 5.72852 -4.86177 5.72852 -3.04857C5.72852 -1.19552 6.74471 0.109589 7.8406 0.109589C8.95641 0.109589 9.95268 -1.2254 9.95268 -3.03861ZM9.95268 -3.03861M7.8406 -0.498132C7.06351 -0.498132 6.41594 -1.67372 6.41594 -3.14819C6.41594 -4.60274 7.10336 -5.58904 7.8406 -5.58904C8.56787 -5.58904 9.26526 -4.6127 9.26526 -3.14819C9.26526 -1.67372 8.61768 -0.498132 7.8406 -0.498132ZM7.8406 -0.498132" fill="black"/>
  <path d="M16.1892 -0M20.4133 -3.03861C20.4133 -4.89166 19.3971 -6.19676 18.3012 -6.19676C17.1854 -6.19676 16.1892 -4.86177 16.1892 -3.04857C16.1892 -1.19552 17.2053 0.109589 18.3012 0.109589C19.417 0.109589 20.4133 -1.2254 20.4133 -3.03861ZM20.4133 -3.03861M18.3012 -0.498132C17.5241 -0.498132 16.8766 -1.67372 16.8766 -3.14819C16.8766 -4.60274 17.564 -5.58904 18.3012 -5.58904C19.0285 -5.58904 19.7259 -4.6127 19.7259 -3.14819C19.7259 -1.67372 19.0783 -0.498132 18.3012 -0.498132ZM18.3012 -0.498132M21.4195 -0M25.6437 -3.03861C25.6437 -4.89166 24.6275 -6.19676 23.5316 -6.19676C22.4158 -6.19676 21.4195 -4.86177 21.4195 -3.04857C21.4195 -1.19552 22.4357 0.109589 23.5316 0.109589C24.6474 0.109589 25.6437 -1.2254 25.6437 -3.03861ZM25.6437 -3.03861M23.5316 -0.498132C22.7545 -0.498132 22.107 -1.67372 22.107 -3.14819C22.107 -4.60274 22.7944 -5.58904 23.5316 -5.58904C24.2589 -5.58904 24.9563 -4.6127 24.9563 -3.14819C24.9563 -1.67372 24.3087 -0.498132 23.5316 -0.498132ZM23.5316 -0.498132" fill="black"/>
  <path d="M31.8802 -0M36.1043 -3.03861C36.1043 -4.89166 35.0881 -6.19676 33.9923 -6.19676C32.8764 -6.19676 31.8802 -4.86177 31.8802 -3.04857C31.8802 -1.19552 32.8964 0.109589 33.9923 0.109589C35.1081 0.109589 36.1043 -1.2254 36.1043 -3.03861ZM36.1043 -3.03861M33.9923 -0.498132C33.2152 -0.498132 32.5676 -1.67372 32.5676 -3.14819C32.5676 -4.60274 33.255 -5.58904 33.9923 -5.58904C34.7195 -5.58904 35.4169 -4.6127 35.4169 -3.14819C35.4169 -1.67372 34.7693 -0.498132 33.9923 -0.498132ZM33.9923 -0.498132M37.1305 -0M37.2799 -0.577833C37.1903 -0.498132 37.1305 -0.448319 37.1305 -0.308842C37.1305 -0 37.3796 -0 37.539 -0L40.9163 -0C41.2451 -0 41.3148 -0.0896638 41.3148 -0.408468L41.3148 -0.667497C41.3148 -0.856787 41.3148 -1.07597 40.9761 -1.07597C40.6274 -1.07597 40.6274 -0.886675 40.6274 -0.607721L38.2563 -0.607721C38.8441 -1.11582 39.8005 -1.86301 40.2289 -2.26152C40.8565 -2.81943 41.3148 -3.45704 41.3148 -4.25405C41.3148 -5.44956 40.3086 -6.19676 39.0931 -6.19676C37.9175 -6.19676 37.1305 -5.37983 37.1305 -4.533C37.1305 -4.16438 37.4094 -4.05479 37.5788 -4.05479C37.788 -4.05479 38.0172 -4.22416 38.0172 -4.50311C38.0172 -4.62267 37.9673 -4.75218 37.8777 -4.82192C38.0271 -5.2802 38.4954 -5.58904 39.0433 -5.58904C39.8602 -5.58904 40.6274 -5.13076 40.6274 -4.25405C40.6274 -3.55666 40.1392 -2.97883 39.4817 -2.43088ZM39.4817 -2.43088" fill="black"/>
  <path d="M47.5114 -0M50.829 -5.47945C49.1054 -3.64633 48.7667 -1.45455 48.7667 -0.358655C48.7667 -0.219178 48.7667 0.109589 49.1154 0.109589C49.2848 0.109589 49.4541 -0 49.4541 -0.288917C49.5039 -3.11831 51.0282 -4.85181 51.636 -5.4396C51.8352 -5.61893 51.8551 -5.63885 51.8551 -5.77833C51.8551 -6.08717 51.616 -6.08717 51.4566 -6.08717L48.169 -6.08717C48.1092 -6.24658 47.9299 -6.24658 47.8501 -6.24658C47.5114 -6.24658 47.5114 -6.0274 47.5114 -5.83811L47.5114 -5.41968C47.5114 -5.23039 47.5114 -5.01121 47.8501 -5.01121C48.1988 -5.01121 48.1988 -5.2005 48.1988 -5.47945ZM48.1988 -5.47945M52.8315 -0M53.5388 -3.36737C53.6783 -4.7721 54.6148 -5.58904 55.4915 -5.58904C55.8302 -5.58904 55.9896 -5.47945 56.0394 -5.42964C55.9896 -5.37983 55.9398 -5.32005 55.9398 -5.14072C55.9398 -4.90162 56.1191 -4.70237 56.3782 -4.70237C56.6272 -4.70237 56.8265 -4.87173 56.8265 -5.17061C56.8265 -5.65878 56.4678 -6.19676 55.5015 -6.19676C54.1665 -6.19676 52.8315 -4.99128 52.8315 -2.97883C52.8315 -0.617684 53.9473 0.109589 54.9336 0.109589C56.0195 0.109589 56.9959 -0.727273 56.9959 -1.92279C56.9959 -3.05853 56.1191 -3.94521 55.0233 -3.94521C54.5052 -3.94521 53.9871 -3.77584 53.5388 -3.36737ZM53.5388 -3.36737M54.9336 -0.498132C54.286 -0.498132 53.8975 -0.986301 53.6982 -1.59402C53.6783 -1.6538 53.6683 -1.71357 53.6484 -1.77335C53.6484 -1.77335 53.6384 -1.8132 53.6384 -1.8132C53.6384 -1.8132 53.6484 -1.90286 53.6484 -1.90286C53.6384 -1.9726 53.6185 -2.14197 53.6185 -2.21171C53.6185 -2.82939 54.2163 -3.32752 54.9734 -3.32752C55.7804 -3.32752 56.3084 -2.66002 56.3084 -1.92279C56.3084 -1.066 55.6509 -0.498132 54.9336 -0.498132ZM54.9336 -0.498132" fill="black"/>
 </g>
 <g transform="matrix(1.000000,0.000000,0.000000,1.000000,28.346457,-96.377953)">
  <path d="M0.737235 -0M1.62391 -6.7746L0.737235 -6.7746L0.737235 -5.88792L1.62391 -5.88792ZM1.62391 -5.88792M1.55417 -4.42341L0.806974 -4.42341L0.806974 -0L1.55417 -0ZM1.55417 -0M2.72976 -0M6.69489 -6.91407L5.9477 -6.91407L5.9477 -3.98506C5.41968 -4.42341 4.86177 -4.533 4.49315 -4.533C3.50685 -4.533 2.72976 -3.49689 2.72976 -2.21171C2.72976 -0.9066 3.49689 0.109589 4.44334 0.109589C4.7721 0.109589 5.3599 0.0199253 5.91781 -0.518057L5.91781 -0L6.69489 -0ZM6.69489 -0M5.91781 -1.38481C5.91781 -1.24533 5.90785 -1.066 5.58904 -0.777086C5.3599 -0.577833 5.11083 -0.498132 4.85181 -0.498132C4.23412 -0.498132 3.50685 -0.966376 3.50685 -2.20174C3.50685 -3.51681 4.36364 -3.92528 4.95143 -3.92528C5.39975 -3.92528 5.69863 -3.69614 5.91781 -3.37733ZM5.91781 -3.37733M7.86052 -0M11.6364 -2.18182C11.6364 -2.52055 11.6264 -3.26775 11.2379 -3.8655C10.8294 -4.48319 10.2217 -4.59278 9.86301 -4.59278C8.75716 -4.59278 7.86052 -3.53674 7.86052 -2.25156C7.86052 -0.936488 8.81694 0.109589 10.0125 0.109589C10.6401 0.109589 11.208 -0.129514 11.5965 -0.408468L11.5367 -1.05604C10.9091 -0.537983 10.2516 -0.498132 10.0224 -0.498132C9.2254 -0.498132 8.5878 -1.20548 8.55791 -2.18182ZM8.55791 -2.18182M8.60772 -2.72976C8.76712 -3.48692 9.29514 -3.98506 9.86301 -3.98506C10.3811 -3.98506 10.939 -3.64633 11.0685 -2.72976ZM11.0685 -2.72976M12.7422 -0M16.269 -2.96887C16.269 -3.6264 16.1196 -4.533 14.9041 -4.533C14.0075 -4.533 13.5193 -3.85554 13.4595 -3.77584L13.4595 -4.48319L12.7422 -4.48319L12.7422 -0L13.5193 -0L13.5193 -2.44085C13.5193 -3.09838 13.7684 -3.92528 14.5255 -3.92528C15.4819 -3.92528 15.4919 -3.21793 15.4919 -2.89913L15.4919 -0L16.269 -0ZM16.269 -0M17.2653 -0M18.8194 -3.84558L20.2242 -3.84558L20.2242 -4.42341L18.8194 -4.42341L18.8194 -5.68867L18.132 -5.68867L18.132 -4.42341L17.2653 -4.42341L17.2653 -3.84558L18.1021 -3.84558L18.1021 -1.18555C18.1021 -0.587796 18.2416 0.109589 18.929 0.109589C19.6264 0.109589 20.1345 -0.139477 20.3836 -0.268991L20.2242 -0.856787C19.9651 -0.647572 19.6463 -0.52802 19.3275 -0.52802C18.9589 -0.52802 18.8194 -0.826899 18.8194 -1.35492ZM18.8194 -1.35492M21.4097 -0M22.2964 -6.7746L21.4097 -6.7746L21.4097 -5.88792L22.2964 -5.88792ZM22.2964 -5.88792M22.2267 -4.42341L21.4795 -4.42341L21.4795 -0L22.2267 -0ZM22.2267 -0M23.3126 -0M27.5965 -6.92403L26.7696 -6.92403L26.7696 -6.09714L27.5965 -6.09714ZM27.5965 -6.09714M27.5567 -4.42341L26.8095 -4.42341L26.8095 -0L27.5567 -0ZM27.5567 -0M24.797 -3.84558L25.9726 -3.84558L25.9726 -4.42341L24.7671 -4.42341L24.7671 -5.62889C24.7671 -6.2665 25.1258 -6.41594 25.3748 -6.41594C25.5841 -6.41594 25.8032 -6.3462 25.9726 -6.23661L25.9726 -6.91407C25.9128 -6.934 25.6638 -7.02366 25.3748 -7.02366C24.6376 -7.02366 24.0498 -6.32628 24.0498 -5.33001L24.0498 -4.42341L23.3126 -4.42341L23.3126 -3.84558L24.0498 -3.84558L24.0498 -0L24.797 -0ZM24.797 -0M28.7323 -0M32.5081 -2.18182C32.5081 -2.52055 32.4981 -3.26775 32.1096 -3.8655C31.7011 -4.48319 31.0934 -4.59278 30.7347 -4.59278C29.6289 -4.59278 28.7323 -3.53674 28.7323 -2.25156C28.7323 -0.936488 29.6887 0.109589 30.8842 0.109589C31.5118 0.109589 32.0797 -0.129514 32.4682 -0.408468L32.4085 -1.05604C31.7808 -0.537983 31.1233 -0.498132 30.8941 -0.498132C30.0971 -0.498132 29.4595 -1.20548 29.4296 -2.18182ZM29.4296 -2.18182M29.4795 -2.72976C29.6389 -3.48692 30.1669 -3.98506 30.7347 -3.98506C31.2528 -3.98506 31.8107 -3.64633 31.9402 -2.72976ZM31.9402 -2.72976M33.6239 -0M34.3711 -2.132C34.3711 -3.12827 35.0884 -3.84558 36.0648 -3.8655L36.0648 -4.533C35.1781 -4.52304 34.6301 -4.03487 34.3213 -3.57659L34.3213 -4.48319L33.6239 -4.48319L33.6239 -0L34.3711 -0ZM34.3711 -0" fill="black"/>
 </g>
 <g transform="matrix(1.000000,0.000000,0.000000,1.000000,124.724409,-96.377953)">
  <path d="M-9.65452 -0M-9.54094 -0.508095C-9.60072 -0.448319 -9.60072 -0.436364 -9.60072 -0.334745L-9.60072 -0.286924C-9.60072 -0.071731 -9.53496 -0 -9.31379 -0L-7.26348 -0C-7.03633 -0 -6.97656 -0.0777086 -6.97656 -0.286924L-6.97656 -0.358655C-6.97656 -0.454296 -6.97656 -0.56787 -7.10209 -0.621669C-7.14393 -0.645579 -7.33521 -0.645579 -7.45477 -0.645579C-7.58627 -0.645579 -7.72973 -0.639601 -7.86124 -0.639601L-8.82961 -0.639601L-8.04057 -1.3868C-7.9509 -1.46451 -7.72376 -1.64981 -7.63409 -1.7335C-7.30533 -2.05629 -6.97656 -2.3731 -6.97656 -2.90511C-6.97656 -3.63437 -7.50259 -4.27995 -8.38129 -4.27995C-8.59051 -4.27995 -8.93123 -4.25006 -9.21815 -4.01694C-9.27195 -3.97509 -9.54692 -3.7599 -9.65452 -3.3594L-9.35564 -2.97684C-9.31977 -2.92902 -9.30184 -2.90511 -9.26 -2.90511C-9.2062 -2.90511 -9.19424 -2.94695 -9.17631 -3.01868C-9.05676 -3.43113 -8.85352 -3.68219 -8.47095 -3.68219C-8.0047 -3.68219 -7.81342 -3.25778 -7.81342 -2.89315C-7.81342 -2.51059 -8.04057 -2.11009 -8.39922 -1.72752ZM-8.39922 -1.72752M-6.36684 -0M-4.47195 -1.82316C-4.47793 -1.76936 -4.47195 -1.65579 -4.48988 -1.39875C-4.51977 -1.03412 -4.62737 -0.430386 -5.2849 -0.430386C-5.47021 -0.430386 -5.64356 -0.478207 -5.80495 -0.627646C-5.83484 -0.663512 -5.85277 -0.675467 -5.88266 -0.675467C-5.93048 -0.675467 -5.94244 -0.645579 -5.97232 -0.597758C-6.0859 -0.406476 -6.16958 -0.268991 -6.16958 -0.233126C-6.16958 -0.185305 -5.85875 0.131507 -5.27295 0.131507C-3.63509 0.131507 -3.63509 -1.59004 -3.63509 -2.12802C-3.63509 -2.76762 -3.64107 -4.27995 -4.99798 -4.27995C-5.36859 -4.27995 -5.76311 -4.2142 -6.07394 -3.83163C-6.325 -3.50286 -6.36684 -3.20399 -6.36684 -2.74371C-6.36684 -2.36712 -6.35489 -2.0264 -6.09785 -1.68568C-5.85875 -1.37484 -5.58378 -1.28518 -5.20122 -1.28518C-4.75887 -1.28518 -4.54966 -1.63786 -4.47195 -1.82316ZM-4.47195 -1.82316M-5.05178 -1.71557C-5.52998 -1.71557 -5.52998 -2.14595 -5.52998 -2.73773C-5.52998 -3.31756 -5.52998 -3.74795 -4.98602 -3.74795C-4.57357 -3.74795 -4.47793 -3.28767 -4.47793 -2.66002C-4.47793 -2.57634 -4.47793 -1.71557 -5.05178 -1.71557ZM-5.05178 -1.71557M-2.98951 -0M-2.19449 -3.86152C-2.19449 -4.0528 -2.23633 -4.14844 -2.48142 -4.14844L-2.70259 -4.14844C-2.91778 -4.14844 -2.98951 -4.08269 -2.98951 -3.86152L-2.98951 -0.286924C-2.98951 -0.071731 -2.92376 -0 -2.70259 -0L-2.46348 -0C-2.36186 -0 -2.18254 -0 -2.17656 -0.233126C-1.90159 0.0657534 -1.59673 0.0657534 -1.50109 0.0657534C-0.227866 0.0657534 -0.227866 -1.08194 -0.227866 -1.38082C-0.227866 -1.66775 -0.227866 -2.80349 -1.35165 -2.80349C-1.84181 -2.80349 -2.14069 -2.52852 -2.19449 -2.46874ZM-2.19449 -2.46874M-2.17656 -2.16389C-2.09885 -2.23562 -1.91952 -2.3731 -1.64455 -2.3731C-1.04082 -2.3731 -1.04082 -1.82316 -1.04082 -1.37484C-1.04082 -0.932503 -1.04082 -0.364633 -1.71031 -0.364633C-1.96137 -0.364633 -2.11081 -0.514072 -2.17656 -0.597758ZM-2.17656 -0.597758" fill="black"/>
 </g>
 <g transform="matrix(1.000000,0.000000,0.000000,1.000000,127.559055,-96.377953)">
  <path d="M0.418431 -0M4.55293 -3.24782C4.55293 -4.03487 4.51308 -4.96139 4.09465 -5.76837C3.68618 -6.51557 2.99875 -6.75467 2.49066 -6.75467C1.90286 -6.75467 1.20548 -6.48568 0.797011 -5.599C0.468244 -4.87173 0.418431 -4.04483 0.418431 -3.24782C0.418431 -2.46077 0.458281 -1.7335 0.757161 -1.00623C1.15567 -0.0498132 1.91283 0.219178 2.4807 0.219178C3.20797 0.219178 3.83562 -0.18929 4.15442 -0.876712C4.4533 -1.52428 4.55293 -2.18182 4.55293 -3.24782ZM4.55293 -3.24782M2.49066 -0.388543C1.9726 -0.388543 1.56413 -0.767123 1.36488 -1.48443C1.20548 -2.0523 1.19552 -2.59029 1.19552 -3.36737C1.19552 -3.99502 1.19552 -4.59278 1.36488 -5.14072C1.42466 -5.33001 1.67372 -6.14695 2.4807 -6.14695C3.25778 -6.14695 3.51681 -5.38979 3.58655 -5.21046C3.77584 -4.65255 3.77584 -3.98506 3.77584 -3.36737C3.77584 -2.70984 3.77584 -2.08219 3.59651 -1.45455C3.33748 -0.547945 2.80946 -0.388543 2.49066 -0.388543ZM2.49066 -0.388543M4.98132 -0M7.57161 -2.28144L9.39477 -4.42341L8.57783 -4.42341L7.24284 -2.77958L5.868 -4.42341L5.0411 -4.42341L6.91407 -2.28144L4.98132 -0L5.79826 -0L7.24284 -1.87298L8.73724 -0L9.56413 -0ZM9.56413 -0M9.99253 -0M11.3076 -1.87298L10.0722 -0.637609L10.0722 -0L14.0473 -0L14.0473 -0.707347L12.2341 -0.707347C12.1146 -0.707347 11.995 -0.697385 11.8755 -0.697385L10.7895 -0.697385C11.1083 -0.976339 11.8655 -1.72354 12.1743 -2.01245C12.3636 -2.19178 12.8717 -2.61021 13.061 -2.78954C13.5093 -3.23786 14.0473 -3.76588 14.0473 -4.6127C14.0473 -5.75841 13.2403 -6.75467 11.9253 -6.75467C10.7895 -6.75467 10.2316 -5.97758 9.99253 -5.1208C10.1121 -4.95143 10.1619 -4.89166 10.1818 -4.86177C10.2017 -4.84184 10.3014 -4.71233 10.401 -4.57285C10.6002 -5.33998 10.8792 -6.11706 11.7858 -6.11706C12.7223 -6.11706 13.2304 -5.36986 13.2304 -4.59278C13.2304 -3.74595 12.6625 -3.17808 12.0747 -2.58032ZM12.0747 -2.58032M14.9738 -0M16.8667 -5.82814C16.9863 -5.82814 17.1059 -5.83811 17.2254 -5.83811L18.4309 -5.83811C16.9564 -4.2142 16.0697 -2.22167 16.0697 0.109589L16.9066 0.109589C16.9066 -2.8792 18.3313 -5.01121 19.1083 -5.88792L19.1083 -6.53549L14.9738 -6.53549L14.9738 -5.82814ZM14.9738 -5.82814M19.9552 -0M23.6712 -6.55542C23.1631 -6.75467 22.7547 -6.75467 22.6152 -6.75467C21.2105 -6.75467 19.9552 -5.34994 19.9552 -3.20797C19.9552 -0.388543 21.1905 0.219178 22.0374 0.219178C22.6351 0.219178 23.0635 -0.00996264 23.4521 -0.458281C23.9004 -0.966376 24.0897 -1.42466 24.0897 -2.21171C24.0897 -3.48692 23.4321 -4.60274 22.4757 -4.60274C22.1569 -4.60274 21.3998 -4.52304 20.792 -3.77584C20.9215 -5.37983 21.7086 -6.17684 22.6252 -6.17684C23.0037 -6.17684 23.3225 -6.1071 23.6712 -5.96762ZM23.6712 -5.96762M20.802 -2.18182C20.802 -2.3213 20.802 -2.34122 20.812 -2.46077C20.812 -3.19801 21.2603 -3.99502 22.0872 -3.99502C22.5654 -3.99502 22.8443 -3.74595 23.0436 -3.37733C23.2528 -3.00872 23.2727 -2.66002 23.2727 -2.21171C23.2727 -1.87298 23.2727 -1.41469 23.0336 -1.00623C22.8643 -0.727273 22.6052 -0.388543 22.0374 -0.388543C20.9813 -0.388543 20.8319 -1.85305 20.802 -2.18182ZM20.802 -2.18182" fill="black"/>
 </g>
 <g stroke-width="0.400879">
  <path d="M132.54 -88.2922C217.954 -87.4311 344.627 -43.2972 350.821 -121.594" stroke="#7f7f33"/>
  <g stroke-linecap="butt" stroke-dasharray="none">
   <path d="M349.126 -120.919C349.772 -122.137 350.397 -123.405 351.002 -124.724C351.507 -123.364 351.961 -122.025 352.366 -120.708L350.821 -121.594Z" fill="#7f7f33"/>
  </g>
 </g>
 <g stroke-width="1.133858">
  <path d="M344.827 -123.724L357.287 -123.724L357.287 -131.813L344.827 -131.813Z" stroke="#7f7f33" fill="#9cc"/>
 </g>
 <g transform="matrix(1.000000,0.000000,0.000000,1.000000,345.826772,-124.724409)">
  <path d="M0.498132 -0M4.72229 -3.03861C4.72229 -4.89166 3.7061 -6.19676 2.61021 -6.19676C1.4944 -6.19676 0.498132 -4.86177 0.498132 -3.04857C0.498132 -1.19552 1.51432 0.109589 2.61021 0.109589C3.72603 0.109589 4.72229 -1.2254 4.72229 -3.03861ZM4.72229 -3.03861M2.61021 -0.498132C1.83313 -0.498132 1.18555 -1.67372 1.18555 -3.14819C1.18555 -4.60274 1.87298 -5.58904 2.61021 -5.58904C3.33748 -5.58904 4.03487 -4.6127 4.03487 -3.14819C4.03487 -1.67372 3.3873 -0.498132 2.61021 -0.498132ZM2.61021 -0.498132M5.66874 -0M7.8406 -3.58655C7.11333 -3.58655 6.49564 -4.03487 6.49564 -4.59278C6.49564 -5.11083 7.05355 -5.58904 7.8406 -5.58904C8.61768 -5.58904 9.18555 -5.11083 9.18555 -4.59278C9.18555 -4.02491 8.56787 -3.58655 7.8406 -3.58655ZM7.8406 -3.58655M8.62765 -3.27771C9.42466 -3.5467 9.87298 -4.03487 9.87298 -4.60274C9.87298 -5.41968 9.02615 -6.19676 7.8406 -6.19676C6.64508 -6.19676 5.80822 -5.40971 5.80822 -4.60274C5.80822 -4.03487 6.2665 -3.53674 7.05355 -3.27771C6.30635 -3.06849 5.66874 -2.4807 5.66874 -1.7335C5.66874 -0.767123 6.59527 0.109589 7.8406 0.109589C9.09589 0.109589 10.0125 -0.767123 10.0125 -1.7335C10.0125 -2.4807 9.36488 -3.06849 8.62765 -3.27771ZM8.62765 -3.27771M7.8406 -0.498132C7.0137 -0.498132 6.35616 -1.05604 6.35616 -1.74346C6.35616 -2.35118 6.934 -2.97883 7.8406 -2.97883C8.75716 -2.97883 9.32503 -2.35118 9.32503 -1.74346C9.32503 -1.05604 8.6675 -0.498132 7.8406 -0.498132ZM7.8406 -0.498132" fill="black"/>
 </g>
 <g transform="matrix(1.000000,0.000000,0.000000,1.000000,28.346457,-85.039370)">
  <path d="M0.806974 -0M1.55417 -6.91407L0.806974 -6.91407L0.806974 -0L1.55417 -0ZM1.55417 -0M2.7198 -0M6.49564 -2.18182C6.49564 -2.52055 6.48568 -3.26775 6.09714 -3.8655C5.68867 -4.48319 5.08095 -4.59278 4.72229 -4.59278C3.61644 -4.59278 2.7198 -3.53674 2.7198 -2.25156C2.7198 -0.936488 3.67621 0.109589 4.87173 0.109589C5.49938 0.109589 6.06725 -0.129514 6.45579 -0.408468L6.39601 -1.05604C5.76837 -0.537983 5.11083 -0.498132 4.88169 -0.498132C4.08468 -0.498132 3.44707 -1.20548 3.41719 -2.18182ZM3.41719 -2.18182M3.467 -2.72976C3.6264 -3.48692 4.15442 -3.98506 4.72229 -3.98506C5.24035 -3.98506 5.79826 -3.64633 5.92777 -2.72976ZM5.92777 -2.72976M7.60149 -0M11.1283 -2.96887C11.1283 -3.6264 10.9788 -4.533 9.76339 -4.533C8.86675 -4.533 8.37858 -3.85554 8.3188 -3.77584L8.3188 -4.48319L7.60149 -4.48319L7.60149 -0L8.37858 -0L8.37858 -2.44085C8.37858 -3.09838 8.62765 -3.92528 9.38481 -3.92528C10.3412 -3.92528 10.3512 -3.21793 10.3512 -2.89913L10.3512 -0L11.1283 -0ZM11.1283 -0M12.2142 -0M15.4421 -3.89539C15.6613 -3.89539 15.9402 -3.93524 16.1793 -3.93524C16.3587 -3.93524 16.7472 -3.90535 16.7671 -3.90535L16.6575 -4.533C15.9601 -4.533 15.3823 -4.34371 15.0834 -4.2142C14.8742 -4.38356 14.5355 -4.533 14.137 -4.533C13.2802 -4.533 12.5529 -3.81569 12.5529 -2.90909C12.5529 -2.54047 12.6824 -2.18182 12.8817 -1.92279C12.5928 -1.51432 12.5928 -1.12578 12.5928 -1.07597C12.5928 -0.816936 12.6824 -0.52802 12.8518 -0.318804C12.3337 -0.00996264 12.2142 0.448319 12.2142 0.707347C12.2142 1.45455 13.2005 2.0523 14.4159 2.0523C15.6413 2.0523 16.6276 1.46451 16.6276 0.697385C16.6276 -0.687422 14.9639 -0.687422 14.5753 -0.687422L13.6986 -0.687422C13.5691 -0.687422 13.1208 -0.687422 13.1208 -1.21544C13.1208 -1.32503 13.1606 -1.48443 13.2304 -1.5741C13.4396 -1.42466 13.7684 -1.28518 14.137 -1.28518C15.0336 -1.28518 15.731 -2.02242 15.731 -2.90909C15.731 -3.3873 15.5118 -3.75592 15.4022 -3.90535ZM15.4022 -3.90535M14.137 -1.85305C13.7684 -1.85305 13.2503 -2.08219 13.2503 -2.90909C13.2503 -3.73599 13.7684 -3.96513 14.137 -3.96513C14.5654 -3.96513 15.0336 -3.68618 15.0336 -2.90909C15.0336 -2.132 14.5654 -1.85305 14.137 -1.85305ZM14.137 -1.85305M14.5853 0.0298879C14.8045 0.0298879 15.9303 0.0298879 15.9303 0.71731C15.9303 1.15567 15.2428 1.48443 14.4259 1.48443C13.6189 1.48443 12.9116 1.17559 12.9116 0.707347C12.9116 0.67746 12.9116 0.0298879 13.6887 0.0298879ZM13.6887 0.0298879M17.1059 -0M18.66 -3.84558L20.0648 -3.84558L20.0648 -4.42341L18.66 -4.42341L18.66 -5.68867L17.9726 -5.68867L17.9726 -4.42341L17.1059 -4.42341L17.1059 -3.84558L17.9427 -3.84558L17.9427 -1.18555C17.9427 -0.587796 18.0822 0.109589 18.7696 0.109589C19.467 0.109589 19.9751 -0.139477 20.2242 -0.268991L20.0648 -0.856787C19.8057 -0.647572 19.4869 -0.52802 19.1681 -0.52802C18.7995 -0.52802 18.66 -0.826899 18.66 -1.35492ZM18.66 -1.35492M21.32 -0M24.8468 -2.96887C24.8468 -3.6264 24.6974 -4.533 23.4819 -4.533C22.8643 -4.533 22.3861 -4.22416 22.0672 -3.81569L22.0672 -6.91407L21.32 -6.91407L21.32 -0L22.0971 -0L22.0971 -2.44085C22.0971 -3.09838 22.3462 -3.92528 23.1034 -3.92528C24.0598 -3.92528 24.0697 -3.21793 24.0697 -2.89913L24.0697 -0L24.8468 -0ZM24.8468 -0" fill="black"/>
 </g>
 <g transform="matrix(1.000000,0.000000,0.000000,1.000000,124.724409,-85.039370)">
  <path d="M-7.21698 -0M-5.54923 -3.99303C-5.54923 -4.1066 -5.54923 -4.27995 -5.81225 -4.27995C-5.9318 -4.27995 -5.95571 -4.268 -6.02744 -4.19626C-6.13504 -4.10062 -6.36218 -3.87945 -6.95397 -3.8675C-7.06156 -3.8675 -7.21698 -3.82565 -7.21698 -3.6523C-7.21698 -3.43711 -7.00776 -3.43711 -6.93006 -3.43711C-6.75073 -3.43711 -6.54151 -3.467 -6.36816 -3.51482L-6.36816 -0.430386L-6.83441 -0.430386C-6.91212 -0.430386 -7.12134 -0.430386 -7.12134 -0.215193C-7.12134 -0 -6.91212 -0 -6.83441 -0L-5.1308 -0C-5.06505 -0 -4.84388 -0 -4.84388 -0.215193C-4.84388 -0.430386 -5.06505 -0.430386 -5.1308 -0.430386L-5.54923 -0.430386ZM-5.54923 -0.430386M-3.83964 -0M-3.55272 -4.14844C-3.76791 -4.14844 -3.83964 -4.08269 -3.83964 -3.86152L-3.83964 -0.286924C-3.83964 -0.071731 -3.77389 -0 -3.55272 -0L-1.91486 -0C-1.47252 -0 -0.372645 -0.0777086 -0.372645 -1.15965C-0.372645 -2.00249 -1.20353 -2.134 -1.4247 -2.16986C-0.874762 -2.29539 -0.55795 -2.60623 -0.55795 -3.07248C-0.55795 -4.14844 -1.83118 -4.14844 -2.08223 -4.14844ZM-2.08223 -4.14844M-2.9968 -2.3731L-2.9968 -3.63437L-2.29743 -3.63437C-2.0643 -3.63437 -1.3709 -3.61644 -1.3709 -3.05455C-1.3709 -2.3731 -2.15397 -2.3731 -2.3034 -2.3731ZM-2.3034 -2.3731M-2.9968 -0.514072L-2.9968 -1.94271L-2.24363 -1.94271C-2.03441 -1.94271 -1.20353 -1.94271 -1.20353 -1.17161C-1.20353 -0.555915 -1.84313 -0.514072 -2.13006 -0.514072ZM-2.13006 -0.514072" fill="black"/>
 </g>
 <g transform="matrix(1.000000,0.000000,0.000000,1.000000,127.559055,-85.039370)">
  <path d="M0.418431 -0M3.18804 -3.53674C4.07472 -3.82565 4.41345 -4.48319 4.41345 -5.01121C4.41345 -5.9477 3.56663 -6.75467 2.49066 -6.75467C1.37484 -6.75467 0.557908 -5.92777 0.557908 -5.01121C0.557908 -4.48319 0.896638 -3.82565 1.78331 -3.53674C1.066 -3.28767 0.418431 -2.66002 0.418431 -1.79328C0.418431 -0.707347 1.33499 0.219178 2.4807 0.219178C3.66625 0.219178 4.55293 -0.737235 4.55293 -1.79328C4.55293 -2.69988 3.85554 -3.3076 3.18804 -3.53674ZM3.18804 -3.53674M2.49066 -3.83562C1.72354 -3.83562 1.25529 -4.32379 1.25529 -5.01121C1.25529 -5.69863 1.74346 -6.17684 2.4807 -6.17684C3.26775 -6.17684 3.71606 -5.65878 3.71606 -5.01121C3.71606 -4.2939 3.20797 -3.83562 2.49066 -3.83562ZM2.49066 -3.83562M2.49066 -0.388543C1.80324 -0.388543 1.2254 -0.86675 1.2254 -1.80324C1.2254 -2.84932 1.94271 -3.2279 2.4807 -3.2279C3.05853 -3.2279 3.74595 -2.82939 3.74595 -1.80324C3.74595 -0.836862 3.12827 -0.388543 2.49066 -0.388543ZM2.49066 -0.388543" fill="black"/>
 </g>
 <g stroke-width="0.400879">
  <path d="M132.54 -76.9563C230.767 -76.1769 375.98 -30.2529 382.136 -121.593" stroke="#7fcc7f"/>
  <g stroke-linecap="butt" stroke-dasharray="none">
   <path d="M380.452 -120.902C381.083 -122.134 381.696 -123.408 382.291 -124.724C382.801 -123.373 383.268 -122.038 383.693 -120.721L382.136 -121.593Z" fill="#7fcc7f"/>
  </g>
 </g>
 <g stroke-width="1.133858">
  <path d="M360.417 -123.724L404.26 -123.724L404.26 -131.813L360.417 -131.813Z" stroke="#7fcc7f" fill="#9cc"/>
 </g>
 <g transform="matrix(1.000000,0.000000,0.000000,1.000000,361.417323,-124.724409)">
  <path d="M0.498132 -0M4.72229 -3.03861C4.72229 -4.89166 3.7061 -6.19676 2.61021 -6.19676C1.4944 -6.19676 0.498132 -4.86177 0.498132 -3.04857C0.498132 -1.19552 1.51432 0.109589 2.61021 0.109589C3.72603 0.109589 4.72229 -1.2254 4.72229 -3.03861ZM4.72229 -3.03861M2.61021 -0.498132C1.83313 -0.498132 1.18555 -1.67372 1.18555 -3.14819C1.18555 -4.60274 1.87298 -5.58904 2.61021 -5.58904C3.33748 -5.58904 4.03487 -4.6127 4.03487 -3.14819C4.03487 -1.67372 3.3873 -0.498132 2.61021 -0.498132ZM2.61021 -0.498132M5.72852 -0M9.95268 -3.03861C9.95268 -4.89166 8.93649 -6.19676 7.8406 -6.19676C6.72478 -6.19676 5.72852 -4.86177 5.72852 -3.04857C5.72852 -1.19552 6.74471 0.109589 7.8406 0.109589C8.95641 0.109589 9.95268 -1.2254 9.95268 -3.03861ZM9.95268 -3.03861M7.8406 -0.498132C7.06351 -0.498132 6.41594 -1.67372 6.41594 -3.14819C6.41594 -4.60274 7.10336 -5.58904 7.8406 -5.58904C8.56787 -5.58904 9.26526 -4.6127 9.26526 -3.14819C9.26526 -1.67372 8.61768 -0.498132 7.8406 -0.498132ZM7.8406 -0.498132" fill="black"/>
  <path d="M16.1892 -0M20.4133 -3.03861C20.4133 -4.89166 19.3971 -6.19676 18.3012 -6.19676C17.1854 -6.19676 16.1892 -4.86177 16.1892 -3.04857C16.1892 -1.19552 17.2053 0.109589 18.3012 0.109589C19.417 0.109589 20.4133 -1.2254 20.4133 -3.03861ZM20.4133 -3.03861M18.3012 -0.498132C17.5241 -0.498132 16.8766 -1.67372 16.8766 -3.14819C16.8766 -4.60274 17.564 -5.58904 18.3012 -5.58904C19.0285 -5.58904 19.7259 -4.6127 19.7259 -3.14819C19.7259 -1.67372 19.0783 -0.498132 18.3012 -0.498132ZM18.3012 -0.498132M21.4195 -0M25.6437 -3.03861C25.6437 -4.89166 24.6275 -6.19676 23.5316 -6.19676C22.4158 -6.19676 21.4195 -4.86177 21.4195 -3.04857C21.4195 -1.19552 22.4357 0.109589 23.5316 0.109589C24.6474 0.109589 25.6437 -1.2254 25.6437 -3.03861ZM25.6437 -3.03861M23.5316 -0.498132C22.7545 -0.498132 22.107 -1.67372 22.107 -3.14819C22.107 -4.60274 22.7944 -5.58904 23.5316 -5.58904C24.2589 -5.58904 24.9563 -4.6127 24.9563 -3.14819C24.9563 -1.67372 24.3087 -0.498132 23.5316 -0.498132ZM23.5316 -0.498132" fill="black"/>
  <path d="M31.8802 -0M36.1043 -3.03861C36.1043 -4.89166 35.0881 -6.19676 33.9923 -6.19676C32.8764 -6.19676 31.8802 -4.86177 31.8802 -3.04857C31.8802 -1.19552 32.8964 0.109589 33.9923 0.109589C35.1081 0.109589 36.1043 -1.2254 36.1043 -3.03861ZM36.1043 -3.03861M33.9923 -0.498132C33.2152 -0.498132 32.5676 -1.67372 32.5676 -3.14819C32.5676 -4.60274 33.255 -5.58904 33.9923 -5.58904C34.7195 -5.58904 35.4169 -4.6127 35.4169 -3.14819C35.4169 -1.67372 34.7693 -0.498132 33.9923 -0.498132ZM33.9923 -0.498132M37.1106 -0M41.3347 -3.03861C41.3347 -4.89166 40.3185 -6.19676 39.2226 -6.19676C38.1068 -6.19676 37.1106 -4.86177 37.1106 -3.04857C37.1106 -1.19552 38.1268 0.109589 39.2226 0.109589C40.3385 0.109589 41.3347 -1.2254 41.3347 -3.03861ZM41.3347 -3.03861M39.2226 -0.498132C38.4456 -0.498132 37.798 -1.67372 37.798 -3.14819C37.798 -4.60274 38.4854 -5.58904 39.2226 -5.58904C39.9499 -5.58904 40.6473 -4.6127 40.6473 -3.14819C40.6473 -1.67372 39.9997 -0.498132 39.2226 -0.498132ZM39.2226 -0.498132" fill="black"/>
 </g>
 <g transform="matrix(1.000000,0.000000,0.000000,1.000000,28.346457,-73.700787)">
  <path d="M0.816936 -0M1.56413 -2.132C1.56413 -3.12827 2.28144 -3.84558 3.25778 -3.8655L3.25778 -4.533C2.37111 -4.52304 1.82316 -4.03487 1.51432 -3.57659L1.51432 -4.48319L0.816936 -4.48319L0.816936 -0L1.56413 -0ZM1.56413 -0M3.74595 -0M7.52179 -2.18182C7.52179 -2.52055 7.51183 -3.26775 7.12329 -3.8655C6.71482 -4.48319 6.1071 -4.59278 5.74844 -4.59278C4.64259 -4.59278 3.74595 -3.53674 3.74595 -2.25156C3.74595 -0.936488 4.70237 0.109589 5.89788 0.109589C6.52553 0.109589 7.0934 -0.129514 7.48194 -0.408468L7.42217 -1.05604C6.79452 -0.537983 6.13699 -0.498132 5.90785 -0.498132C5.11083 -0.498132 4.47323 -1.20548 4.44334 -2.18182ZM4.44334 -2.18182M4.49315 -2.72976C4.65255 -3.48692 5.18057 -3.98506 5.74844 -3.98506C6.2665 -3.98506 6.82441 -3.64633 6.95392 -2.72976ZM6.95392 -2.72976M8.09963 -0M11.2379 -4.27397C10.7198 -4.51308 10.3113 -4.59278 9.80324 -4.59278C9.55417 -4.59278 8.14944 -4.59278 8.14944 -3.28767C8.14944 -2.7995 8.43836 -2.4807 8.68742 -2.29141C8.99626 -2.07223 9.21544 -2.03238 9.76339 -1.92279C10.122 -1.85305 10.6999 -1.7335 10.6999 -1.20548C10.6999 -0.518057 9.91283 -0.518057 9.76339 -0.518057C8.95641 -0.518057 8.39851 -0.886675 8.21918 -1.00623L8.09963 -0.328767C8.41843 -0.169365 8.96638 0.109589 9.77335 0.109589C9.95268 0.109589 10.5006 0.109589 10.929 -0.209215C11.2379 -0.448319 11.4072 -0.846824 11.4072 -1.27522C11.4072 -1.82316 11.0386 -2.16189 11.0187 -2.19178C10.6301 -2.54047 10.3611 -2.60025 9.86301 -2.68991C9.31507 -2.7995 8.85679 -2.89913 8.85679 -3.3873C8.85679 -4.00498 9.5741 -4.00498 9.70361 -4.00498C10.0224 -4.00498 10.5504 -3.96513 11.1183 -3.6264ZM11.1183 -3.6264M11.9851 -0M15.7609 -2.18182C15.7609 -2.52055 15.7509 -3.26775 15.3624 -3.8655C14.9539 -4.48319 14.3462 -4.59278 13.9875 -4.59278C12.8817 -4.59278 11.9851 -3.53674 11.9851 -2.25156C11.9851 -0.936488 12.9415 0.109589 14.137 0.109589C14.7646 0.109589 15.3325 -0.129514 15.721 -0.408468L15.6613 -1.05604C15.0336 -0.537983 14.3761 -0.498132 14.1469 -0.498132C13.3499 -0.498132 12.7123 -1.20548 12.6824 -2.18182ZM12.6824 -2.18182M12.7323 -2.72976C12.8917 -3.48692 13.4197 -3.98506 13.9875 -3.98506C14.5056 -3.98506 15.0635 -3.64633 15.193 -2.72976ZM15.193 -2.72976M16.8767 -0M17.6239 -2.132C17.6239 -3.12827 18.3412 -3.84558 19.3176 -3.8655L19.3176 -4.533C18.4309 -4.52304 17.8829 -4.03487 17.5741 -3.57659L17.5741 -4.48319L16.8767 -4.48319L16.8767 -0L17.6239 -0ZM17.6239 -0M19.5965 -0M23.9004 -4.42341L23.1532 -4.42341L22.3661 -2.35118C22.1569 -1.80324 21.8481 -0.996264 21.7684 -0.52802L21.7584 -0.52802C21.6986 -0.886675 21.4396 -1.5741 21.34 -1.84309L20.3736 -4.42341L19.5965 -4.42341L21.3101 -0L22.1868 -0ZM22.1868 -0M24.3985 -0M28.1743 -2.18182C28.1743 -2.52055 28.1644 -3.26775 27.7758 -3.8655C27.3674 -4.48319 26.7597 -4.59278 26.401 -4.59278C25.2951 -4.59278 24.3985 -3.53674 24.3985 -2.25156C24.3985 -0.936488 25.3549 0.109589 26.5504 0.109589C27.1781 0.109589 27.746 -0.129514 28.1345 -0.408468L28.0747 -1.05604C27.4471 -0.537983 26.7895 -0.498132 26.5604 -0.498132C25.7634 -0.498132 25.1258 -1.20548 25.0959 -2.18182ZM25.0959 -2.18182M25.1457 -2.72976C25.3051 -3.48692 25.8331 -3.98506 26.401 -3.98506C26.9191 -3.98506 27.477 -3.64633 27.6065 -2.72976ZM27.6065 -2.72976M28.8319 -0M32.797 -6.91407L32.0498 -6.91407L32.0498 -3.98506C31.5218 -4.42341 30.9639 -4.533 30.5953 -4.533C29.609 -4.533 28.8319 -3.49689 28.8319 -2.21171C28.8319 -0.9066 29.599 0.109589 30.5455 0.109589C30.8742 0.109589 31.462 0.0199253 32.0199 -0.518057L32.0199 -0L32.797 -0ZM32.797 -0M32.0199 -1.38481C32.0199 -1.24533 32.01 -1.066 31.6912 -0.777086C31.462 -0.577833 31.213 -0.498132 30.9539 -0.498132C30.3362 -0.498132 29.609 -0.966376 29.609 -2.20174C29.609 -3.51681 30.4658 -3.92528 31.0535 -3.92528C31.5019 -3.92528 31.8007 -3.69614 32.0199 -3.37733ZM32.0199 -3.37733" fill="black"/>
 </g>
 <g transform="matrix(1.000000,0.000000,0.000000,1.000000,124.724409,-73.700787)">
  <path d="M-7.39631 -0M-7.09743 -3.31756C-7.04961 -3.24583 -7.01972 -3.24583 -7.00776 -3.24583C-6.96592 -3.24583 -6.95397 -3.26974 -6.92408 -3.31158C-6.61922 -3.74795 -6.19481 -3.74795 -6.1171 -3.74795C-5.73454 -3.74795 -5.68074 -3.55068 -5.68074 -3.25778C-5.68074 -3.1741 -5.68074 -2.88717 -5.86605 -2.66002C-6.00951 -2.49265 -6.15895 -2.4807 -6.33827 -2.46874C-6.40403 -2.46276 -6.5176 -2.45679 -6.53553 -2.44483C-6.57738 -2.4269 -6.57738 -2.39103 -6.57738 -2.29539L-6.57738 -2.1878C-6.57738 -2.03238 -6.5714 -2.0264 -6.41598 -2.0264L-6.15297 -2.0264C-5.60901 -2.0264 -5.54326 -1.68568 -5.54326 -1.2254C-5.54326 -0.824907 -5.5851 -0.430386 -6.12906 -0.430386C-6.32034 -0.430386 -6.76268 -0.472229 -7.16318 -0.848817C-7.21698 -0.902615 -7.22296 -0.908593 -7.24687 -0.908593C-7.30664 -0.908593 -7.3186 -0.854795 -7.32458 -0.842839C-7.32458 -0.836862 -7.39631 -0.460274 -7.39631 -0.430386C-7.39631 -0.352677 -6.88223 0.131507 -6.09917 0.131507C-5.07103 0.131507 -4.66455 -0.418431 -4.66455 -1.21345C-4.66455 -1.75143 -4.95147 -2.11606 -5.48946 -2.25355C-5.00527 -2.51656 -4.84388 -2.90511 -4.84388 -3.24583C-4.84388 -4.20224 -5.69867 -4.27995 -6.08722 -4.27995C-6.90614 -4.27995 -7.30664 -3.69415 -7.30664 -3.64633C-7.30664 -3.61046 -7.27078 -3.56264 -7.2648 -3.55666ZM-7.2648 -3.55666M-3.83964 -0M-3.55272 -4.14844C-3.76791 -4.14844 -3.83964 -4.08269 -3.83964 -3.86152L-3.83964 -0.286924C-3.83964 -0.071731 -3.77389 -0 -3.55272 -0L-1.91486 -0C-1.47252 -0 -0.372645 -0.0777086 -0.372645 -1.15965C-0.372645 -2.00249 -1.20353 -2.134 -1.4247 -2.16986C-0.874762 -2.29539 -0.55795 -2.60623 -0.55795 -3.07248C-0.55795 -4.14844 -1.83118 -4.14844 -2.08223 -4.14844ZM-2.08223 -4.14844M-2.9968 -2.3731L-2.9968 -3.63437L-2.29743 -3.63437C-2.0643 -3.63437 -1.3709 -3.61644 -1.3709 -3.05455C-1.3709 -2.3731 -2.15397 -2.3731 -2.3034 -2.3731ZM-2.3034 -2.3731M-2.9968 -0.514072L-2.9968 -1.94271L-2.24363 -1.94271C-2.03441 -1.94271 -1.20353 -1.94271 -1.20353 -1.17161C-1.20353 -0.555915 -1.84313 -0.514072 -2.13006 -0.514072ZM-2.13006 -0.514072" fill="black"/>
 </g>
 <g transform="matrix(1.000000,0.000000,0.000000,1.000000,127.559055,-73.700787)">
  <path d="M0.418431 -0M4.55293 -3.24782C4.55293 -4.03487 4.51308 -4.96139 4.09465 -5.76837C3.68618 -6.51557 2.99875 -6.75467 2.49066 -6.75467C1.90286 -6.75467 1.20548 -6.48568 0.797011 -5.599C0.468244 -4.87173 0.418431 -4.04483 0.418431 -3.24782C0.418431 -2.46077 0.458281 -1.7335 0.757161 -1.00623C1.15567 -0.0498132 1.91283 0.219178 2.4807 0.219178C3.20797 0.219178 3.83562 -0.18929 4.15442 -0.876712C4.4533 -1.52428 4.55293 -2.18182 4.55293 -3.24782ZM4.55293 -3.24782M2.49066 -0.388543C1.9726 -0.388543 1.56413 -0.767123 1.36488 -1.48443C1.20548 -2.0523 1.19552 -2.59029 1.19552 -3.36737C1.19552 -3.99502 1.19552 -4.59278 1.36488 -5.14072C1.42466 -5.33001 1.67372 -6.14695 2.4807 -6.14695C3.25778 -6.14695 3.51681 -5.38979 3.58655 -5.21046C3.77584 -4.65255 3.77584 -3.98506 3.77584 -3.36737C3.77584 -2.70984 3.77584 -2.08219 3.59651 -1.45455C3.33748 -0.547945 2.80946 -0.388543 2.49066 -0.388543ZM2.49066 -0.388543" fill="black"/>
 </g>
 <path d="M26.3465 -54.6929L51.6555 -54.6929L51.6555 -65.6114L26.3465 -65.6114Z" stroke="#000" fill="#9ff"/>
 <g transform="matrix(1.000000,0.000000,0.000000,1.000000,28.346457,-56.692913)">
  <path d="M0.956413 -0M0.956413 -6.91407L0.956413 -0L3.57659 -0C5.27024 -0 6.62516 -1.51432 6.62516 -3.39726C6.62516 -5.33001 5.2802 -6.91407 3.56663 -6.91407ZM3.56663 -6.91407M1.8132 -0.557908L1.8132 -6.35616L3.33748 -6.35616C4.73225 -6.35616 5.76837 -5.15068 5.76837 -3.39726C5.76837 -1.70361 4.73225 -0.557908 3.33748 -0.557908ZM3.33748 -0.557908M7.55168 -0M11.0286 -6.21669L11.9153 -6.21669C12.0349 -6.21669 12.1544 -6.20672 12.274 -6.20672L13.609 -6.20672L13.609 -6.8543L7.55168 -6.8543L7.55168 -6.20672L8.88667 -6.20672C9.00623 -6.20672 9.12578 -6.21669 9.24533 -6.21669L10.142 -6.21669L10.142 -0L11.0286 -0ZM11.0286 -0M14.5255 -0M20.7323 -3.43711C20.7323 -5.52927 19.2877 -7.13325 17.6339 -7.13325C15.9402 -7.13325 14.5255 -5.50934 14.5255 -3.43711C14.5255 -1.32503 16 0.219178 17.6239 0.219178C19.2877 0.219178 20.7323 -1.34496 20.7323 -3.43711ZM20.7323 -3.43711M17.6339 -0.428394C16.4583 -0.428394 15.4122 -1.67372 15.4122 -3.58655C15.4122 -5.40971 16.5081 -6.49564 17.6239 -6.49564C18.7796 -6.49564 19.8456 -5.36986 19.8456 -3.58655C19.8456 -1.64384 18.7696 -0.428394 17.6339 -0.428394ZM17.6339 -0.428394" fill="black"/>
 </g>
 <g stroke-width="0.400879">
  <path d="M142.116 -48.5757C252.607 -47.2735 407.38 -18.3602 413.247 -121.592" stroke="#7f33cc"/>
  <g stroke-linecap="butt" stroke-dasharray="none">
   <path d="M411.572 -120.886C412.19 -122.132 412.792 -123.412 413.378 -124.724C413.892 -123.382 414.371 -122.051 414.815 -120.733L413.247 -121.592Z" fill="#7f33cc"/>
  </g>
 </g>
 <g stroke-width="1.133858">
  <path d="M407.189 -123.724L419.65 -123.724L419.65 -131.813L407.189 -131.813Z" stroke="#7f33cc" fill="#9ff"/>
 </g>
 <g transform="matrix(1.000000,0.000000,0.000000,1.000000,408.188976,-124.724409)">
  <path d="M0.498132 -0M4.72229 -3.03861C4.72229 -4.89166 3.7061 -6.19676 2.61021 -6.19676C1.4944 -6.19676 0.498132 -4.86177 0.498132 -3.04857C0.498132 -1.19552 1.51432 0.109589 2.61021 0.109589C3.72603 0.109589 4.72229 -1.2254 4.72229 -3.03861ZM4.72229 -3.03861M2.61021 -0.498132C1.83313 -0.498132 1.18555 -1.67372 1.18555 -3.14819C1.18555 -4.60274 1.87298 -5.58904 2.61021 -5.58904C3.33748 -5.58904 4.03487 -4.6127 4.03487 -3.14819C4.03487 -1.67372 3.3873 -0.498132 2.61021 -0.498132ZM2.61021 -0.498132M5.66874 -0M8.9863 -5.47945C7.26276 -3.64633 6.92403 -1.45455 6.92403 -0.358655C6.92403 -0.219178 6.92403 0.109589 7.27273 0.109589C7.44209 0.109589 7.61146 -0 7.61146 -0.288917C7.66127 -3.11831 9.18555 -4.85181 9.79328 -5.4396C9.99253 -5.61893 10.0125 -5.63885 10.0125 -5.77833C10.0125 -6.08717 9.77335 -6.08717 9.61395 -6.08717L6.32628 -6.08717C6.2665 -6.24658 6.08717 -6.24658 6.00747 -6.24658C5.66874 -6.24658 5.66874 -6.0274 5.66874 -5.83811L5.66874 -5.41968C5.66874 -5.23039 5.66874 -5.01121 6.00747 -5.01121C6.35616 -5.01121 6.35616 -5.2005 6.35616 -5.47945ZM6.35616 -5.47945" fill="black"/>
 </g>
 <g transform="matrix(1.000000,0.000000,0.000000,1.000000,28.346457,-45.354331)">
  <path d="M0.816936 -0M1.59402 -0.458281C1.90286 -0.169365 2.34122 0.109589 2.93898 0.109589C3.90535 0.109589 4.78207 -0.86675 4.78207 -2.22167C4.78207 -3.41719 4.15442 -4.533 3.19801 -4.533C2.60025 -4.533 2.02242 -4.32379 1.56413 -3.93524L1.56413 -4.42341L0.816936 -4.42341L0.816936 1.93275L1.59402 1.93275ZM1.59402 1.93275M1.59402 -3.31756C1.83313 -3.66625 2.22167 -3.89539 2.65006 -3.89539C3.40722 -3.89539 4.00498 -3.13823 4.00498 -2.22167C4.00498 -1.19552 3.29763 -0.498132 2.55044 -0.498132C2.16189 -0.498132 1.8929 -0.697385 1.69365 -0.966376C1.59402 -1.11582 1.59402 -1.13574 1.59402 -1.31507ZM1.59402 -1.31507M5.57908 -0M9.11582 -2.8792C9.11582 -3.89539 8.38854 -4.59278 7.47198 -4.59278C6.82441 -4.59278 6.37609 -4.43337 5.90785 -4.16438L5.96762 -3.50685C6.48568 -3.87547 6.98381 -4.00498 7.47198 -4.00498C7.94022 -4.00498 8.33873 -3.60648 8.33873 -2.86924L8.33873 -2.44085C6.84433 -2.42092 5.57908 -2.00249 5.57908 -1.12578C5.57908 -0.697385 5.84807 0.109589 6.71482 0.109589C6.8543 0.109589 7.79078 0.0896638 8.36862 -0.358655L8.36862 -0L9.11582 -0ZM9.11582 -0M8.33873 -1.31507C8.33873 -1.12578 8.33873 -0.876712 8 -0.687422C7.71108 -0.508095 7.3325 -0.498132 7.22291 -0.498132C6.74471 -0.498132 6.29639 -0.727273 6.29639 -1.1457C6.29639 -1.84309 7.91034 -1.91283 8.33873 -1.93275ZM8.33873 -1.93275M10.2814 -0M14.0075 -4.16438C13.4197 -4.50311 13.0809 -4.59278 12.4732 -4.59278C11.0884 -4.59278 10.2814 -3.3873 10.2814 -2.21171C10.2814 -0.976339 11.188 0.109589 12.4334 0.109589C12.9714 0.109589 13.5193 -0.0298879 14.0573 -0.398506L13.9975 -1.066C13.4894 -0.667497 12.9514 -0.52802 12.4433 -0.52802C11.6164 -0.52802 11.0585 -1.24533 11.0585 -2.22167C11.0585 -2.99875 11.4271 -3.95517 12.4832 -3.95517C13.0012 -3.95517 13.34 -3.87547 13.8879 -3.51681ZM13.8879 -3.51681M15.1831 -0M17.1457 -2.70984L18.8194 -4.42341L17.9228 -4.42341L15.9004 -2.35118L15.9004 -6.91407L15.1831 -6.91407L15.1831 -0L15.8705 -0L15.8705 -1.40473L16.6675 -2.23163L18.2217 -0L19.0386 -0ZM19.0386 -0" fill="black"/>
  <path d="M19.3054 -0M23.0813 -2.18182C23.0813 -2.52055 23.0713 -3.26775 22.6828 -3.8655C22.2743 -4.48319 21.6666 -4.59278 21.3079 -4.59278C20.2021 -4.59278 19.3054 -3.53674 19.3054 -2.25156C19.3054 -0.936488 20.2618 0.109589 21.4574 0.109589C22.085 0.109589 22.6529 -0.129514 23.0414 -0.408468L22.9816 -1.05604C22.354 -0.537983 21.6965 -0.498132 21.4673 -0.498132C20.6703 -0.498132 20.0327 -1.20548 20.0028 -2.18182ZM20.0028 -2.18182M20.0526 -2.72976C20.212 -3.48692 20.74 -3.98506 21.3079 -3.98506C21.826 -3.98506 22.3839 -3.64633 22.5134 -2.72976ZM22.5134 -2.72976M23.5694 -0M25.1236 -3.84558L26.5283 -3.84558L26.5283 -4.42341L25.1236 -4.42341L25.1236 -5.68867L24.4362 -5.68867L24.4362 -4.42341L23.5694 -4.42341L23.5694 -3.84558L24.4063 -3.84558L24.4063 -1.18555C24.4063 -0.587796 24.5458 0.109589 25.2332 0.109589C25.9306 0.109589 26.4387 -0.139477 26.6877 -0.268991L26.5283 -0.856787C26.2693 -0.647572 25.9505 -0.52802 25.6317 -0.52802C25.2631 -0.52802 25.1236 -0.826899 25.1236 -1.35492ZM25.1236 -1.35492" fill="black"/>
  <path d="M27.5799 -0L30.5687 -0L30.5687 -0.3985L27.5799 -0.3985Z" fill="black"/>
  <path d="M31.306 -0M32.1927 -6.7746L31.306 -6.7746L31.306 -5.88792L32.1927 -5.88792ZM32.1927 -5.88792M32.1229 -4.42341L31.3757 -4.42341L31.3757 -0L32.1229 -0ZM32.1229 -0M33.2985 -0M37.2636 -6.91407L36.5164 -6.91407L36.5164 -3.98506C35.9884 -4.42341 35.4305 -4.533 35.0619 -4.533C34.0756 -4.533 33.2985 -3.49689 33.2985 -2.21171C33.2985 -0.9066 34.0656 0.109589 35.0121 0.109589C35.3409 0.109589 35.9286 0.0199253 36.4866 -0.518057L36.4866 -0L37.2636 -0ZM37.2636 -0M36.4866 -1.38481C36.4866 -1.24533 36.4766 -1.066 36.1578 -0.777086C35.9286 -0.577833 35.6796 -0.498132 35.4206 -0.498132C34.8029 -0.498132 34.0756 -0.966376 34.0756 -2.20174C34.0756 -3.51681 34.9324 -3.92528 35.5202 -3.92528C35.9685 -3.92528 36.2674 -3.69614 36.4866 -3.37733ZM36.4866 -3.37733" fill="black"/>
 </g>
 <g transform="matrix(1.000000,0.000000,0.000000,1.000000,124.724409,-45.354331)">
  <path d="M-7.21698 -0M-5.54923 -3.99303C-5.54923 -4.1066 -5.54923 -4.27995 -5.81225 -4.27995C-5.9318 -4.27995 -5.95571 -4.268 -6.02744 -4.19626C-6.13504 -4.10062 -6.36218 -3.87945 -6.95397 -3.8675C-7.06156 -3.8675 -7.21698 -3.82565 -7.21698 -3.6523C-7.21698 -3.43711 -7.00776 -3.43711 -6.93006 -3.43711C-6.75073 -3.43711 -6.54151 -3.467 -6.36816 -3.51482L-6.36816 -0.430386L-6.83441 -0.430386C-6.91212 -0.430386 -7.12134 -0.430386 -7.12134 -0.215193C-7.12134 -0 -6.91212 -0 -6.83441 -0L-5.1308 -0C-5.06505 -0 -4.84388 -0 -4.84388 -0.215193C-4.84388 -0.430386 -5.06505 -0.430386 -5.1308 -0.430386L-5.54923 -0.430386ZM-5.54923 -0.430386M-3.83964 -0M-3.55272 -4.14844C-3.76791 -4.14844 -3.83964 -4.08269 -3.83964 -3.86152L-3.83964 -0.286924C-3.83964 -0.071731 -3.77389 -0 -3.55272 -0L-1.91486 -0C-1.47252 -0 -0.372645 -0.0777086 -0.372645 -1.15965C-0.372645 -2.00249 -1.20353 -2.134 -1.4247 -2.16986C-0.874762 -2.29539 -0.55795 -2.60623 -0.55795 -3.07248C-0.55795 -4.14844 -1.83118 -4.14844 -2.08223 -4.14844ZM-2.08223 -4.14844M-2.9968 -2.3731L-2.9968 -3.63437L-2.29743 -3.63437C-2.0643 -3.63437 -1.3709 -3.61644 -1.3709 -3.05455C-1.3709 -2.3731 -2.15397 -2.3731 -2.3034 -2.3731ZM-2.3034 -2.3731M-2.9968 -0.514072L-2.9968 -1.94271L-2.24363 -1.94271C-2.03441 -1.94271 -1.20353 -1.94271 -1.20353 -1.17161C-1.20353 -0.555915 -1.84313 -0.514072 -2.13006 -0.514072ZM-2.13006 -0.514072" fill="black"/>
 </g>
 <g transform="matrix(1.000000,0.000000,0.000000,1.000000,127.559055,-45.354331)">
  <path d="M0.418431 -0M4.55293 -3.24782C4.55293 -4.03487 4.51308 -4.96139 4.09465 -5.76837C3.68618 -6.51557 2.99875 -6.75467 2.49066 -6.75467C1.90286 -6.75467 1.20548 -6.48568 0.797011 -5.599C0.468244 -4.87173 0.418431 -4.04483 0.418431 -3.24782C0.418431 -2.46077 0.458281 -1.7335 0.757161 -1.00623C1.15567 -0.0498132 1.91283 0.219178 2.4807 0.219178C3.20797 0.219178 3.83562 -0.18929 4.15442 -0.876712C4.4533 -1.52428 4.55293 -2.18182 4.55293 -3.24782ZM4.55293 -3.24782M2.49066 -0.388543C1.9726 -0.388543 1.56413 -0.767123 1.36488 -1.48443C1.20548 -2.0523 1.19552 -2.59029 1.19552 -3.36737C1.19552 -3.99502 1.19552 -4.59278 1.36488 -5.14072C1.42466 -5.33001 1.67372 -6.14695 2.4807 -6.14695C3.25778 -6.14695 3.51681 -5.38979 3.58655 -5.21046C3.77584 -4.65255 3.77584 -3.98506 3.77584 -3.36737C3.77584 -2.70984 3.77584 -2.08219 3.59651 -1.45455C3.33748 -0.547945 2.80946 -0.388543 2.49066 -0.388543ZM2.49066 -0.388543M4.98132 -0M7.57161 -2.28144L9.39477 -4.42341L8.57783 -4.42341L7.24284 -2.77958L5.868 -4.42341L5.0411 -4.42341L6.91407 -2.28144L4.98132 -0L5.79826 -0L7.24284 -1.87298L8.73724 -0L9.56413 -0ZM9.56413 -0M9.99253 -0M11.8854 -5.82814C12.005 -5.82814 12.1245 -5.83811 12.2441 -5.83811L13.4496 -5.83811C11.9751 -4.2142 11.0884 -2.22167 11.0884 0.109589L11.9253 0.109589C11.9253 -2.8792 13.3499 -5.01121 14.127 -5.88792L14.127 -6.53549L9.99253 -6.53549L9.99253 -5.82814ZM9.99253 -5.82814" fill="black"/>
 </g>
 <g stroke-width="0.400879">
  <path d="M142.503 -37.2454C259.937 -36.1516 423.044 -11.1954 428.85 -121.591" stroke="#cc3"/>
  <g stroke-linecap="butt" stroke-dasharray="none">
   <path d="M427.179 -120.88C427.792 -122.131 428.389 -123.413 428.972 -124.724C429.488 -123.385 429.971 -122.056 430.423 -120.738L428.85 -121.591Z" fill="#cc3"/>
  </g>
 </g>
 <g stroke-width="1.133858">
  <path d="M422.78 -123.724L435.24 -123.724L435.24 -131.813L422.78 -131.813Z" stroke="#cc3" fill="#9ff"/>
 </g>
 <g transform="matrix(1.000000,0.000000,0.000000,1.000000,423.779528,-124.724409)">
  <path d="M0.547945 -0M3.64633 -0.318804C3.8655 -0.00996264 4.34371 -0 4.72229 -0C5.00125 -0 5.22042 -0 5.22042 -0.308842C5.22042 -0.607721 4.97136 -0.607721 4.82192 -0.607721C4.40349 -0.607721 4.30386 -0.657534 4.22416 -0.687422L4.22416 -2.83935C4.22416 -3.5467 3.68618 -4.38356 2.25156 -4.38356C1.82316 -4.38356 0.806974 -4.38356 0.806974 -3.65629C0.806974 -3.35741 1.01619 -3.19801 1.25529 -3.19801C1.40473 -3.19801 1.68369 -3.28767 1.69365 -3.65629C1.69365 -3.73599 1.70361 -3.74595 1.90286 -3.76588C2.04234 -3.77584 2.17186 -3.77584 2.26152 -3.77584C3.01868 -3.77584 3.53674 -3.467 3.53674 -2.75965C1.77335 -2.72976 0.547945 -2.23163 0.547945 -1.27522C0.547945 -0.587796 1.17559 0.0597758 2.19178 0.0597758C2.5604 0.0597758 3.17808 -0.00996264 3.64633 -0.318804ZM3.64633 -0.318804M3.53674 -2.17186L3.53674 -1.33499C3.53674 -1.10585 3.53674 -0.896638 3.14819 -0.71731C2.78954 -0.547945 2.34122 -0.547945 2.26152 -0.547945C1.64384 -0.547945 1.23537 -0.886675 1.23537 -1.27522C1.23537 -1.76339 2.09215 -2.132 3.53674 -2.17186ZM3.53674 -2.17186M5.74844 -0M5.89788 -0.577833C5.80822 -0.498132 5.74844 -0.448319 5.74844 -0.308842C5.74844 -0 5.99751 -0 6.15691 -0L9.53425 -0C9.86301 -0 9.93275 -0.0896638 9.93275 -0.408468L9.93275 -0.667497C9.93275 -0.856787 9.93275 -1.07597 9.59402 -1.07597C9.24533 -1.07597 9.24533 -0.886675 9.24533 -0.607721L6.87422 -0.607721C7.46202 -1.11582 8.41843 -1.86301 8.84682 -2.26152C9.47447 -2.81943 9.93275 -3.45704 9.93275 -4.25405C9.93275 -5.44956 8.92653 -6.19676 7.71108 -6.19676C6.53549 -6.19676 5.74844 -5.37983 5.74844 -4.533C5.74844 -4.16438 6.0274 -4.05479 6.19676 -4.05479C6.40598 -4.05479 6.63512 -4.22416 6.63512 -4.50311C6.63512 -4.62267 6.58531 -4.75218 6.49564 -4.82192C6.64508 -5.2802 7.11333 -5.58904 7.66127 -5.58904C8.47821 -5.58904 9.24533 -5.13076 9.24533 -4.25405C9.24533 -3.55666 8.75716 -2.97883 8.09963 -2.43088ZM8.09963 -2.43088" fill="black"/>
 </g>
 <g transform="matrix(1.000000,0.000000,0.000000,1.000000,28.346457,-34.015748)">
  <path d="M0.816936 -0M1.56413 -2.132C1.56413 -3.12827 2.28144 -3.84558 3.25778 -3.8655L3.25778 -4.533C2.37111 -4.52304 1.82316 -4.03487 1.51432 -3.57659L1.51432 -4.48319L0.816936 -4.48319L0.816936 -0L1.56413 -0ZM1.56413 -0M3.74595 -0M7.52179 -2.18182C7.52179 -2.52055 7.51183 -3.26775 7.12329 -3.8655C6.71482 -4.48319 6.1071 -4.59278 5.74844 -4.59278C4.64259 -4.59278 3.74595 -3.53674 3.74595 -2.25156C3.74595 -0.936488 4.70237 0.109589 5.89788 0.109589C6.52553 0.109589 7.0934 -0.129514 7.48194 -0.408468L7.42217 -1.05604C6.79452 -0.537983 6.13699 -0.498132 5.90785 -0.498132C5.11083 -0.498132 4.47323 -1.20548 4.44334 -2.18182ZM4.44334 -2.18182M4.49315 -2.72976C4.65255 -3.48692 5.18057 -3.98506 5.74844 -3.98506C6.2665 -3.98506 6.82441 -3.64633 6.95392 -2.72976ZM6.95392 -2.72976M8.00996 -0M9.56413 -3.84558L10.9689 -3.84558L10.9689 -4.42341L9.56413 -4.42341L9.56413 -5.68867L8.87671 -5.68867L8.87671 -4.42341L8.00996 -4.42341L8.00996 -3.84558L8.84682 -3.84558L8.84682 -1.18555C8.84682 -0.587796 8.9863 0.109589 9.67372 0.109589C10.3711 0.109589 10.8792 -0.139477 11.1283 -0.268991L10.9689 -0.856787C10.7098 -0.647572 10.391 -0.52802 10.0722 -0.52802C9.70361 -0.52802 9.56413 -0.826899 9.56413 -1.35492ZM9.56413 -1.35492M12.2242 -0M15.7509 -4.42341L14.9738 -4.42341L14.9738 -1.53425C14.9738 -0.787049 14.4159 -0.438356 13.7783 -0.438356C13.071 -0.438356 13.0012 -0.697385 13.0012 -1.12578L13.0012 -4.42341L12.2242 -4.42341L12.2242 -1.08593C12.2242 -0.368618 12.4533 0.109589 13.2802 0.109589C13.8082 0.109589 14.5156 -0.0498132 15.0037 -0.478207L15.0037 -0L15.7509 -0ZM15.7509 -0M17.3748 -0M18.122 -2.132C18.122 -3.12827 18.8394 -3.84558 19.8157 -3.8655L19.8157 -4.533C18.929 -4.52304 18.3811 -4.03487 18.0722 -3.57659L18.0722 -4.48319L17.3748 -4.48319L17.3748 -0L18.122 -0ZM18.122 -0M20.7621 -0M24.2889 -2.96887C24.2889 -3.6264 24.1395 -4.533 22.924 -4.533C22.0274 -4.533 21.5392 -3.85554 21.4795 -3.77584L21.4795 -4.48319L20.7621 -4.48319L20.7621 -0L21.5392 -0L21.5392 -2.44085C21.5392 -3.09838 21.7883 -3.92528 22.5455 -3.92528C23.5019 -3.92528 23.5118 -3.21793 23.5118 -2.89913L23.5118 -0L24.2889 -0ZM24.2889 -0" fill="black"/>
  <path d="M25.7258 -0L28.7146 -0L28.7146 -0.3985L25.7258 -0.3985Z" fill="black"/>
  <path d="M29.0733 -0M32.7993 -4.16438C32.2115 -4.50311 31.8728 -4.59278 31.265 -4.59278C29.8802 -4.59278 29.0733 -3.3873 29.0733 -2.21171C29.0733 -0.976339 29.9799 0.109589 31.2252 0.109589C31.7632 0.109589 32.3111 -0.0298879 32.8491 -0.398506L32.7893 -1.066C32.2812 -0.667497 31.7432 -0.52802 31.2351 -0.52802C30.4082 -0.52802 29.8503 -1.24533 29.8503 -2.22167C29.8503 -2.99875 30.219 -3.95517 31.275 -3.95517C31.7931 -3.95517 32.1318 -3.87547 32.6797 -3.51681ZM32.6797 -3.51681M33.4369 -0M37.8105 -2.19178C37.8105 -3.52677 36.8142 -4.59278 35.6287 -4.59278C34.4033 -4.59278 33.4369 -3.49689 33.4369 -2.19178C33.4369 -0.876712 34.4531 0.109589 35.6187 0.109589C36.8142 0.109589 37.8105 -0.896638 37.8105 -2.19178ZM37.8105 -2.19178M35.6187 -0.52802C34.9313 -0.52802 34.214 -1.08593 34.214 -2.29141C34.214 -3.49689 34.9711 -3.98506 35.6187 -3.98506C36.3161 -3.98506 37.0334 -3.467 37.0334 -2.29141C37.0334 -1.11582 36.3559 -0.52802 35.6187 -0.52802ZM35.6187 -0.52802" fill="black"/>
  <path d="M38.7592 -0M42.7243 -6.91407L41.9771 -6.91407L41.9771 -3.98506C41.4491 -4.42341 40.8912 -4.533 40.5226 -4.533C39.5363 -4.533 38.7592 -3.49689 38.7592 -2.21171C38.7592 -0.9066 39.5263 0.109589 40.4728 0.109589C40.8015 0.109589 41.3893 0.0199253 41.9472 -0.518057L41.9472 -0L42.7243 -0ZM42.7243 -0M41.9472 -1.38481C41.9472 -1.24533 41.9373 -1.066 41.6185 -0.777086C41.3893 -0.577833 41.1402 -0.498132 40.8812 -0.498132C40.2635 -0.498132 39.5363 -0.966376 39.5363 -2.20174C39.5363 -3.51681 40.3931 -3.92528 40.9808 -3.92528C41.4292 -3.92528 41.728 -3.69614 41.9472 -3.37733ZM41.9472 -3.37733M43.8899 -0M47.6658 -2.18182C47.6658 -2.52055 47.6558 -3.26775 47.2673 -3.8655C46.8588 -4.48319 46.2511 -4.59278 45.8924 -4.59278C44.7866 -4.59278 43.8899 -3.53674 43.8899 -2.25156C43.8899 -0.936488 44.8464 0.109589 46.0419 0.109589C46.6695 0.109589 47.2374 -0.129514 47.6259 -0.408468L47.5662 -1.05604C46.9385 -0.537983 46.281 -0.498132 46.0518 -0.498132C45.2548 -0.498132 44.6172 -1.20548 44.5873 -2.18182ZM44.5873 -2.18182M44.6371 -2.72976C44.7965 -3.48692 45.3246 -3.98506 45.8924 -3.98506C46.4105 -3.98506 46.9684 -3.64633 47.0979 -2.72976ZM47.0979 -2.72976" fill="black"/>
 </g>
 <g transform="matrix(1.000000,0.000000,0.000000,1.000000,124.724409,-34.015748)">
  <path d="M-7.21698 -0M-5.54923 -3.99303C-5.54923 -4.1066 -5.54923 -4.27995 -5.81225 -4.27995C-5.9318 -4.27995 -5.95571 -4.268 -6.02744 -4.19626C-6.13504 -4.10062 -6.36218 -3.87945 -6.95397 -3.8675C-7.06156 -3.8675 -7.21698 -3.82565 -7.21698 -3.6523C-7.21698 -3.43711 -7.00776 -3.43711 -6.93006 -3.43711C-6.75073 -3.43711 -6.54151 -3.467 -6.36816 -3.51482L-6.36816 -0.430386L-6.83441 -0.430386C-6.91212 -0.430386 -7.12134 -0.430386 -7.12134 -0.215193C-7.12134 -0 -6.91212 -0 -6.83441 -0L-5.1308 -0C-5.06505 -0 -4.84388 -0 -4.84388 -0.215193C-4.84388 -0.430386 -5.06505 -0.430386 -5.1308 -0.430386L-5.54923 -0.430386ZM-5.54923 -0.430386M-3.83964 -0M-3.55272 -4.14844C-3.76791 -4.14844 -3.83964 -4.08269 -3.83964 -3.86152L-3.83964 -0.286924C-3.83964 -0.071731 -3.77389 -0 -3.55272 -0L-1.91486 -0C-1.47252 -0 -0.372645 -0.0777086 -0.372645 -1.15965C-0.372645 -2.00249 -1.20353 -2.134 -1.4247 -2.16986C-0.874762 -2.29539 -0.55795 -2.60623 -0.55795 -3.07248C-0.55795 -4.14844 -1.83118 -4.14844 -2.08223 -4.14844ZM-2.08223 -4.14844M-2.9968 -2.3731L-2.9968 -3.63437L-2.29743 -3.63437C-2.0643 -3.63437 -1.3709 -3.61644 -1.3709 -3.05455C-1.3709 -2.3731 -2.15397 -2.3731 -2.3034 -2.3731ZM-2.3034 -2.3731M-2.9968 -0.514072L-2.9968 -1.94271L-2.24363 -1.94271C-2.03441 -1.94271 -1.20353 -1.94271 -1.20353 -1.17161C-1.20353 -0.555915 -1.84313 -0.514072 -2.13006 -0.514072ZM-2.13006 -0.514072" fill="black"/>
 </g>
 <g transform="matrix(1.000000,0.000000,0.000000,1.000000,127.559055,-34.015748)">
  <path d="M0.886675 -0M2.97883 -6.75467L2.77958 -6.75467C2.19178 -6.14695 1.36488 -6.11706 0.886675 -6.09714L0.886675 -5.5193C1.21544 -5.52927 1.69365 -5.54919 2.19178 -5.75841L2.19178 -0.577833L0.946451 -0.577833L0.946451 -0L4.22416 -0L4.22416 -0.577833L2.97883 -0.577833ZM2.97883 -0.577833M5.39975 -0M9.11582 -6.55542C8.60772 -6.75467 8.19925 -6.75467 8.05978 -6.75467C6.65504 -6.75467 5.39975 -5.34994 5.39975 -3.20797C5.39975 -0.388543 6.63512 0.219178 7.48194 0.219178C8.0797 0.219178 8.50809 -0.00996264 8.89664 -0.458281C9.34496 -0.966376 9.53425 -1.42466 9.53425 -2.21171C9.53425 -3.48692 8.87671 -4.60274 7.9203 -4.60274C7.60149 -4.60274 6.84433 -4.52304 6.23661 -3.77584C6.36613 -5.37983 7.15318 -6.17684 8.06974 -6.17684C8.44832 -6.17684 8.76712 -6.1071 9.11582 -5.96762ZM9.11582 -5.96762M6.24658 -2.18182C6.24658 -2.3213 6.24658 -2.34122 6.25654 -2.46077C6.25654 -3.19801 6.70486 -3.99502 7.53176 -3.99502C8.00996 -3.99502 8.28892 -3.74595 8.48817 -3.37733C8.69738 -3.00872 8.71731 -2.66002 8.71731 -2.21171C8.71731 -1.87298 8.71731 -1.41469 8.47821 -1.00623C8.30884 -0.727273 8.04981 -0.388543 7.48194 -0.388543C6.4259 -0.388543 6.27646 -1.85305 6.24658 -2.18182ZM6.24658 -2.18182M10.3811 -0M11.6961 -1.87298L10.4608 -0.637609L10.4608 -0L14.4359 -0L14.4359 -0.707347L12.6227 -0.707347C12.5031 -0.707347 12.3836 -0.697385 12.264 -0.697385L11.1781 -0.697385C11.4969 -0.976339 12.254 -1.72354 12.5629 -2.01245C12.7522 -2.19178 13.2603 -2.61021 13.4496 -2.78954C13.8979 -3.23786 14.4359 -3.76588 14.4359 -4.6127C14.4359 -5.75841 13.6289 -6.75467 12.3138 -6.75467C11.1781 -6.75467 10.6202 -5.97758 10.3811 -5.1208C10.5006 -4.95143 10.5504 -4.89166 10.5704 -4.86177C10.5903 -4.84184 10.6899 -4.71233 10.7895 -4.57285C10.9888 -5.33998 11.2677 -6.11706 12.1743 -6.11706C13.1108 -6.11706 13.6189 -5.36986 13.6189 -4.59278C13.6189 -3.74595 13.0511 -3.17808 12.4633 -2.58032ZM12.4633 -2.58032" fill="black"/>
 </g>
 <g stroke-width="0.400879">
  <path d="M132.54 -25.9394C259.256 -25.6065 438.607 -0.497941 444.454 -121.591" stroke="#cc337f"/>
  <g stroke-linecap="butt" stroke-dasharray="none">
   <path d="M442.786 -120.873C443.393 -122.13 443.986 -123.413 444.565 -124.724C445.083 -123.388 445.571 -122.061 446.03 -120.743L444.454 -121.591Z" fill="#cc337f"/>
  </g>
 </g>
 <g stroke-width="1.133858">
  <path d="M438.37 -123.724L450.831 -123.724L450.831 -131.813L438.37 -131.813Z" stroke="#cc337f" fill="#9ff"/>
 </g>
 <g transform="matrix(1.000000,0.000000,0.000000,1.000000,439.370079,-124.724409)">
  <path d="M0.498132 -0M4.72229 -3.03861C4.72229 -4.89166 3.7061 -6.19676 2.61021 -6.19676C1.4944 -6.19676 0.498132 -4.86177 0.498132 -3.04857C0.498132 -1.19552 1.51432 0.109589 2.61021 0.109589C3.72603 0.109589 4.72229 -1.2254 4.72229 -3.03861ZM4.72229 -3.03861M2.61021 -0.498132C1.83313 -0.498132 1.18555 -1.67372 1.18555 -3.14819C1.18555 -4.60274 1.87298 -5.58904 2.61021 -5.58904C3.33748 -5.58904 4.03487 -4.6127 4.03487 -3.14819C4.03487 -1.67372 3.3873 -0.498132 2.61021 -0.498132ZM2.61021 -0.498132M5.72852 -0M9.95268 -3.03861C9.95268 -4.89166 8.93649 -6.19676 7.8406 -6.19676C6.72478 -6.19676 5.72852 -4.86177 5.72852 -3.04857C5.72852 -1.19552 6.74471 0.109589 7.8406 0.109589C8.95641 0.109589 9.95268 -1.2254 9.95268 -3.03861ZM9.95268 -3.03861M7.8406 -0.498132C7.06351 -0.498132 6.41594 -1.67372 6.41594 -3.14819C6.41594 -4.60274 7.10336 -5.58904 7.8406 -5.58904C8.56787 -5.58904 9.26526 -4.6127 9.26526 -3.14819C9.26526 -1.67372 8.61768 -0.498132 7.8406 -0.498132ZM7.8406 -0.498132" fill="black"/>
 </g>
 <g transform="matrix(1.000000,0.000000,0.000000,1.000000,28.346457,-22.677165)">
  <path d="M0.358655 -0M4.08468 -4.16438C3.49689 -4.50311 3.15816 -4.59278 2.55044 -4.59278C1.16563 -4.59278 0.358655 -3.3873 0.358655 -2.21171C0.358655 -0.976339 1.26526 0.109589 2.51059 0.109589C3.04857 0.109589 3.59651 -0.0298879 4.1345 -0.398506L4.07472 -1.066C3.56663 -0.667497 3.02864 -0.52802 2.52055 -0.52802C1.69365 -0.52802 1.13574 -1.24533 1.13574 -2.22167C1.13574 -2.99875 1.50436 -3.95517 2.5604 -3.95517C3.07846 -3.95517 3.41719 -3.87547 3.96513 -3.51681ZM3.96513 -3.51681M4.6127 -0M6.16687 -3.84558L7.57161 -3.84558L7.57161 -4.42341L6.16687 -4.42341L6.16687 -5.68867L5.47945 -5.68867L5.47945 -4.42341L4.6127 -4.42341L4.6127 -3.84558L5.44956 -3.84558L5.44956 -1.18555C5.44956 -0.587796 5.58904 0.109589 6.27646 0.109589C6.97385 0.109589 7.48194 -0.139477 7.73101 -0.268991L7.57161 -0.856787C7.31258 -0.647572 6.99377 -0.52802 6.67497 -0.52802C6.30635 -0.52802 6.16687 -0.826899 6.16687 -1.35492ZM6.16687 -1.35492M8.83686 -0M9.58406 -2.132C9.58406 -3.12827 10.3014 -3.84558 11.2777 -3.8655L11.2777 -4.533C10.391 -4.52304 9.84309 -4.03487 9.53425 -3.57659L9.53425 -4.48319L8.83686 -4.48319L8.83686 -0L9.58406 -0ZM9.58406 -0" fill="black"/>
 </g>
 <g transform="matrix(1.000000,0.000000,0.000000,1.000000,124.724409,-22.677165)">
  <path d="M-7.21698 -0M-5.54923 -3.99303C-5.54923 -4.1066 -5.54923 -4.27995 -5.81225 -4.27995C-5.9318 -4.27995 -5.95571 -4.268 -6.02744 -4.19626C-6.13504 -4.10062 -6.36218 -3.87945 -6.95397 -3.8675C-7.06156 -3.8675 -7.21698 -3.82565 -7.21698 -3.6523C-7.21698 -3.43711 -7.00776 -3.43711 -6.93006 -3.43711C-6.75073 -3.43711 -6.54151 -3.467 -6.36816 -3.51482L-6.36816 -0.430386L-6.83441 -0.430386C-6.91212 -0.430386 -7.12134 -0.430386 -7.12134 -0.215193C-7.12134 -0 -6.91212 -0 -6.83441 -0L-5.1308 -0C-5.06505 -0 -4.84388 -0 -4.84388 -0.215193C-4.84388 -0.430386 -5.06505 -0.430386 -5.1308 -0.430386L-5.54923 -0.430386ZM-5.54923 -0.430386M-3.83964 -0M-3.55272 -4.14844C-3.76791 -4.14844 -3.83964 -4.08269 -3.83964 -3.86152L-3.83964 -0.286924C-3.83964 -0.071731 -3.77389 -0 -3.55272 -0L-1.91486 -0C-1.47252 -0 -0.372645 -0.0777086 -0.372645 -1.15965C-0.372645 -2.00249 -1.20353 -2.134 -1.4247 -2.16986C-0.874762 -2.29539 -0.55795 -2.60623 -0.55795 -3.07248C-0.55795 -4.14844 -1.83118 -4.14844 -2.08223 -4.14844ZM-2.08223 -4.14844M-2.9968 -2.3731L-2.9968 -3.63437L-2.29743 -3.63437C-2.0643 -3.63437 -1.3709 -3.61644 -1.3709 -3.05455C-1.3709 -2.3731 -2.15397 -2.3731 -2.3034 -2.3731ZM-2.3034 -2.3731M-2.9968 -0.514072L-2.9968 -1.94271L-2.24363 -1.94271C-2.03441 -1.94271 -1.20353 -1.94271 -1.20353 -1.17161C-1.20353 -0.555915 -1.84313 -0.514072 -2.13006 -0.514072ZM-2.13006 -0.514072" fill="black"/>
 </g>
 <g transform="matrix(1.000000,0.000000,0.000000,1.000000,127.559055,-22.677165)">
  <path d="M0.418431 -0M4.55293 -3.24782C4.55293 -4.03487 4.51308 -4.96139 4.09465 -5.76837C3.68618 -6.51557 2.99875 -6.75467 2.49066 -6.75467C1.90286 -6.75467 1.20548 -6.48568 0.797011 -5.599C0.468244 -4.87173 0.418431 -4.04483 0.418431 -3.24782C0.418431 -2.46077 0.458281 -1.7335 0.757161 -1.00623C1.15567 -0.0498132 1.91283 0.219178 2.4807 0.219178C3.20797 0.219178 3.83562 -0.18929 4.15442 -0.876712C4.4533 -1.52428 4.55293 -2.18182 4.55293 -3.24782ZM4.55293 -3.24782M2.49066 -0.388543C1.9726 -0.388543 1.56413 -0.767123 1.36488 -1.48443C1.20548 -2.0523 1.19552 -2.59029 1.19552 -3.36737C1.19552 -3.99502 1.19552 -4.59278 1.36488 -5.14072C1.42466 -5.33001 1.67372 -6.14695 2.4807 -6.14695C3.25778 -6.14695 3.51681 -5.38979 3.58655 -5.21046C3.77584 -4.65255 3.77584 -3.98506 3.77584 -3.36737C3.77584 -2.70984 3.77584 -2.08219 3.59651 -1.45455C3.33748 -0.547945 2.80946 -0.388543 2.49066 -0.388543ZM2.49066 -0.388543" fill="black"/>
 </g>
 <path d="M26.3465 -3.66929L97.791 -3.66929L97.791 -14.5878L26.3465 -14.5878Z" stroke="#000" fill="#cc9"/>
 <g transform="matrix(1.000000,0.000000,0.000000,1.000000,28.346457,-5.669291)">
  <path d="M0.956413 -0M0.956413 -6.91407L0.956413 -0L3.57659 -0C5.27024 -0 6.62516 -1.51432 6.62516 -3.39726C6.62516 -5.33001 5.2802 -6.91407 3.56663 -6.91407ZM3.56663 -6.91407M1.8132 -0.557908L1.8132 -6.35616L3.33748 -6.35616C4.73225 -6.35616 5.76837 -5.15068 5.76837 -3.39726C5.76837 -1.70361 4.73225 -0.557908 3.33748 -0.557908ZM3.33748 -0.557908M8.12951 -0M12.3039 -3.27771L12.3039 -3.88543L9.01619 -3.88543L9.01619 -6.24658L10.391 -6.24658C10.5106 -6.24658 10.6301 -6.23661 10.7497 -6.23661L12.5729 -6.23661L12.5729 -6.88418L8.12951 -6.88418L8.12951 -0L12.7123 -0L12.7123 -0.707347L11.457 -0.707347C11.3375 -0.707347 11.2179 -0.697385 11.0984 -0.697385L9.01619 -0.697385L9.01619 -3.27771ZM9.01619 -3.27771M14.0772 -0M17.9726 -3.13823L17.9726 -3.74595L14.9639 -3.74595L14.9639 -6.24658L16.269 -6.24658C16.3885 -6.24658 16.5081 -6.23661 16.6276 -6.23661L18.3811 -6.23661L18.3811 -6.88418L14.0772 -6.88418L14.0772 -0L14.9639 -0L14.9639 -3.13823ZM14.9639 -3.13823" fill="black"/>
  <path d="M18.2671 -0M21.7441 -6.91407L20.8674 -6.91407L18.2671 -0L19.0044 -0L19.7715 -2.03238L22.6706 -2.03238L23.4278 -0L24.3443 -0ZM24.3443 -0M22.4514 -2.59029L19.9807 -2.59029L20.6283 -4.39352C20.8375 -4.98132 21.1463 -5.82814 21.2161 -6.19676L21.226 -6.19676C21.2459 -6.05729 21.3157 -5.80822 21.5448 -5.15068ZM21.5448 -5.15068" fill="black"/>
  <path d="M25.2897 -0M30.261 -6.91407L29.484 -6.91407L29.484 -2.31133C29.484 -0.996264 28.6471 -0.33873 27.8102 -0.33873C26.9933 -0.33873 26.1764 -0.966376 26.1764 -2.31133L26.1764 -6.91407L25.2897 -6.91407L25.2897 -2.3213C25.2897 -0.86675 26.4553 0.219178 27.8003 0.219178C29.1353 0.219178 30.261 -0.876712 30.261 -2.3213ZM30.261 -2.3213M32.134 -0M33.0207 -6.91407L32.134 -6.91407L32.134 -0L36.1689 -0L36.1689 -0.657534C35.2822 -0.647572 34.3955 -0.637609 33.5089 -0.637609L33.0207 -0.637609ZM33.0207 -0.637609" fill="black"/>
  <path d="M36.1274 -0M39.6044 -6.21669L40.4911 -6.21669C40.6106 -6.21669 40.7302 -6.20672 40.8497 -6.20672L42.1847 -6.20672L42.1847 -6.8543L36.1274 -6.8543L36.1274 -6.20672L37.4624 -6.20672C37.582 -6.20672 37.7015 -6.21669 37.8211 -6.21669L38.7177 -6.21669L38.7177 -0L39.6044 -0ZM39.6044 -0" fill="black"/>
  <path d="M43.1467 -0L46.1355 -0L46.1355 -0.3985L43.1467 -0.3985Z" fill="black"/>
  <path d="M47.0919 -0M47.0919 -6.91407L47.0919 -0L49.7121 -0C51.4057 -0 52.7606 -1.51432 52.7606 -3.39726C52.7606 -5.33001 51.4157 -6.91407 49.7021 -6.91407ZM49.7021 -6.91407M47.9487 -0.557908L47.9487 -6.35616L49.473 -6.35616C50.8677 -6.35616 51.9038 -5.15068 51.9038 -3.39726C51.9038 -1.70361 50.8677 -0.557908 49.473 -0.557908ZM49.473 -0.557908M53.6872 -0M57.1641 -6.21669L58.0508 -6.21669C58.1703 -6.21669 58.2899 -6.20672 58.4095 -6.20672L59.7444 -6.20672L59.7444 -6.8543L53.6872 -6.8543L53.6872 -6.20672L55.0222 -6.20672C55.1417 -6.20672 55.2613 -6.21669 55.3808 -6.21669L56.2774 -6.21669L56.2774 -0L57.1641 -0ZM57.1641 -0M60.661 -0M66.8677 -3.43711C66.8677 -5.52927 65.4232 -7.13325 63.7694 -7.13325C62.0757 -7.13325 60.661 -5.50934 60.661 -3.43711C60.661 -1.32503 62.1355 0.219178 63.7594 0.219178C65.4232 0.219178 66.8677 -1.34496 66.8677 -3.43711ZM66.8677 -3.43711M63.7694 -0.428394C62.5938 -0.428394 61.5477 -1.67372 61.5477 -3.58655C61.5477 -5.40971 62.6436 -6.49564 63.7594 -6.49564C64.9151 -6.49564 65.9811 -5.36986 65.9811 -3.58655C65.9811 -1.64384 64.9051 -0.428394 63.7694 -0.428394ZM63.7694 -0.428394" fill="black"/>
 </g>
 <g stroke-width="0.400879">
  <path d="M222.924 3.06975C346.181 1.9895 486.508 -9.19959 491.439 -121.59" stroke="#cc7fcc"/>
  <g stroke-linecap="butt" stroke-dasharray="none">
   <path d="M489.775 -120.867C490.377 -122.13 490.966 -123.416 491.541 -124.724C492.06 -123.392 492.553 -122.067 493.02 -120.748L491.439 -121.59Z" fill="#cc7fcc"/>
  </g>
 </g>
 <g stroke-width="1.133858">
  <path d="M453.961 -123.724L529.185 -123.724L529.185 -131.813L453.961 -131.813Z" stroke="#cc7fcc" fill="#cc9"/>
 </g>
 <g transform="matrix(1.000000,0.000000,0.000000,1.000000,454.960630,-124.724409)">
  <path d="M0.418431 -0M2.52055 -3.68618L3.73599 -3.68618C3.88543 -3.68618 4.1345 -3.68618 4.1345 -3.98506C4.1345 -4.2939 3.89539 -4.2939 3.73599 -4.2939L2.52055 -4.2939L2.52055 -4.76214C2.52055 -5.53923 3.18804 -5.53923 3.48692 -5.53923C3.48692 -5.49938 3.57659 -5.11083 3.92528 -5.11083C4.12453 -5.11083 4.35367 -5.27024 4.35367 -5.54919C4.35367 -6.14695 3.55666 -6.14695 3.39726 -6.14695C2.60025 -6.14695 1.83313 -5.68867 1.83313 -4.82192L1.83313 -4.2939L0.836862 -4.2939C0.67746 -4.2939 0.428394 -4.2939 0.428394 -3.98506C0.428394 -3.68618 0.67746 -3.68618 0.826899 -3.68618L1.83313 -3.68618L1.83313 -0.607721L0.826899 -0.607721C0.67746 -0.607721 0.418431 -0.607721 0.418431 -0.308842C0.418431 -0 0.67746 -0 0.826899 -0L3.52677 -0C3.67621 -0 3.93524 -0 3.93524 -0.298879C3.93524 -0.607721 3.67621 -0.607721 3.52677 -0.607721L2.52055 -0.607721ZM2.52055 -0.607721M5.64882 -0M7.75093 -3.68618L8.96638 -3.68618C9.11582 -3.68618 9.36488 -3.68618 9.36488 -3.98506C9.36488 -4.2939 9.12578 -4.2939 8.96638 -4.2939L7.75093 -4.2939L7.75093 -4.76214C7.75093 -5.53923 8.41843 -5.53923 8.71731 -5.53923C8.71731 -5.49938 8.80697 -5.11083 9.15567 -5.11083C9.35492 -5.11083 9.58406 -5.27024 9.58406 -5.54919C9.58406 -6.14695 8.78705 -6.14695 8.62765 -6.14695C7.83064 -6.14695 7.06351 -5.68867 7.06351 -4.82192L7.06351 -4.2939L6.06725 -4.2939C5.90785 -4.2939 5.65878 -4.2939 5.65878 -3.98506C5.65878 -3.68618 5.90785 -3.68618 6.05729 -3.68618L7.06351 -3.68618L7.06351 -0.607721L6.05729 -0.607721C5.90785 -0.607721 5.64882 -0.607721 5.64882 -0.308842C5.64882 -0 5.90785 -0 6.05729 -0L8.75716 -0C8.9066 -0 9.16563 -0 9.16563 -0.298879C9.16563 -0.607721 8.9066 -0.607721 8.75716 -0.607721L7.75093 -0.607721ZM7.75093 -0.607721" fill="black"/>
  <path d="M16.1892 -0M20.4133 -3.03861C20.4133 -4.89166 19.3971 -6.19676 18.3012 -6.19676C17.1854 -6.19676 16.1892 -4.86177 16.1892 -3.04857C16.1892 -1.19552 17.2053 0.109589 18.3012 0.109589C19.417 0.109589 20.4133 -1.2254 20.4133 -3.03861ZM20.4133 -3.03861M18.3012 -0.498132C17.5241 -0.498132 16.8766 -1.67372 16.8766 -3.14819C16.8766 -4.60274 17.564 -5.58904 18.3012 -5.58904C19.0285 -5.58904 19.7259 -4.6127 19.7259 -3.14819C19.7259 -1.67372 19.0783 -0.498132 18.3012 -0.498132ZM18.3012 -0.498132M21.4195 -0M25.6437 -3.03861C25.6437 -4.89166 24.6275 -6.19676 23.5316 -6.19676C22.4158 -6.19676 21.4195 -4.86177 21.4195 -3.04857C21.4195 -1.19552 22.4357 0.109589 23.5316 0.109589C24.6474 0.109589 25.6437 -1.2254 25.6437 -3.03861ZM25.6437 -3.03861M23.5316 -0.498132C22.7545 -0.498132 22.107 -1.67372 22.107 -3.14819C22.107 -4.60274 22.7944 -5.58904 23.5316 -5.58904C24.2589 -5.58904 24.9563 -4.6127 24.9563 -3.14819C24.9563 -1.67372 24.3087 -0.498132 23.5316 -0.498132ZM23.5316 -0.498132" fill="black"/>
  <path d="M31.8802 -0M36.1043 -3.03861C36.1043 -4.89166 35.0881 -6.19676 33.9923 -6.19676C32.8764 -6.19676 31.8802 -4.86177 31.8802 -3.04857C31.8802 -1.19552 32.8964 0.109589 33.9923 0.109589C35.1081 0.109589 36.1043 -1.2254 36.1043 -3.03861ZM36.1043 -3.03861M33.9923 -0.498132C33.2152 -0.498132 32.5676 -1.67372 32.5676 -3.14819C32.5676 -4.60274 33.255 -5.58904 33.9923 -5.58904C34.7195 -5.58904 35.4169 -4.6127 35.4169 -3.14819C35.4169 -1.67372 34.7693 -0.498132 33.9923 -0.498132ZM33.9923 -0.498132M37.1106 -0M41.3347 -3.03861C41.3347 -4.89166 40.3185 -6.19676 39.2226 -6.19676C38.1068 -6.19676 37.1106 -4.86177 37.1106 -3.04857C37.1106 -1.19552 38.1268 0.109589 39.2226 0.109589C40.3385 0.109589 41.3347 -1.2254 41.3347 -3.03861ZM41.3347 -3.03861M39.2226 -0.498132C38.4456 -0.498132 37.798 -1.67372 37.798 -3.14819C37.798 -4.60274 38.4854 -5.58904 39.2226 -5.58904C39.9499 -5.58904 40.6473 -4.6127 40.6473 -3.14819C40.6473 -1.67372 39.9997 -0.498132 39.2226 -0.498132ZM39.2226 -0.498132" fill="black"/>
  <path d="M47.4915 -0M49.5936 -3.68618L50.8091 -3.68618C50.9585 -3.68618 51.2076 -3.68618 51.2076 -3.98506C51.2076 -4.2939 50.9685 -4.2939 50.8091 -4.2939L49.5936 -4.2939L49.5936 -4.76214C49.5936 -5.53923 50.2611 -5.53923 50.56 -5.53923C50.56 -5.49938 50.6497 -5.11083 50.9983 -5.11083C51.1976 -5.11083 51.4267 -5.27024 51.4267 -5.54919C51.4267 -6.14695 50.6297 -6.14695 50.4703 -6.14695C49.6733 -6.14695 48.9062 -5.68867 48.9062 -4.82192L48.9062 -4.2939L47.9099 -4.2939C47.7505 -4.2939 47.5015 -4.2939 47.5015 -3.98506C47.5015 -3.68618 47.7505 -3.68618 47.9 -3.68618L48.9062 -3.68618L48.9062 -0.607721L47.9 -0.607721C47.7505 -0.607721 47.4915 -0.607721 47.4915 -0.308842C47.4915 -0 47.7505 -0 47.9 -0L50.5998 -0C50.7493 -0 51.0083 -0 51.0083 -0.298879C51.0083 -0.607721 50.7493 -0.607721 50.5998 -0.607721L49.5936 -0.607721ZM49.5936 -0.607721M52.7219 -0M54.824 -3.68618L56.0394 -3.68618C56.1889 -3.68618 56.4379 -3.68618 56.4379 -3.98506C56.4379 -4.2939 56.1988 -4.2939 56.0394 -4.2939L54.824 -4.2939L54.824 -4.76214C54.824 -5.53923 55.4915 -5.53923 55.7904 -5.53923C55.7904 -5.49938 55.88 -5.11083 56.2287 -5.11083C56.428 -5.11083 56.6571 -5.27024 56.6571 -5.54919C56.6571 -6.14695 55.8601 -6.14695 55.7007 -6.14695C54.9037 -6.14695 54.1366 -5.68867 54.1366 -4.82192L54.1366 -4.2939L53.1403 -4.2939C52.9809 -4.2939 52.7318 -4.2939 52.7318 -3.98506C52.7318 -3.68618 52.9809 -3.68618 53.1303 -3.68618L54.1366 -3.68618L54.1366 -0.607721L53.1303 -0.607721C52.9809 -0.607721 52.7219 -0.607721 52.7219 -0.308842C52.7219 -0 52.9809 -0 53.1303 -0L55.8302 -0C55.9797 -0 56.2387 -0 56.2387 -0.298879C56.2387 -0.607721 55.9797 -0.607721 55.8302 -0.607721L54.824 -0.607721ZM54.824 -0.607721" fill="black"/>
  <path d="M63.1825 -0M65.2846 -3.68618L66.5001 -3.68618C66.6495 -3.68618 66.8986 -3.68618 66.8986 -3.98506C66.8986 -4.2939 66.6595 -4.2939 66.5001 -4.2939L65.2846 -4.2939L65.2846 -4.76214C65.2846 -5.53923 65.9521 -5.53923 66.251 -5.53923C66.251 -5.49938 66.3407 -5.11083 66.6894 -5.11083C66.8886 -5.11083 67.1178 -5.27024 67.1178 -5.54919C67.1178 -6.14695 66.3207 -6.14695 66.1613 -6.14695C65.3643 -6.14695 64.5972 -5.68867 64.5972 -4.82192L64.5972 -4.2939L63.6009 -4.2939C63.4415 -4.2939 63.1925 -4.2939 63.1925 -3.98506C63.1925 -3.68618 63.4415 -3.68618 63.591 -3.68618L64.5972 -3.68618L64.5972 -0.607721L63.591 -0.607721C63.4415 -0.607721 63.1825 -0.607721 63.1825 -0.308842C63.1825 -0 63.4415 -0 63.591 -0L66.2909 -0C66.4403 -0 66.6993 -0 66.6993 -0.298879C66.6993 -0.607721 66.4403 -0.607721 66.2909 -0.607721L65.2846 -0.607721ZM65.2846 -0.607721M68.4129 -0M70.515 -3.68618L71.7305 -3.68618C71.8799 -3.68618 72.129 -3.68618 72.129 -3.98506C72.129 -4.2939 71.8899 -4.2939 71.7305 -4.2939L70.515 -4.2939L70.515 -4.76214C70.515 -5.53923 71.1825 -5.53923 71.4814 -5.53923C71.4814 -5.49938 71.5711 -5.11083 71.9198 -5.11083C72.119 -5.11083 72.3481 -5.27024 72.3481 -5.54919C72.3481 -6.14695 71.5511 -6.14695 71.3917 -6.14695C70.5947 -6.14695 69.8276 -5.68867 69.8276 -4.82192L69.8276 -4.2939L68.8313 -4.2939C68.6719 -4.2939 68.4229 -4.2939 68.4229 -3.98506C68.4229 -3.68618 68.6719 -3.68618 68.8214 -3.68618L69.8276 -3.68618L69.8276 -0.607721L68.8214 -0.607721C68.6719 -0.607721 68.4129 -0.607721 68.4129 -0.308842C68.4129 -0 68.6719 -0 68.8214 -0L71.5212 -0C71.6707 -0 71.9297 -0 71.9297 -0.298879C71.9297 -0.607721 71.6707 -0.607721 71.5212 -0.607721L70.515 -0.607721ZM70.515 -0.607721" fill="black"/>
 </g>
 <g transform="matrix(1.000000,0.000000,0.000000,1.000000,28.346457,5.669291)">
  <path d="M0.806974 -0M1.55417 -6.91407L0.806974 -6.91407L0.806974 -0L1.55417 -0ZM1.55417 -0M2.66999 -0M7.04359 -2.19178C7.04359 -3.52677 6.04732 -4.59278 4.86177 -4.59278C3.63636 -4.59278 2.66999 -3.49689 2.66999 -2.19178C2.66999 -0.876712 3.68618 0.109589 4.85181 0.109589C6.04732 0.109589 7.04359 -0.896638 7.04359 -2.19178ZM7.04359 -2.19178M4.85181 -0.52802C4.16438 -0.52802 3.44707 -1.08593 3.44707 -2.29141C3.44707 -3.49689 4.20423 -3.98506 4.85181 -3.98506C5.54919 -3.98506 6.2665 -3.467 6.2665 -2.29141C6.2665 -1.11582 5.58904 -0.52802 4.85181 -0.52802ZM4.85181 -0.52802M7.79078 -0M11.3275 -2.8792C11.3275 -3.89539 10.6002 -4.59278 9.68369 -4.59278C9.03611 -4.59278 8.5878 -4.43337 8.11955 -4.16438L8.17933 -3.50685C8.69738 -3.87547 9.19552 -4.00498 9.68369 -4.00498C10.1519 -4.00498 10.5504 -3.60648 10.5504 -2.86924L10.5504 -2.44085C9.05604 -2.42092 7.79078 -2.00249 7.79078 -1.12578C7.79078 -0.697385 8.05978 0.109589 8.92653 0.109589C9.066 0.109589 10.0025 0.0896638 10.5803 -0.358655L10.5803 -0L11.3275 -0ZM11.3275 -0M10.5504 -1.31507C10.5504 -1.12578 10.5504 -0.876712 10.2117 -0.687422C9.92279 -0.508095 9.54421 -0.498132 9.43462 -0.498132C8.95641 -0.498132 8.50809 -0.727273 8.50809 -1.1457C8.50809 -1.84309 10.122 -1.91283 10.5504 -1.93275ZM10.5504 -1.93275M12.4932 -0M16.4583 -6.91407L15.7111 -6.91407L15.7111 -3.98506C15.1831 -4.42341 14.6252 -4.533 14.2565 -4.533C13.2702 -4.533 12.4932 -3.49689 12.4932 -2.21171C12.4932 -0.9066 13.2603 0.109589 14.2067 0.109589C14.5355 0.109589 15.1233 0.0199253 15.6812 -0.518057L15.6812 -0L16.4583 -0ZM16.4583 -0M15.6812 -1.38481C15.6812 -1.24533 15.6712 -1.066 15.3524 -0.777086C15.1233 -0.577833 14.8742 -0.498132 14.6152 -0.498132C13.9975 -0.498132 13.2702 -0.966376 13.2702 -2.20174C13.2702 -3.51681 14.127 -3.92528 14.7148 -3.92528C15.1631 -3.92528 15.462 -3.69614 15.6812 -3.37733ZM15.6812 -3.37733" fill="black"/>
 </g>
 <g transform="matrix(1.000000,0.000000,0.000000,1.000000,124.724409,5.669291)">
  <path d="M-7.4501 -0M-6.39805 -3.55068L-5.22644 -3.55068C-4.9455 -3.55068 -4.93952 -3.68817 -4.93952 -3.84956C-4.93952 -4.00498 -4.93952 -4.14844 -5.22644 -4.14844L-6.88821 -4.14844C-7.07949 -4.14844 -7.17514 -4.11258 -7.17514 -3.87347L-7.17514 -2.04433C-7.17514 -1.77534 -7.03765 -1.76936 -6.87626 -1.76936C-6.72084 -1.76936 -6.66704 -1.76936 -6.58336 -1.91283C-6.43989 -2.14595 -6.23666 -2.2655 -5.9856 -2.2655C-5.59705 -2.2655 -5.59705 -1.81121 -5.59705 -1.34496C-5.59705 -0.884682 -5.59705 -0.430386 -6.2247 -0.430386C-6.41001 -0.430386 -6.81648 -0.484184 -7.05558 -0.956413C-7.07352 -0.992279 -7.09145 -1.02814 -7.13329 -1.02814C-7.18111 -1.02814 -7.19307 -0.998257 -7.22893 -0.950436C-7.31262 -0.812951 -7.4501 -0.603736 -7.4501 -0.561893C-7.4501 -0.514072 -7.06156 0.131507 -6.20677 0.131507C-5.24438 0.131507 -4.71835 -0.352677 -4.71835 -1.32105C-4.71835 -2.11009 -5.04712 -2.69589 -5.96169 -2.69589C-6.11113 -2.69589 -6.25459 -2.67198 -6.39805 -2.61818ZM-6.39805 -2.61818M-3.83964 -0M-3.55272 -4.14844C-3.76791 -4.14844 -3.83964 -4.08269 -3.83964 -3.86152L-3.83964 -0.286924C-3.83964 -0.071731 -3.77389 -0 -3.55272 -0L-1.91486 -0C-1.47252 -0 -0.372645 -0.0777086 -0.372645 -1.15965C-0.372645 -2.00249 -1.20353 -2.134 -1.4247 -2.16986C-0.874762 -2.29539 -0.55795 -2.60623 -0.55795 -3.07248C-0.55795 -4.14844 -1.83118 -4.14844 -2.08223 -4.14844ZM-2.08223 -4.14844M-2.9968 -2.3731L-2.9968 -3.63437L-2.29743 -3.63437C-2.0643 -3.63437 -1.3709 -3.61644 -1.3709 -3.05455C-1.3709 -2.3731 -2.15397 -2.3731 -2.3034 -2.3731ZM-2.3034 -2.3731M-2.9968 -0.514072L-2.9968 -1.94271L-2.24363 -1.94271C-2.03441 -1.94271 -1.20353 -1.94271 -1.20353 -1.17161C-1.20353 -0.555915 -1.84313 -0.514072 -2.13006 -0.514072ZM-2.13006 -0.514072" fill="black"/>
 </g>
 <g transform="matrix(1.000000,0.000000,0.000000,1.000000,127.559055,5.669291)">
  <path d="M0.966376 -0M1.79328 -6.09714L1.79328 -6.91407L0.966376 -6.91407L0.966376 -6.08717L1.21544 -6.08717L0.966376 -4.84184L1.37484 -4.84184ZM1.37484 -4.84184" fill="black"/>
  <path d="M3.34524 -0M4.04263 -6.64508C3.99281 -6.74471 3.91311 -6.91407 3.69393 -6.91407C3.49468 -6.91407 3.34524 -6.74471 3.34524 -6.56538C3.34524 -6.48568 3.38509 -6.38605 3.41498 -6.32628L6.71261 0.557908C6.76243 0.657534 6.84213 0.826899 7.06131 0.826899C7.26056 0.826899 7.41 0.657534 7.41 0.478207C7.41 0.398506 7.37015 0.298879 7.34026 0.239103ZM7.34026 0.239103M8.57563 -0M9.27301 -6.64508C9.2232 -6.74471 9.1435 -6.91407 8.92432 -6.91407C8.72507 -6.91407 8.57563 -6.74471 8.57563 -6.56538C8.57563 -6.48568 8.61548 -6.38605 8.64537 -6.32628L11.943 0.557908C11.9928 0.657534 12.0725 0.826899 12.2917 0.826899C12.4909 0.826899 12.6404 0.657534 12.6404 0.478207C12.6404 0.398506 12.6005 0.298879 12.5706 0.239103ZM12.5706 0.239103" fill="black"/>
  <path d="M13.2281 -0M15.8184 -2.28144L17.6415 -4.42341L16.8246 -4.42341L15.4896 -2.77958L14.1148 -4.42341L13.2879 -4.42341L15.1608 -2.28144L13.2281 -0L14.045 -0L15.4896 -1.87298L16.984 -0L17.8109 -0ZM17.8109 -0M18.0899 -0M19.5743 -3.84558L20.6702 -3.84558L20.6702 -4.42341L19.5444 -4.42341L19.5444 -5.60897C19.5444 -6.3462 20.2119 -6.41594 20.4709 -6.41594C20.6702 -6.41594 20.9392 -6.39601 21.2779 -6.24658L21.2779 -6.91407C21.1584 -6.94396 20.8495 -7.02366 20.4809 -7.02366C19.5444 -7.02366 18.8271 -6.31631 18.8271 -5.32005L18.8271 -4.42341L18.0899 -4.42341L18.0899 -3.84558L18.8271 -3.84558L18.8271 -0L19.5743 -0ZM19.5743 -0M22.3339 -3.84558L23.4298 -3.84558L23.4298 -4.42341L22.3041 -4.42341L22.3041 -5.60897C22.3041 -6.3462 22.9716 -6.41594 23.2306 -6.41594C23.4298 -6.41594 23.6988 -6.39601 24.0376 -6.24658L24.0376 -6.91407C23.918 -6.94396 23.6092 -7.02366 23.2405 -7.02366C22.3041 -7.02366 21.5867 -6.31631 21.5867 -5.32005L21.5867 -0L22.3339 -0ZM22.3339 -0" fill="black"/>
  <path d="M24.2114 -0M24.9088 -6.64508C24.859 -6.74471 24.7793 -6.91407 24.5601 -6.91407C24.3608 -6.91407 24.2114 -6.74471 24.2114 -6.56538C24.2114 -6.48568 24.2512 -6.38605 24.2811 -6.32628L27.5788 0.557908C27.6286 0.657534 27.7083 0.826899 27.9275 0.826899C28.1267 0.826899 28.2761 0.657534 28.2761 0.478207C28.2761 0.398506 28.2363 0.298879 28.2064 0.239103ZM28.2064 0.239103" fill="black"/>
  <path d="M28.8639 -0M31.4542 -2.28144L33.2773 -4.42341L32.4604 -4.42341L31.1254 -2.77958L29.7506 -4.42341L28.9237 -4.42341L30.7967 -2.28144L28.8639 -0L29.6808 -0L31.1254 -1.87298L32.6198 -0L33.4467 -0ZM33.4467 -0M33.8751 -0M38.0096 -3.24782C38.0096 -4.03487 37.9698 -4.96139 37.5513 -5.76837C37.1429 -6.51557 36.4554 -6.75467 35.9473 -6.75467C35.3595 -6.75467 34.6622 -6.48568 34.2537 -5.599C33.9249 -4.87173 33.8751 -4.04483 33.8751 -3.24782C33.8751 -2.46077 33.915 -1.7335 34.2138 -1.00623C34.6123 -0.0498132 35.3695 0.219178 35.9374 0.219178C36.6646 0.219178 37.2923 -0.18929 37.6111 -0.876712C37.91 -1.52428 38.0096 -2.18182 38.0096 -3.24782ZM38.0096 -3.24782M35.9473 -0.388543C35.4293 -0.388543 35.0208 -0.767123 34.8216 -1.48443C34.6622 -2.0523 34.6522 -2.59029 34.6522 -3.36737C34.6522 -3.99502 34.6522 -4.59278 34.8216 -5.14072C34.8813 -5.33001 35.1304 -6.14695 35.9374 -6.14695C36.7145 -6.14695 36.9735 -5.38979 37.0432 -5.21046C37.2325 -4.65255 37.2325 -3.98506 37.2325 -3.36737C37.2325 -2.70984 37.2325 -2.08219 37.0532 -1.45455C36.7942 -0.547945 36.2661 -0.388543 35.9473 -0.388543ZM35.9473 -0.388543M38.8564 -0M42.9909 -3.24782C42.9909 -4.03487 42.9511 -4.96139 42.5326 -5.76837C42.1242 -6.51557 41.4367 -6.75467 40.9287 -6.75467C40.3409 -6.75467 39.6435 -6.48568 39.235 -5.599C38.9062 -4.87173 38.8564 -4.04483 38.8564 -3.24782C38.8564 -2.46077 38.8963 -1.7335 39.1952 -1.00623C39.5937 -0.0498132 40.3508 0.219178 40.9187 0.219178C41.646 0.219178 42.2736 -0.18929 42.5924 -0.876712C42.8913 -1.52428 42.9909 -2.18182 42.9909 -3.24782ZM42.9909 -3.24782M40.9287 -0.388543C40.4106 -0.388543 40.0021 -0.767123 39.8029 -1.48443C39.6435 -2.0523 39.6335 -2.59029 39.6335 -3.36737C39.6335 -3.99502 39.6335 -4.59278 39.8029 -5.14072C39.8627 -5.33001 40.1117 -6.14695 40.9187 -6.14695C41.6958 -6.14695 41.9548 -5.38979 42.0245 -5.21046C42.2138 -4.65255 42.2138 -3.98506 42.2138 -3.36737C42.2138 -2.70984 42.2138 -2.08219 42.0345 -1.45455C41.7755 -0.547945 41.2475 -0.388543 40.9287 -0.388543ZM40.9287 -0.388543" fill="black"/>
  <path d="M43.9983 -0M44.6957 -6.64508C44.6459 -6.74471 44.5662 -6.91407 44.347 -6.91407C44.1477 -6.91407 43.9983 -6.74471 43.9983 -6.56538C43.9983 -6.48568 44.0382 -6.38605 44.068 -6.32628L47.3657 0.557908C47.4155 0.657534 47.4952 0.826899 47.7144 0.826899C47.9136 0.826899 48.0631 0.657534 48.0631 0.478207C48.0631 0.398506 48.0232 0.298879 47.9933 0.239103ZM47.9933 0.239103" fill="black"/>
  <path d="M48.6508 -0M51.2411 -2.28144L53.0643 -4.42341L52.2473 -4.42341L50.9123 -2.77958L49.5375 -4.42341L48.7106 -4.42341L50.5836 -2.28144L48.6508 -0L49.4677 -0L50.9123 -1.87298L52.4067 -0L53.2336 -0ZM53.2336 -0M53.662 -0M57.7965 -3.24782C57.7965 -4.03487 57.7567 -4.96139 57.3382 -5.76837C56.9298 -6.51557 56.2423 -6.75467 55.7342 -6.75467C55.1465 -6.75467 54.4491 -6.48568 54.0406 -5.599C53.7118 -4.87173 53.662 -4.04483 53.662 -3.24782C53.662 -2.46077 53.7019 -1.7335 54.0007 -1.00623C54.3993 -0.0498132 55.1564 0.219178 55.7243 0.219178C56.4516 0.219178 57.0792 -0.18929 57.398 -0.876712C57.6969 -1.52428 57.7965 -2.18182 57.7965 -3.24782ZM57.7965 -3.24782M55.7342 -0.388543C55.2162 -0.388543 54.8077 -0.767123 54.6085 -1.48443C54.4491 -2.0523 54.4391 -2.59029 54.4391 -3.36737C54.4391 -3.99502 54.4391 -4.59278 54.6085 -5.14072C54.6682 -5.33001 54.9173 -6.14695 55.7243 -6.14695C56.5014 -6.14695 56.7604 -5.38979 56.8301 -5.21046C57.0194 -4.65255 57.0194 -3.98506 57.0194 -3.36737C57.0194 -2.70984 57.0194 -2.08219 56.8401 -1.45455C56.5811 -0.547945 56.0531 -0.388543 55.7342 -0.388543ZM55.7342 -0.388543M58.6433 -0M62.7778 -3.24782C62.7778 -4.03487 62.738 -4.96139 62.3196 -5.76837C61.9111 -6.51557 61.2237 -6.75467 60.7156 -6.75467C60.1278 -6.75467 59.4304 -6.48568 59.0219 -5.599C58.6932 -4.87173 58.6433 -4.04483 58.6433 -3.24782C58.6433 -2.46077 58.6832 -1.7335 58.9821 -1.00623C59.3806 -0.0498132 60.1377 0.219178 60.7056 0.219178C61.4329 0.219178 62.0605 -0.18929 62.3793 -0.876712C62.6782 -1.52428 62.7778 -2.18182 62.7778 -3.24782ZM62.7778 -3.24782M60.7156 -0.388543C60.1975 -0.388543 59.789 -0.767123 59.5898 -1.48443C59.4304 -2.0523 59.4204 -2.59029 59.4204 -3.36737C59.4204 -3.99502 59.4204 -4.59278 59.5898 -5.14072C59.6496 -5.33001 59.8986 -6.14695 60.7056 -6.14695C61.4827 -6.14695 61.7417 -5.38979 61.8115 -5.21046C62.0007 -4.65255 62.0007 -3.98506 62.0007 -3.36737C62.0007 -2.70984 62.0007 -2.08219 61.8214 -1.45455C61.5624 -0.547945 61.0344 -0.388543 60.7156 -0.388543ZM60.7156 -0.388543" fill="black"/>
  <path d="M63.7852 -0M64.4826 -6.64508C64.4328 -6.74471 64.3531 -6.91407 64.1339 -6.91407C63.9347 -6.91407 63.7852 -6.74471 63.7852 -6.56538C63.7852 -6.48568 63.8251 -6.38605 63.855 -6.32628L67.1526 0.557908C67.2024 0.657534 67.2821 0.826899 67.5013 0.826899C67.7005 0.826899 67.85 0.657534 67.85 0.478207C67.85 0.398506 67.8101 0.298879 67.7802 0.239103ZM67.7802 0.239103M69.0156 -0M69.713 -6.64508C69.6632 -6.74471 69.5835 -6.91407 69.3643 -6.91407C69.165 -6.91407 69.0156 -6.74471 69.0156 -6.56538C69.0156 -6.48568 69.0555 -6.38605 69.0853 -6.32628L72.383 0.557908C72.4328 0.657534 72.5125 0.826899 72.7317 0.826899C72.9309 0.826899 73.0804 0.657534 73.0804 0.478207C73.0804 0.398506 73.0405 0.298879 73.0106 0.239103ZM73.0106 0.239103" fill="black"/>
  <path d="M73.6681 -0M76.2584 -2.28144L78.0815 -4.42341L77.2646 -4.42341L75.9296 -2.77958L74.5547 -4.42341L73.7278 -4.42341L75.6008 -2.28144L73.6681 -0L74.485 -0L75.9296 -1.87298L77.424 -0L78.2509 -0ZM78.2509 -0M78.5298 -0M80.0143 -3.84558L81.1102 -3.84558L81.1102 -4.42341L79.9844 -4.42341L79.9844 -5.60897C79.9844 -6.3462 80.6519 -6.41594 80.9109 -6.41594C81.1102 -6.41594 81.3791 -6.39601 81.7179 -6.24658L81.7179 -6.91407C81.5983 -6.94396 81.2895 -7.02366 80.9209 -7.02366C79.9844 -7.02366 79.2671 -6.31631 79.2671 -5.32005L79.2671 -4.42341L78.5298 -4.42341L78.5298 -3.84558L79.2671 -3.84558L79.2671 -0L80.0143 -0ZM80.0143 -0M82.3156 -0M83.9495 2.49066L83.9495 1.88294L83.0329 1.88294L83.0329 -6.86426L83.9495 -6.86426L83.9495 -7.47198L82.3156 -7.47198L82.3156 2.49066ZM82.3156 2.49066M85.1351 -0M85.962 -0.826899L85.1351 -0.826899L85.1351 -0L85.962 -0ZM85.962 -0M87.8947 -0M88.7216 -0.826899L87.8947 -0.826899L87.8947 -0L88.7216 -0ZM88.7216 -0M90.6544 -0M91.4813 -0.826899L90.6544 -0.826899L90.6544 -0L91.4813 -0ZM91.4813 -0M92.6668 -0M94.3007 -7.47198L92.6668 -7.47198L92.6668 -6.86426L93.5834 -6.86426L93.5834 1.88294L92.6668 1.88294L92.6668 2.49066L94.3007 2.49066ZM94.3007 2.49066" fill="black"/>
 </g>
</svg>
