<?xml version="1.0" encoding="utf-8"?>
<svg xmlns="http://www.w3.org/2000/svg" fill="none" version="1.1" viewBox="25.3465 -76.1198 505.14 81.1386" x="25.3465pt" y="-76.1198pt" width="505.14pt" height="81.1386pt" stroke-width="0.566929" stroke-miterlimit="10.000000">
 <path d="M26.3465 -60.3622L50.4102 -60.3622L50.4102 -71.2807L26.3465 -71.2807Z" stroke="#000" fill="#9cc"/>
 <g transform="matrix(1.000000,0.000000,0.000000,1.000000,28.346457,-62.362205)">
  <path d="M0.657534 -0M5.79826 -1.13574C5.21046 -0.747198 4.87173 -0.537983 3.88543 -0.537983C2.45081 -0.537983 1.55417 -2.03238 1.55417 -3.467C1.55417 -4.82192 2.38107 -6.38605 3.90535 -6.38605C4.6127 -6.38605 5.06102 -6.21669 5.60897 -5.868L5.74844 -6.68493C5.32005 -6.89415 4.55293 -7.02366 3.91532 -7.02366C2.07223 -7.02366 0.657534 -5.46949 0.657534 -3.37733C0.657534 -1.80324 1.84309 0.109589 3.91532 0.109589C4.83188 0.109589 5.21046 -0.0498132 5.85803 -0.448319ZM5.85803 -0.448319M6.64508 -0M10.122 -6.91407L9.24533 -6.91407L6.64508 -0L7.38232 -0L8.14944 -2.03238L11.0486 -2.03238L11.8057 -0L12.7223 -0ZM12.7223 -0M10.8294 -2.59029L8.35866 -2.59029L9.00623 -4.39352C9.21544 -4.98132 9.52428 -5.82814 9.59402 -6.19676L9.60399 -6.19676C9.62391 -6.05729 9.69365 -5.80822 9.92279 -5.15068ZM9.92279 -5.15068M13.9577 -0M15.193 -6.91407L13.9577 -6.91407L13.9577 -0L14.7347 -0L14.7347 -6.20672L14.7447 -6.20672C14.934 -5.79826 15.3524 -4.95143 15.4122 -4.84184L17.8531 -0L19.0884 -0L19.0884 -6.91407L18.3113 -6.91407L18.3113 -0.707347L18.3014 -0.707347C18.1121 -1.11582 17.6936 -1.96264 17.6339 -2.07223ZM17.6339 -2.07223" fill="black"/>
 </g>
 <g transform="matrix(1.000000,0.000000,0.000000,1.000000,28.346457,-51.023622)">
  <path d="M0.268991 -0M1.75342 -3.84558L2.92902 -3.84558L2.92902 -4.42341L1.72354 -4.42341L1.72354 -5.62889C1.72354 -6.2665 2.08219 -6.41594 2.33126 -6.41594C2.53051 -6.41594 2.74969 -6.35616 2.92902 -6.24658L2.92902 -6.91407C2.86924 -6.934 2.62017 -7.02366 2.33126 -7.02366C1.59402 -7.02366 1.00623 -6.32628 1.00623 -5.33001L1.00623 -4.42341L0.268991 -4.42341L0.268991 -3.84558L1.00623 -3.84558L1.00623 -0L1.75342 -0ZM1.75342 -0M4.51308 -6.91407L3.76588 -6.91407L3.76588 -0L4.51308 -0ZM4.51308 -0M5.77833 -0M9.31507 -2.8792C9.31507 -3.89539 8.5878 -4.59278 7.67123 -4.59278C7.02366 -4.59278 6.57534 -4.43337 6.1071 -4.16438L6.16687 -3.50685C6.68493 -3.87547 7.18306 -4.00498 7.67123 -4.00498C8.13948 -4.00498 8.53798 -3.60648 8.53798 -2.86924L8.53798 -2.44085C7.04359 -2.42092 5.77833 -2.00249 5.77833 -1.12578C5.77833 -0.697385 6.04732 0.109589 6.91407 0.109589C7.05355 0.109589 7.99004 0.0896638 8.56787 -0.358655L8.56787 -0L9.31507 -0ZM9.31507 -0M8.53798 -1.31507C8.53798 -1.12578 8.53798 -0.876712 8.19925 -0.687422C7.91034 -0.508095 7.53176 -0.498132 7.42217 -0.498132C6.94396 -0.498132 6.49564 -0.727273 6.49564 -1.1457C6.49564 -1.84309 8.10959 -1.91283 8.53798 -1.93275ZM8.53798 -1.93275M10.401 -0M13.6289 -3.89539C13.8481 -3.89539 14.127 -3.93524 14.3661 -3.93524C14.5455 -3.93524 14.934 -3.90535 14.9539 -3.90535L14.8443 -4.533C14.1469 -4.533 13.5691 -4.34371 13.2702 -4.2142C13.061 -4.38356 12.7223 -4.533 12.3238 -4.533C11.467 -4.533 10.7397 -3.81569 10.7397 -2.90909C10.7397 -2.54047 10.8692 -2.18182 11.0685 -1.92279C10.7796 -1.51432 10.7796 -1.12578 10.7796 -1.07597C10.7796 -0.816936 10.8692 -0.52802 11.0386 -0.318804C10.5205 -0.00996264 10.401 0.448319 10.401 0.707347C10.401 1.45455 11.3873 2.0523 12.6027 2.0523C13.8281 2.0523 14.8144 1.46451 14.8144 0.697385C14.8144 -0.687422 13.1507 -0.687422 12.7621 -0.687422L11.8854 -0.687422C11.7559 -0.687422 11.3076 -0.687422 11.3076 -1.21544C11.3076 -1.32503 11.3474 -1.48443 11.4172 -1.5741C11.6264 -1.42466 11.9552 -1.28518 12.3238 -1.28518C13.2204 -1.28518 13.9178 -2.02242 13.9178 -2.90909C13.9178 -3.3873 13.6986 -3.75592 13.589 -3.90535ZM13.589 -3.90535M12.3238 -1.85305C11.9552 -1.85305 11.4371 -2.08219 11.4371 -2.90909C11.4371 -3.73599 11.9552 -3.96513 12.3238 -3.96513C12.7522 -3.96513 13.2204 -3.68618 13.2204 -2.90909C13.2204 -2.132 12.7522 -1.85305 12.3238 -1.85305ZM12.3238 -1.85305M12.7721 0.0298879C12.9913 0.0298879 14.1171 0.0298879 14.1171 0.71731C14.1171 1.15567 13.4296 1.48443 12.6127 1.48443C11.8057 1.48443 11.0984 1.17559 11.0984 0.707347C11.0984 0.67746 11.0984 0.0298879 11.8755 0.0298879ZM11.8755 0.0298879M15.3823 -0M18.5205 -4.27397C18.0025 -4.51308 17.594 -4.59278 17.0859 -4.59278C16.8369 -4.59278 15.4321 -4.59278 15.4321 -3.28767C15.4321 -2.7995 15.721 -2.4807 15.9701 -2.29141C16.279 -2.07223 16.4981 -2.03238 17.0461 -1.92279C17.4047 -1.85305 17.9826 -1.7335 17.9826 -1.20548C17.9826 -0.518057 17.1955 -0.518057 17.0461 -0.518057C16.2391 -0.518057 15.6812 -0.886675 15.5019 -1.00623L15.3823 -0.328767C15.7011 -0.169365 16.2491 0.109589 17.056 0.109589C17.2354 0.109589 17.7833 0.109589 18.2117 -0.209215C18.5205 -0.448319 18.6899 -0.846824 18.6899 -1.27522C18.6899 -1.82316 18.3213 -2.16189 18.3014 -2.19178C17.9128 -2.54047 17.6438 -2.60025 17.1457 -2.68991C16.5978 -2.7995 16.1395 -2.89913 16.1395 -3.3873C16.1395 -4.00498 16.8568 -4.00498 16.9863 -4.00498C17.3051 -4.00498 17.8331 -3.96513 18.401 -3.6264ZM18.401 -3.6264" fill="black"/>
 </g>
 <g transform="matrix(1.000000,0.000000,0.000000,1.000000,124.724409,-51.023622)">
  <path d="M-7.41424 -0M-4.64662 -2.05031C-4.64662 -2.86924 -4.64662 -4.27995 -6.02744 -4.27995C-7.41424 -4.27995 -7.41424 -2.8812 -7.41424 -2.05031C-7.41424 -1.23138 -7.41424 0.131507 -6.03342 0.131507C-4.64662 0.131507 -4.64662 -1.21943 -4.64662 -2.05031ZM-4.64662 -2.05031M-6.03342 -0.298879C-6.47576 -0.298879 -6.54151 -0.848817 -6.55944 -1.01021C-6.60129 -1.32702 -6.60129 -1.88892 -6.60129 -2.134C-6.60129 -2.48667 -6.60129 -2.86924 -6.56542 -3.16214C-6.54749 -3.32354 -6.48771 -3.84956 -6.03342 -3.84956C-5.59108 -3.84956 -5.51935 -3.34745 -5.50141 -3.2279C-5.45957 -2.92304 -5.45957 -2.45081 -5.45957 -2.134C-5.45957 -1.79328 -5.45957 -1.32702 -5.50141 -0.998257C-5.51935 -0.842839 -5.5851 -0.298879 -6.03342 -0.298879ZM-6.03342 -0.298879M-3.83964 -0M-3.55272 -4.14844C-3.76791 -4.14844 -3.83964 -4.08269 -3.83964 -3.86152L-3.83964 -0.286924C-3.83964 -0.071731 -3.77389 -0 -3.55272 -0L-1.91486 -0C-1.47252 -0 -0.372645 -0.0777086 -0.372645 -1.15965C-0.372645 -2.00249 -1.20353 -2.134 -1.4247 -2.16986C-0.874762 -2.29539 -0.55795 -2.60623 -0.55795 -3.07248C-0.55795 -4.14844 -1.83118 -4.14844 -2.08223 -4.14844ZM-2.08223 -4.14844M-2.9968 -2.3731L-2.9968 -3.63437L-2.29743 -3.63437C-2.0643 -3.63437 -1.3709 -3.61644 -1.3709 -3.05455C-1.3709 -2.3731 -2.15397 -2.3731 -2.3034 -2.3731ZM-2.3034 -2.3731M-2.9968 -0.514072L-2.9968 -1.94271L-2.24363 -1.94271C-2.03441 -1.94271 -1.20353 -1.94271 -1.20353 -1.17161C-1.20353 -0.555915 -1.84313 -0.514072 -2.13006 -0.514072ZM-2.13006 -0.514072" fill="black"/>
 </g>
 <g stroke-width="0.400879">
  <path d="M152.078 -42.5718C217.473 -38.7849 306.02 -9.0282 311.92 -64.9053" stroke="#3cc"/>
  <g stroke-linecap="butt" stroke-dasharray="none">
   <path d="M310.203 -64.2679C310.882 -65.4544 311.534 -66.7082 312.159 -68.0315C312.653 -66.6538 313.078 -65.306 313.437 -63.9871L311.92 -64.9053Z" fill="#3cc"/>
  </g>
 </g>
 <g stroke-width="1.133858">
  <path d="M282.465 -67.0315L341.998 -67.0315L341.998 -75.1198L282.465 -75.1198Z" stroke="#3cc" fill="#9cc"/>
 </g>
 <g transform="matrix(1.000000,0.000000,0.000000,1.000000,283.464567,-68.031496)">
  <path d="M0.498132 -0M4.72229 -3.03861C4.72229 -4.89166 3.7061 -6.19676 2.61021 -6.19676C1.4944 -6.19676 0.498132 -4.86177 0.498132 -3.04857C0.498132 -1.19552 1.51432 0.109589 2.61021 0.109589C3.72603 0.109589 4.72229 -1.2254 4.72229 -3.03861ZM4.72229 -3.03861M2.61021 -0.498132C1.83313 -0.498132 1.18555 -1.67372 1.18555 -3.14819C1.18555 -4.60274 1.87298 -5.58904 2.61021 -5.58904C3.33748 -5.58904 4.03487 -4.6127 4.03487 -3.14819C4.03487 -1.67372 3.3873 -0.498132 2.61021 -0.498132ZM2.61021 -0.498132M5.72852 -0M9.95268 -3.03861C9.95268 -4.89166 8.93649 -6.19676 7.8406 -6.19676C6.72478 -6.19676 5.72852 -4.86177 5.72852 -3.04857C5.72852 -1.19552 6.74471 0.109589 7.8406 0.109589C8.95641 0.109589 9.95268 -1.2254 9.95268 -3.03861ZM9.95268 -3.03861M7.8406 -0.498132C7.06351 -0.498132 6.41594 -1.67372 6.41594 -3.14819C6.41594 -4.60274 7.10336 -5.58904 7.8406 -5.58904C8.56787 -5.58904 9.26526 -4.6127 9.26526 -3.14819C9.26526 -1.67372 8.61768 -0.498132 7.8406 -0.498132ZM7.8406 -0.498132" fill="black"/>
  <path d="M16.1892 -0M20.4133 -3.03861C20.4133 -4.89166 19.3971 -6.19676 18.3012 -6.19676C17.1854 -6.19676 16.1892 -4.86177 16.1892 -3.04857C16.1892 -1.19552 17.2053 0.109589 18.3012 0.109589C19.417 0.109589 20.4133 -1.2254 20.4133 -3.03861ZM20.4133 -3.03861M18.3012 -0.498132C17.5241 -0.498132 16.8766 -1.67372 16.8766 -3.14819C16.8766 -4.60274 17.564 -5.58904 18.3012 -5.58904C19.0285 -5.58904 19.7259 -4.6127 19.7259 -3.14819C19.7259 -1.67372 19.0783 -0.498132 18.3012 -0.498132ZM18.3012 -0.498132M21.4195 -0M25.6437 -3.03861C25.6437 -4.89166 24.6275 -6.19676 23.5316 -6.19676C22.4158 -6.19676 21.4195 -4.86177 21.4195 -3.04857C21.4195 -1.19552 22.4357 0.109589 23.5316 0.109589C24.6474 0.109589 25.6437 -1.2254 25.6437 -3.03861ZM25.6437 -3.03861M23.5316 -0.498132C22.7545 -0.498132 22.107 -1.67372 22.107 -3.14819C22.107 -4.60274 22.7944 -5.58904 23.5316 -5.58904C24.2589 -5.58904 24.9563 -4.6127 24.9563 -3.14819C24.9563 -1.67372 24.3087 -0.498132 23.5316 -0.498132ZM23.5316 -0.498132" fill="black"/>
  <path d="M31.8802 -0M36.1043 -3.03861C36.1043 -4.89166 35.0881 -6.19676 33.9923 -6.19676C32.8764 -6.19676 31.8802 -4.86177 31.8802 -3.04857C31.8802 -1.19552 32.8964 0.109589 33.9923 0.109589C35.1081 0.109589 36.1043 -1.2254 36.1043 -3.03861ZM36.1043 -3.03861M33.9923 -0.498132C33.2152 -0.498132 32.5676 -1.67372 32.5676 -3.14819C32.5676 -4.60274 33.255 -5.58904 33.9923 -5.58904C34.7195 -5.58904 35.4169 -4.6127 35.4169 -3.14819C35.4169 -1.67372 34.7693 -0.498132 33.9923 -0.498132ZM33.9923 -0.498132M37.1305 -0M37.2799 -0.577833C37.1903 -0.498132 37.1305 -0.448319 37.1305 -0.308842C37.1305 -0 37.3796 -0 37.539 -0L40.9163 -0C41.2451 -0 41.3148 -0.0896638 41.3148 -0.408468L41.3148 -0.667497C41.3148 -0.856787 41.3148 -1.07597 40.9761 -1.07597C40.6274 -1.07597 40.6274 -0.886675 40.6274 -0.607721L38.2563 -0.607721C38.8441 -1.11582 39.8005 -1.86301 40.2289 -2.26152C40.8565 -2.81943 41.3148 -3.45704 41.3148 -4.25405C41.3148 -5.44956 40.3086 -6.19676 39.0931 -6.19676C37.9175 -6.19676 37.1305 -5.37983 37.1305 -4.533C37.1305 -4.16438 37.4094 -4.05479 37.5788 -4.05479C37.788 -4.05479 38.0172 -4.22416 38.0172 -4.50311C38.0172 -4.62267 37.9673 -4.75218 37.8777 -4.82192C38.0271 -5.2802 38.4954 -5.58904 39.0433 -5.58904C39.8602 -5.58904 40.6274 -5.13076 40.6274 -4.25405C40.6274 -3.55666 40.1392 -2.97883 39.4817 -2.43088ZM39.4817 -2.43088" fill="black"/>
  <path d="M47.5114 -0M50.829 -5.47945C49.1054 -3.64633 48.7667 -1.45455 48.7667 -0.358655C48.7667 -0.219178 48.7667 0.109589 49.1154 0.109589C49.2848 0.109589 49.4541 -0 49.4541 -0.288917C49.5039 -3.11831 51.0282 -4.85181 51.636 -5.4396C51.8352 -5.61893 51.8551 -5.63885 51.8551 -5.77833C51.8551 -6.08717 51.616 -6.08717 51.4566 -6.08717L48.169 -6.08717C48.1092 -6.24658 47.9299 -6.24658 47.8501 -6.24658C47.5114 -6.24658 47.5114 -6.0274 47.5114 -5.83811L47.5114 -5.41968C47.5114 -5.23039 47.5114 -5.01121 47.8501 -5.01121C48.1988 -5.01121 48.1988 -5.2005 48.1988 -5.47945ZM48.1988 -5.47945M52.8315 -0M53.5388 -3.36737C53.6783 -4.7721 54.6148 -5.58904 55.4915 -5.58904C55.8302 -5.58904 55.9896 -5.47945 56.0394 -5.42964C55.9896 -5.37983 55.9398 -5.32005 55.9398 -5.14072C55.9398 -4.90162 56.1191 -4.70237 56.3782 -4.70237C56.6272 -4.70237 56.8265 -4.87173 56.8265 -5.17061C56.8265 -5.65878 56.4678 -6.19676 55.5015 -6.19676C54.1665 -6.19676 52.8315 -4.99128 52.8315 -2.97883C52.8315 -0.617684 53.9473 0.109589 54.9336 0.109589C56.0195 0.109589 56.9959 -0.727273 56.9959 -1.92279C56.9959 -3.05853 56.1191 -3.94521 55.0233 -3.94521C54.5052 -3.94521 53.9871 -3.77584 53.5388 -3.36737ZM53.5388 -3.36737M54.9336 -0.498132C54.286 -0.498132 53.8975 -0.986301 53.6982 -1.59402C53.6783 -1.6538 53.6683 -1.71357 53.6484 -1.77335C53.6484 -1.77335 53.6384 -1.8132 53.6384 -1.8132C53.6384 -1.8132 53.6484 -1.90286 53.6484 -1.90286C53.6384 -1.9726 53.6185 -2.14197 53.6185 -2.21171C53.6185 -2.82939 54.2163 -3.32752 54.9734 -3.32752C55.7804 -3.32752 56.3084 -2.66002 56.3084 -1.92279C56.3084 -1.066 55.6509 -0.498132 54.9336 -0.498132ZM54.9336 -0.498132" fill="black"/>
 </g>
 <g transform="matrix(1.000000,0.000000,0.000000,1.000000,28.346457,-39.685039)">
  <path d="M0.737235 -0M1.62391 -6.7746L0.737235 -6.7746L0.737235 -5.88792L1.62391 -5.88792ZM1.62391 -5.88792M1.55417 -4.42341L0.806974 -4.42341L0.806974 -0L1.55417 -0ZM1.55417 -0M2.72976 -0M6.69489 -6.91407L5.9477 -6.91407L5.9477 -3.98506C5.41968 -4.42341 4.86177 -4.533 4.49315 -4.533C3.50685 -4.533 2.72976 -3.49689 2.72976 -2.21171C2.72976 -0.9066 3.49689 0.109589 4.44334 0.109589C4.7721 0.109589 5.3599 0.0199253 5.91781 -0.518057L5.91781 -0L6.69489 -0ZM6.69489 -0M5.91781 -1.38481C5.91781 -1.24533 5.90785 -1.066 5.58904 -0.777086C5.3599 -0.577833 5.11083 -0.498132 4.85181 -0.498132C4.23412 -0.498132 3.50685 -0.966376 3.50685 -2.20174C3.50685 -3.51681 4.36364 -3.92528 4.95143 -3.92528C5.39975 -3.92528 5.69863 -3.69614 5.91781 -3.37733ZM5.91781 -3.37733M7.86052 -0M11.6364 -2.18182C11.6364 -2.52055 11.6264 -3.26775 11.2379 -3.8655C10.8294 -4.48319 10.2217 -4.59278 9.86301 -4.59278C8.75716 -4.59278 7.86052 -3.53674 7.86052 -2.25156C7.86052 -0.936488 8.81694 0.109589 10.0125 0.109589C10.6401 0.109589 11.208 -0.129514 11.5965 -0.408468L11.5367 -1.05604C10.9091 -0.537983 10.2516 -0.498132 10.0224 -0.498132C9.2254 -0.498132 8.5878 -1.20548 8.55791 -2.18182ZM8.55791 -2.18182M8.60772 -2.72976C8.76712 -3.48692 9.29514 -3.98506 9.86301 -3.98506C10.3811 -3.98506 10.939 -3.64633 11.0685 -2.72976ZM11.0685 -2.72976M12.7422 -0M16.269 -2.96887C16.269 -3.6264 16.1196 -4.533 14.9041 -4.533C14.0075 -4.533 13.5193 -3.85554 13.4595 -3.77584L13.4595 -4.48319L12.7422 -4.48319L12.7422 -0L13.5193 -0L13.5193 -2.44085C13.5193 -3.09838 13.7684 -3.92528 14.5255 -3.92528C15.4819 -3.92528 15.4919 -3.21793 15.4919 -2.89913L15.4919 -0L16.269 -0ZM16.269 -0M17.2653 -0M18.8194 -3.84558L20.2242 -3.84558L20.2242 -4.42341L18.8194 -4.42341L18.8194 -5.68867L18.132 -5.68867L18.132 -4.42341L17.2653 -4.42341L17.2653 -3.84558L18.1021 -3.84558L18.1021 -1.18555C18.1021 -0.587796 18.2416 0.109589 18.929 0.109589C19.6264 0.109589 20.1345 -0.139477 20.3836 -0.268991L20.2242 -0.856787C19.9651 -0.647572 19.6463 -0.52802 19.3275 -0.52802C18.9589 -0.52802 18.8194 -0.826899 18.8194 -1.35492ZM18.8194 -1.35492M21.4097 -0M22.2964 -6.7746L21.4097 -6.7746L21.4097 -5.88792L22.2964 -5.88792ZM22.2964 -5.88792M22.2267 -4.42341L21.4795 -4.42341L21.4795 -0L22.2267 -0ZM22.2267 -0M23.3126 -0M27.5965 -6.92403L26.7696 -6.92403L26.7696 -6.09714L27.5965 -6.09714ZM27.5965 -6.09714M27.5567 -4.42341L26.8095 -4.42341L26.8095 -0L27.5567 -0ZM27.5567 -0M24.797 -3.84558L25.9726 -3.84558L25.9726 -4.42341L24.7671 -4.42341L24.7671 -5.62889C24.7671 -6.2665 25.1258 -6.41594 25.3748 -6.41594C25.5841 -6.41594 25.8032 -6.3462 25.9726 -6.23661L25.9726 -6.91407C25.9128 -6.934 25.6638 -7.02366 25.3748 -7.02366C24.6376 -7.02366 24.0498 -6.32628 24.0498 -5.33001L24.0498 -4.42341L23.3126 -4.42341L23.3126 -3.84558L24.0498 -3.84558L24.0498 -0L24.797 -0ZM24.797 -0M28.7323 -0M32.5081 -2.18182C32.5081 -2.52055 32.4981 -3.26775 32.1096 -3.8655C31.7011 -4.48319 31.0934 -4.59278 30.7347 -4.59278C29.6289 -4.59278 28.7323 -3.53674 28.7323 -2.25156C28.7323 -0.936488 29.6887 0.109589 30.8842 0.109589C31.5118 0.109589 32.0797 -0.129514 32.4682 -0.408468L32.4085 -1.05604C31.7808 -0.537983 31.1233 -0.498132 30.8941 -0.498132C30.0971 -0.498132 29.4595 -1.20548 29.4296 -2.18182ZM29.4296 -2.18182M29.4795 -2.72976C29.6389 -3.48692 30.1669 -3.98506 30.7347 -3.98506C31.2528 -3.98506 31.8107 -3.64633 31.9402 -2.72976ZM31.9402 -2.72976M33.6239 -0M34.3711 -2.132C34.3711 -3.12827 35.0884 -3.84558 36.0648 -3.8655L36.0648 -4.533C35.1781 -4.52304 34.6301 -4.03487 34.3213 -3.57659L34.3213 -4.48319L33.6239 -4.48319L33.6239 -0L34.3711 -0ZM34.3711 -0" fill="black"/>
 </g>
 <g transform="matrix(1.000000,0.000000,0.000000,1.000000,124.724409,-39.685039)">
  <path d="M-9.65452 -0M-9.54094 -0.508095C-9.60072 -0.448319 -9.60072 -0.436364 -9.60072 -0.334745L-9.60072 -0.286924C-9.60072 -0.071731 -9.53496 -0 -9.31379 -0L-7.26348 -0C-7.03633 -0 -6.97656 -0.0777086 -6.97656 -0.286924L-6.97656 -0.358655C-6.97656 -0.454296 -6.97656 -0.56787 -7.10209 -0.621669C-7.14393 -0.645579 -7.33521 -0.645579 -7.45477 -0.645579C-7.58627 -0.645579 -7.72973 -0.639601 -7.86124 -0.639601L-8.82961 -0.639601L-8.04057 -1.3868C-7.9509 -1.46451 -7.72376 -1.64981 -7.63409 -1.7335C-7.30533 -2.05629 -6.97656 -2.3731 -6.97656 -2.90511C-6.97656 -3.63437 -7.50259 -4.27995 -8.38129 -4.27995C-8.59051 -4.27995 -8.93123 -4.25006 -9.21815 -4.01694C-9.27195 -3.97509 -9.54692 -3.7599 -9.65452 -3.3594L-9.35564 -2.97684C-9.31977 -2.92902 -9.30184 -2.90511 -9.26 -2.90511C-9.2062 -2.90511 -9.19424 -2.94695 -9.17631 -3.01868C-9.05676 -3.43113 -8.85352 -3.68219 -8.47095 -3.68219C-8.0047 -3.68219 -7.81342 -3.25778 -7.81342 -2.89315C-7.81342 -2.51059 -8.04057 -2.11009 -8.39922 -1.72752ZM-8.39922 -1.72752M-6.36684 -0M-4.47195 -1.82316C-4.47793 -1.76936 -4.47195 -1.65579 -4.48988 -1.39875C-4.51977 -1.03412 -4.62737 -0.430386 -5.2849 -0.430386C-5.47021 -0.430386 -5.64356 -0.478207 -5.80495 -0.627646C-5.83484 -0.663512 -5.85277 -0.675467 -5.88266 -0.675467C-5.93048 -0.675467 -5.94244 -0.645579 -5.97232 -0.597758C-6.0859 -0.406476 -6.16958 -0.268991 -6.16958 -0.233126C-6.16958 -0.185305 -5.85875 0.131507 -5.27295 0.131507C-3.63509 0.131507 -3.63509 -1.59004 -3.63509 -2.12802C-3.63509 -2.76762 -3.64107 -4.27995 -4.99798 -4.27995C-5.36859 -4.27995 -5.76311 -4.2142 -6.07394 -3.83163C-6.325 -3.50286 -6.36684 -3.20399 -6.36684 -2.74371C-6.36684 -2.36712 -6.35489 -2.0264 -6.09785 -1.68568C-5.85875 -1.37484 -5.58378 -1.28518 -5.20122 -1.28518C-4.75887 -1.28518 -4.54966 -1.63786 -4.47195 -1.82316ZM-4.47195 -1.82316M-5.05178 -1.71557C-5.52998 -1.71557 -5.52998 -2.14595 -5.52998 -2.73773C-5.52998 -3.31756 -5.52998 -3.74795 -4.98602 -3.74795C-4.57357 -3.74795 -4.47793 -3.28767 -4.47793 -2.66002C-4.47793 -2.57634 -4.47793 -1.71557 -5.05178 -1.71557ZM-5.05178 -1.71557M-2.98951 -0M-2.19449 -3.86152C-2.19449 -4.0528 -2.23633 -4.14844 -2.48142 -4.14844L-2.70259 -4.14844C-2.91778 -4.14844 -2.98951 -4.08269 -2.98951 -3.86152L-2.98951 -0.286924C-2.98951 -0.071731 -2.92376 -0 -2.70259 -0L-2.46348 -0C-2.36186 -0 -2.18254 -0 -2.17656 -0.233126C-1.90159 0.0657534 -1.59673 0.0657534 -1.50109 0.0657534C-0.227866 0.0657534 -0.227866 -1.08194 -0.227866 -1.38082C-0.227866 -1.66775 -0.227866 -2.80349 -1.35165 -2.80349C-1.84181 -2.80349 -2.14069 -2.52852 -2.19449 -2.46874ZM-2.19449 -2.46874M-2.17656 -2.16389C-2.09885 -2.23562 -1.91952 -2.3731 -1.64455 -2.3731C-1.04082 -2.3731 -1.04082 -1.82316 -1.04082 -1.37484C-1.04082 -0.932503 -1.04082 -0.364633 -1.71031 -0.364633C-1.96137 -0.364633 -2.11081 -0.514072 -2.17656 -0.597758ZM-2.17656 -0.597758" fill="black"/>
 </g>
 <g transform="matrix(1.000000,0.000000,0.000000,1.000000,127.559055,-39.685039)">
  <path d="M0.418431 -0M4.55293 -3.24782C4.55293 -4.03487 4.51308 -4.96139 4.09465 -5.76837C3.68618 -6.51557 2.99875 -6.75467 2.49066 -6.75467C1.90286 -6.75467 1.20548 -6.48568 0.797011 -5.599C0.468244 -4.87173 0.418431 -4.04483 0.418431 -3.24782C0.418431 -2.46077 0.458281 -1.7335 0.757161 -1.00623C1.15567 -0.0498132 1.91283 0.219178 2.4807 0.219178C3.20797 0.219178 3.83562 -0.18929 4.15442 -0.876712C4.4533 -1.52428 4.55293 -2.18182 4.55293 -3.24782ZM4.55293 -3.24782M2.49066 -0.388543C1.9726 -0.388543 1.56413 -0.767123 1.36488 -1.48443C1.20548 -2.0523 1.19552 -2.59029 1.19552 -3.36737C1.19552 -3.99502 1.19552 -4.59278 1.36488 -5.14072C1.42466 -5.33001 1.67372 -6.14695 2.4807 -6.14695C3.25778 -6.14695 3.51681 -5.38979 3.58655 -5.21046C3.77584 -4.65255 3.77584 -3.98506 3.77584 -3.36737C3.77584 -2.70984 3.77584 -2.08219 3.59651 -1.45455C3.33748 -0.547945 2.80946 -0.388543 2.49066 -0.388543ZM2.49066 -0.388543M4.98132 -0M7.57161 -2.28144L9.39477 -4.42341L8.57783 -4.42341L7.24284 -2.77958L5.868 -4.42341L5.0411 -4.42341L6.91407 -2.28144L4.98132 -0L5.79826 -0L7.24284 -1.87298L8.73724 -0L9.56413 -0ZM9.56413 -0M9.99253 -0M11.3076 -1.87298L10.0722 -0.637609L10.0722 -0L14.0473 -0L14.0473 -0.707347L12.2341 -0.707347C12.1146 -0.707347 11.995 -0.697385 11.8755 -0.697385L10.7895 -0.697385C11.1083 -0.976339 11.8655 -1.72354 12.1743 -2.01245C12.3636 -2.19178 12.8717 -2.61021 13.061 -2.78954C13.5093 -3.23786 14.0473 -3.76588 14.0473 -4.6127C14.0473 -5.75841 13.2403 -6.75467 11.9253 -6.75467C10.7895 -6.75467 10.2316 -5.97758 9.99253 -5.1208C10.1121 -4.95143 10.1619 -4.89166 10.1818 -4.86177C10.2017 -4.84184 10.3014 -4.71233 10.401 -4.57285C10.6002 -5.33998 10.8792 -6.11706 11.7858 -6.11706C12.7223 -6.11706 13.2304 -5.36986 13.2304 -4.59278C13.2304 -3.74595 12.6625 -3.17808 12.0747 -2.58032ZM12.0747 -2.58032M14.9738 -0M16.8667 -5.82814C16.9863 -5.82814 17.1059 -5.83811 17.2254 -5.83811L18.4309 -5.83811C16.9564 -4.2142 16.0697 -2.22167 16.0697 0.109589L16.9066 0.109589C16.9066 -2.8792 18.3313 -5.01121 19.1083 -5.88792L19.1083 -6.53549L14.9738 -6.53549L14.9738 -5.82814ZM14.9738 -5.82814M19.9552 -0M23.6712 -6.55542C23.1631 -6.75467 22.7547 -6.75467 22.6152 -6.75467C21.2105 -6.75467 19.9552 -5.34994 19.9552 -3.20797C19.9552 -0.388543 21.1905 0.219178 22.0374 0.219178C22.6351 0.219178 23.0635 -0.00996264 23.4521 -0.458281C23.9004 -0.966376 24.0897 -1.42466 24.0897 -2.21171C24.0897 -3.48692 23.4321 -4.60274 22.4757 -4.60274C22.1569 -4.60274 21.3998 -4.52304 20.792 -3.77584C20.9215 -5.37983 21.7086 -6.17684 22.6252 -6.17684C23.0037 -6.17684 23.3225 -6.1071 23.6712 -5.96762ZM23.6712 -5.96762M20.802 -2.18182C20.802 -2.3213 20.802 -2.34122 20.812 -2.46077C20.812 -3.19801 21.2603 -3.99502 22.0872 -3.99502C22.5654 -3.99502 22.8443 -3.74595 23.0436 -3.37733C23.2528 -3.00872 23.2727 -2.66002 23.2727 -2.21171C23.2727 -1.87298 23.2727 -1.41469 23.0336 -1.00623C22.8643 -0.727273 22.6052 -0.388543 22.0374 -0.388543C20.9813 -0.388543 20.8319 -1.85305 20.802 -2.18182ZM20.802 -2.18182" fill="black"/>
 </g>
 <g stroke-width="0.400879">
  <path d="M132.54 -31.5993C217.954 -30.7382 344.627 13.3957 350.821 -64.9012" stroke="#7f7f33"/>
  <g stroke-linecap="butt" stroke-dasharray="none">
   <path d="M349.126 -64.2265C349.772 -65.4444 350.397 -66.7123 351.002 -68.0315C351.507 -66.6712 351.961 -65.3325 352.366 -64.0148L350.821 -64.9012Z" fill="#7f7f33"/>
  </g>
 </g>
 <g stroke-width="1.133858">
  <path d="M344.827 -67.0315L357.287 -67.0315L357.287 -75.1198L344.827 -75.1198Z" stroke="#7f7f33" fill="#9cc"/>
 </g>
 <g transform="matrix(1.000000,0.000000,0.000000,1.000000,345.826772,-68.031496)">
  <path d="M0.498132 -0M4.72229 -3.03861C4.72229 -4.89166 3.7061 -6.19676 2.61021 -6.19676C1.4944 -6.19676 0.498132 -4.86177 0.498132 -3.04857C0.498132 -1.19552 1.51432 0.109589 2.61021 0.109589C3.72603 0.109589 4.72229 -1.2254 4.72229 -3.03861ZM4.72229 -3.03861M2.61021 -0.498132C1.83313 -0.498132 1.18555 -1.67372 1.18555 -3.14819C1.18555 -4.60274 1.87298 -5.58904 2.61021 -5.58904C3.33748 -5.58904 4.03487 -4.6127 4.03487 -3.14819C4.03487 -1.67372 3.3873 -0.498132 2.61021 -0.498132ZM2.61021 -0.498132M5.66874 -0M7.8406 -3.58655C7.11333 -3.58655 6.49564 -4.03487 6.49564 -4.59278C6.49564 -5.11083 7.05355 -5.58904 7.8406 -5.58904C8.61768 -5.58904 9.18555 -5.11083 9.18555 -4.59278C9.18555 -4.02491 8.56787 -3.58655 7.8406 -3.58655ZM7.8406 -3.58655M8.62765 -3.27771C9.42466 -3.5467 9.87298 -4.03487 9.87298 -4.60274C9.87298 -5.41968 9.02615 -6.19676 7.8406 -6.19676C6.64508 -6.19676 5.80822 -5.40971 5.80822 -4.60274C5.80822 -4.03487 6.2665 -3.53674 7.05355 -3.27771C6.30635 -3.06849 5.66874 -2.4807 5.66874 -1.7335C5.66874 -0.767123 6.59527 0.109589 7.8406 0.109589C9.09589 0.109589 10.0125 -0.767123 10.0125 -1.7335C10.0125 -2.4807 9.36488 -3.06849 8.62765 -3.27771ZM8.62765 -3.27771M7.8406 -0.498132C7.0137 -0.498132 6.35616 -1.05604 6.35616 -1.74346C6.35616 -2.35118 6.934 -2.97883 7.8406 -2.97883C8.75716 -2.97883 9.32503 -2.35118 9.32503 -1.74346C9.32503 -1.05604 8.6675 -0.498132 7.8406 -0.498132ZM7.8406 -0.498132" fill="black"/>
 </g>
 <g transform="matrix(1.000000,0.000000,0.000000,1.000000,28.346457,-28.346457)">
  <path d="M0.806974 -0M1.55417 -6.91407L0.806974 -6.91407L0.806974 -0L1.55417 -0ZM1.55417 -0M2.7198 -0M6.49564 -2.18182C6.49564 -2.52055 6.48568 -3.26775 6.09714 -3.8655C5.68867 -4.48319 5.08095 -4.59278 4.72229 -4.59278C3.61644 -4.59278 2.7198 -3.53674 2.7198 -2.25156C2.7198 -0.936488 3.67621 0.109589 4.87173 0.109589C5.49938 0.109589 6.06725 -0.129514 6.45579 -0.408468L6.39601 -1.05604C5.76837 -0.537983 5.11083 -0.498132 4.88169 -0.498132C4.08468 -0.498132 3.44707 -1.20548 3.41719 -2.18182ZM3.41719 -2.18182M3.467 -2.72976C3.6264 -3.48692 4.15442 -3.98506 4.72229 -3.98506C5.24035 -3.98506 5.79826 -3.64633 5.92777 -2.72976ZM5.92777 -2.72976M7.60149 -0M11.1283 -2.96887C11.1283 -3.6264 10.9788 -4.533 9.76339 -4.533C8.86675 -4.533 8.37858 -3.85554 8.3188 -3.77584L8.3188 -4.48319L7.60149 -4.48319L7.60149 -0L8.37858 -0L8.37858 -2.44085C8.37858 -3.09838 8.62765 -3.92528 9.38481 -3.92528C10.3412 -3.92528 10.3512 -3.21793 10.3512 -2.89913L10.3512 -0L11.1283 -0ZM11.1283 -0M12.2142 -0M15.4421 -3.89539C15.6613 -3.89539 15.9402 -3.93524 16.1793 -3.93524C16.3587 -3.93524 16.7472 -3.90535 16.7671 -3.90535L16.6575 -4.533C15.9601 -4.533 15.3823 -4.34371 15.0834 -4.2142C14.8742 -4.38356 14.5355 -4.533 14.137 -4.533C13.2802 -4.533 12.5529 -3.81569 12.5529 -2.90909C12.5529 -2.54047 12.6824 -2.18182 12.8817 -1.92279C12.5928 -1.51432 12.5928 -1.12578 12.5928 -1.07597C12.5928 -0.816936 12.6824 -0.52802 12.8518 -0.318804C12.3337 -0.00996264 12.2142 0.448319 12.2142 0.707347C12.2142 1.45455 13.2005 2.0523 14.4159 2.0523C15.6413 2.0523 16.6276 1.46451 16.6276 0.697385C16.6276 -0.687422 14.9639 -0.687422 14.5753 -0.687422L13.6986 -0.687422C13.5691 -0.687422 13.1208 -0.687422 13.1208 -1.21544C13.1208 -1.32503 13.1606 -1.48443 13.2304 -1.5741C13.4396 -1.42466 13.7684 -1.28518 14.137 -1.28518C15.0336 -1.28518 15.731 -2.02242 15.731 -2.90909C15.731 -3.3873 15.5118 -3.75592 15.4022 -3.90535ZM15.4022 -3.90535M14.137 -1.85305C13.7684 -1.85305 13.2503 -2.08219 13.2503 -2.90909C13.2503 -3.73599 13.7684 -3.96513 14.137 -3.96513C14.5654 -3.96513 15.0336 -3.68618 15.0336 -2.90909C15.0336 -2.132 14.5654 -1.85305 14.137 -1.85305ZM14.137 -1.85305M14.5853 0.0298879C14.8045 0.0298879 15.9303 0.0298879 15.9303 0.71731C15.9303 1.15567 15.2428 1.48443 14.4259 1.48443C13.6189 1.48443 12.9116 1.17559 12.9116 0.707347C12.9116 0.67746 12.9116 0.0298879 13.6887 0.0298879ZM13.6887 0.0298879M17.1059 -0M18.66 -3.84558L20.0648 -3.84558L20.0648 -4.42341L18.66 -4.42341L18.66 -5.68867L17.9726 -5.68867L17.9726 -4.42341L17.1059 -4.42341L17.1059 -3.84558L17.9427 -3.84558L17.9427 -1.18555C17.9427 -0.587796 18.0822 0.109589 18.7696 0.109589C19.467 0.109589 19.9751 -0.139477 20.2242 -0.268991L20.0648 -0.856787C19.8057 -0.647572 19.4869 -0.52802 19.1681 -0.52802C18.7995 -0.52802 18.66 -0.826899 18.66 -1.35492ZM18.66 -1.35492M21.32 -0M24.8468 -2.96887C24.8468 -3.6264 24.6974 -4.533 23.4819 -4.533C22.8643 -4.533 22.3861 -4.22416 22.0672 -3.81569L22.0672 -6.91407L21.32 -6.91407L21.32 -0L22.0971 -0L22.0971 -2.44085C22.0971 -3.09838 22.3462 -3.92528 23.1034 -3.92528C24.0598 -3.92528 24.0697 -3.21793 24.0697 -2.89913L24.0697 -0L24.8468 -0ZM24.8468 -0" fill="black"/>
 </g>
 <g transform="matrix(1.000000,0.000000,0.000000,1.000000,124.724409,-28.346457)">
  <path d="M-7.21698 -0M-5.54923 -3.99303C-5.54923 -4.1066 -5.54923 -4.27995 -5.81225 -4.27995C-5.9318 -4.27995 -5.95571 -4.268 -6.02744 -4.19626C-6.13504 -4.10062 -6.36218 -3.87945 -6.95397 -3.8675C-7.06156 -3.8675 -7.21698 -3.82565 -7.21698 -3.6523C-7.21698 -3.43711 -7.00776 -3.43711 -6.93006 -3.43711C-6.75073 -3.43711 -6.54151 -3.467 -6.36816 -3.51482L-6.36816 -0.430386L-6.83441 -0.430386C-6.91212 -0.430386 -7.12134 -0.430386 -7.12134 -0.215193C-7.12134 -0 -6.91212 -0 -6.83441 -0L-5.1308 -0C-5.06505 -0 -4.84388 -0 -4.84388 -0.215193C-4.84388 -0.430386 -5.06505 -0.430386 -5.1308 -0.430386L-5.54923 -0.430386ZM-5.54923 -0.430386M-3.83964 -0M-3.55272 -4.14844C-3.76791 -4.14844 -3.83964 -4.08269 -3.83964 -3.86152L-3.83964 -0.286924C-3.83964 -0.071731 -3.77389 -0 -3.55272 -0L-1.91486 -0C-1.47252 -0 -0.372645 -0.0777086 -0.372645 -1.15965C-0.372645 -2.00249 -1.20353 -2.134 -1.4247 -2.16986C-0.874762 -2.29539 -0.55795 -2.60623 -0.55795 -3.07248C-0.55795 -4.14844 -1.83118 -4.14844 -2.08223 -4.14844ZM-2.08223 -4.14844M-2.9968 -2.3731L-2.9968 -3.63437L-2.29743 -3.63437C-2.0643 -3.63437 -1.3709 -3.61644 -1.3709 -3.05455C-1.3709 -2.3731 -2.15397 -2.3731 -2.3034 -2.3731ZM-2.3034 -2.3731M-2.9968 -0.514072L-2.9968 -1.94271L-2.24363 -1.94271C-2.03441 -1.94271 -1.20353 -1.94271 -1.20353 -1.17161C-1.20353 -0.555915 -1.84313 -0.514072 -2.13006 -0.514072ZM-2.13006 -0.514072" fill="black"/>
 </g>
 <g transform="matrix(1.000000,0.000000,0.000000,1.000000,127.559055,-28.346457)">
  <path d="M0.418431 -0M3.18804 -3.53674C4.07472 -3.82565 4.41345 -4.48319 4.41345 -5.01121C4.41345 -5.9477 3.56663 -6.75467 2.49066 -6.75467C1.37484 -6.75467 0.557908 -5.92777 0.557908 -5.01121C0.557908 -4.48319 0.896638 -3.82565 1.78331 -3.53674C1.066 -3.28767 0.418431 -2.66002 0.418431 -1.79328C0.418431 -0.707347 1.33499 0.219178 2.4807 0.219178C3.66625 0.219178 4.55293 -0.737235 4.55293 -1.79328C4.55293 -2.69988 3.85554 -3.3076 3.18804 -3.53674ZM3.18804 -3.53674M2.49066 -3.83562C1.72354 -3.83562 1.25529 -4.32379 1.25529 -5.01121C1.25529 -5.69863 1.74346 -6.17684 2.4807 -6.17684C3.26775 -6.17684 3.71606 -5.65878 3.71606 -5.01121C3.71606 -4.2939 3.20797 -3.83562 2.49066 -3.83562ZM2.49066 -3.83562M2.49066 -0.388543C1.80324 -0.388543 1.2254 -0.86675 1.2254 -1.80324C1.2254 -2.84932 1.94271 -3.2279 2.4807 -3.2279C3.05853 -3.2279 3.74595 -2.82939 3.74595 -1.80324C3.74595 -0.836862 3.12827 -0.388543 2.49066 -0.388543ZM2.49066 -0.388543" fill="black"/>
 </g>
 <g stroke-width="0.400879">
  <path d="M132.54 -20.2634C230.767 -19.484 375.98 26.44 382.136 -64.8997" stroke="#7fcc7f"/>
  <g stroke-linecap="butt" stroke-dasharray="none">
   <path d="M380.452 -64.2087C381.083 -65.4408 381.696 -66.7148 382.291 -68.0315C382.801 -66.6796 383.268 -65.3452 383.693 -64.0279L382.136 -64.8997Z" fill="#7fcc7f"/>
  </g>
 </g>
 <g stroke-width="1.133858">
  <path d="M360.417 -67.0315L404.26 -67.0315L404.26 -75.1198L360.417 -75.1198Z" stroke="#7fcc7f" fill="#9cc"/>
 </g>
 <g transform="matrix(1.000000,0.000000,0.000000,1.000000,361.417323,-68.031496)">
  <path d="M0.498132 -0M4.72229 -3.03861C4.72229 -4.89166 3.7061 -6.19676 2.61021 -6.19676C1.4944 -6.19676 0.498132 -4.86177 0.498132 -3.04857C0.498132 -1.19552 1.51432 0.109589 2.61021 0.109589C3.72603 0.109589 4.72229 -1.2254 4.72229 -3.03861ZM4.72229 -3.03861M2.61021 -0.498132C1.83313 -0.498132 1.18555 -1.67372 1.18555 -3.14819C1.18555 -4.60274 1.87298 -5.58904 2.61021 -5.58904C3.33748 -5.58904 4.03487 -4.6127 4.03487 -3.14819C4.03487 -1.67372 3.3873 -0.498132 2.61021 -0.498132ZM2.61021 -0.498132M5.72852 -0M9.95268 -3.03861C9.95268 -4.89166 8.93649 -6.19676 7.8406 -6.19676C6.72478 -6.19676 5.72852 -4.86177 5.72852 -3.04857C5.72852 -1.19552 6.74471 0.109589 7.8406 0.109589C8.95641 0.109589 9.95268 -1.2254 9.95268 -3.03861ZM9.95268 -3.03861M7.8406 -0.498132C7.06351 -0.498132 6.41594 -1.67372 6.41594 -3.14819C6.41594 -4.60274 7.10336 -5.58904 7.8406 -5.58904C8.56787 -5.58904 9.26526 -4.6127 9.26526 -3.14819C9.26526 -1.67372 8.61768 -0.498132 7.8406 -0.498132ZM7.8406 -0.498132" fill="black"/>
  <path d="M16.1892 -0M20.4133 -3.03861C20.4133 -4.89166 19.3971 -6.19676 18.3012 -6.19676C17.1854 -6.19676 16.1892 -4.86177 16.1892 -3.04857C16.1892 -1.19552 17.2053 0.109589 18.3012 0.109589C19.417 0.109589 20.4133 -1.2254 20.4133 -3.03861ZM20.4133 -3.03861M18.3012 -0.498132C17.5241 -0.498132 16.8766 -1.67372 16.8766 -3.14819C16.8766 -4.60274 17.564 -5.58904 18.3012 -5.58904C19.0285 -5.58904 19.7259 -4.6127 19.7259 -3.14819C19.7259 -1.67372 19.0783 -0.498132 18.3012 -0.498132ZM18.3012 -0.498132M21.4195 -0M25.6437 -3.03861C25.6437 -4.89166 24.6275 -6.19676 23.5316 -6.19676C22.4158 -6.19676 21.4195 -4.86177 21.4195 -3.04857C21.4195 -1.19552 22.4357 0.109589 23.5316 0.109589C24.6474 0.109589 25.6437 -1.2254 25.6437 -3.03861ZM25.6437 -3.03861M23.5316 -0.498132C22.7545 -0.498132 22.107 -1.67372 22.107 -3.14819C22.107 -4.60274 22.7944 -5.58904 23.5316 -5.58904C24.2589 -5.58904 24.9563 -4.6127 24.9563 -3.14819C24.9563 -1.67372 24.3087 -0.498132 23.5316 -0.498132ZM23.5316 -0.498132" fill="black"/>
  <path d="M31.8802 -0M36.1043 -3.03861C36.1043 -4.89166 35.0881 -6.19676 33.9923 -6.19676C32.8764 -6.19676 31.8802 -4.86177 31.8802 -3.04857C31.8802 -1.19552 32.8964 0.109589 33.9923 0.109589C35.1081 0.109589 36.1043 -1.2254 36.1043 -3.03861ZM36.1043 -3.03861M33.9923 -0.498132C33.2152 -0.498132 32.5676 -1.67372 32.5676 -3.14819C32.5676 -4.60274 33.255 -5.58904 33.9923 -5.58904C34.7195 -5.58904 35.4169 -4.6127 35.4169 -3.14819C35.4169 -1.67372 34.7693 -0.498132 33.9923 -0.498132ZM33.9923 -0.498132M37.1106 -0M41.3347 -3.03861C41.3347 -4.89166 40.3185 -6.19676 39.2226 -6.19676C38.1068 -6.19676 37.1106 -4.86177 37.1106 -3.04857C37.1106 -1.19552 38.1268 0.109589 39.2226 0.109589C40.3385 0.109589 41.3347 -1.2254 41.3347 -3.03861ZM41.3347 -3.03861M39.2226 -0.498132C38.4456 -0.498132 37.798 -1.67372 37.798 -3.14819C37.798 -4.60274 38.4854 -5.58904 39.2226 -5.58904C39.9499 -5.58904 40.6473 -4.6127 40.6473 -3.14819C40.6473 -1.67372 39.9997 -0.498132 39.2226 -0.498132ZM39.2226 -0.498132" fill="black"/>
 </g>
 <g transform="matrix(1.000000,0.000000,0.000000,1.000000,28.346457,-17.007874)">
  <path d="M0.816936 -0M1.56413 -2.132C1.56413 -3.12827 2.28144 -3.84558 3.25778 -3.8655L3.25778 -4.533C2.37111 -4.52304 1.82316 -4.03487 1.51432 -3.57659L1.51432 -4.48319L0.816936 -4.48319L0.816936 -0L1.56413 -0ZM1.56413 -0M3.74595 -0M7.52179 -2.18182C7.52179 -2.52055 7.51183 -3.26775 7.12329 -3.8655C6.71482 -4.48319 6.1071 -4.59278 5.74844 -4.59278C4.64259 -4.59278 3.74595 -3.53674 3.74595 -2.25156C3.74595 -0.936488 4.70237 0.109589 5.89788 0.109589C6.52553 0.109589 7.0934 -0.129514 7.48194 -0.408468L7.42217 -1.05604C6.79452 -0.537983 6.13699 -0.498132 5.90785 -0.498132C5.11083 -0.498132 4.47323 -1.20548 4.44334 -2.18182ZM4.44334 -2.18182M4.49315 -2.72976C4.65255 -3.48692 5.18057 -3.98506 5.74844 -3.98506C6.2665 -3.98506 6.82441 -3.64633 6.95392 -2.72976ZM6.95392 -2.72976M8.09963 -0M11.2379 -4.27397C10.7198 -4.51308 10.3113 -4.59278 9.80324 -4.59278C9.55417 -4.59278 8.14944 -4.59278 8.14944 -3.28767C8.14944 -2.7995 8.43836 -2.4807 8.68742 -2.29141C8.99626 -2.07223 9.21544 -2.03238 9.76339 -1.92279C10.122 -1.85305 10.6999 -1.7335 10.6999 -1.20548C10.6999 -0.518057 9.91283 -0.518057 9.76339 -0.518057C8.95641 -0.518057 8.39851 -0.886675 8.21918 -1.00623L8.09963 -0.328767C8.41843 -0.169365 8.96638 0.109589 9.77335 0.109589C9.95268 0.109589 10.5006 0.109589 10.929 -0.209215C11.2379 -0.448319 11.4072 -0.846824 11.4072 -1.27522C11.4072 -1.82316 11.0386 -2.16189 11.0187 -2.19178C10.6301 -2.54047 10.3611 -2.60025 9.86301 -2.68991C9.31507 -2.7995 8.85679 -2.89913 8.85679 -3.3873C8.85679 -4.00498 9.5741 -4.00498 9.70361 -4.00498C10.0224 -4.00498 10.5504 -3.96513 11.1183 -3.6264ZM11.1183 -3.6264M11.9851 -0M15.7609 -2.18182C15.7609 -2.52055 15.7509 -3.26775 15.3624 -3.8655C14.9539 -4.48319 14.3462 -4.59278 13.9875 -4.59278C12.8817 -4.59278 11.9851 -3.53674 11.9851 -2.25156C11.9851 -0.936488 12.9415 0.109589 14.137 0.109589C14.7646 0.109589 15.3325 -0.129514 15.721 -0.408468L15.6613 -1.05604C15.0336 -0.537983 14.3761 -0.498132 14.1469 -0.498132C13.3499 -0.498132 12.7123 -1.20548 12.6824 -2.18182ZM12.6824 -2.18182M12.7323 -2.72976C12.8917 -3.48692 13.4197 -3.98506 13.9875 -3.98506C14.5056 -3.98506 15.0635 -3.64633 15.193 -2.72976ZM15.193 -2.72976M16.8767 -0M17.6239 -2.132C17.6239 -3.12827 18.3412 -3.84558 19.3176 -3.8655L19.3176 -4.533C18.4309 -4.52304 17.8829 -4.03487 17.5741 -3.57659L17.5741 -4.48319L16.8767 -4.48319L16.8767 -0L17.6239 -0ZM17.6239 -0M19.5965 -0M23.9004 -4.42341L23.1532 -4.42341L22.3661 -2.35118C22.1569 -1.80324 21.8481 -0.996264 21.7684 -0.52802L21.7584 -0.52802C21.6986 -0.886675 21.4396 -1.5741 21.34 -1.84309L20.3736 -4.42341L19.5965 -4.42341L21.3101 -0L22.1868 -0ZM22.1868 -0M24.3985 -0M28.1743 -2.18182C28.1743 -2.52055 28.1644 -3.26775 27.7758 -3.8655C27.3674 -4.48319 26.7597 -4.59278 26.401 -4.59278C25.2951 -4.59278 24.3985 -3.53674 24.3985 -2.25156C24.3985 -0.936488 25.3549 0.109589 26.5504 0.109589C27.1781 0.109589 27.746 -0.129514 28.1345 -0.408468L28.0747 -1.05604C27.4471 -0.537983 26.7895 -0.498132 26.5604 -0.498132C25.7634 -0.498132 25.1258 -1.20548 25.0959 -2.18182ZM25.0959 -2.18182M25.1457 -2.72976C25.3051 -3.48692 25.8331 -3.98506 26.401 -3.98506C26.9191 -3.98506 27.477 -3.64633 27.6065 -2.72976ZM27.6065 -2.72976M28.8319 -0M32.797 -6.91407L32.0498 -6.91407L32.0498 -3.98506C31.5218 -4.42341 30.9639 -4.533 30.5953 -4.533C29.609 -4.533 28.8319 -3.49689 28.8319 -2.21171C28.8319 -0.9066 29.599 0.109589 30.5455 0.109589C30.8742 0.109589 31.462 0.0199253 32.0199 -0.518057L32.0199 -0L32.797 -0ZM32.797 -0M32.0199 -1.38481C32.0199 -1.24533 32.01 -1.066 31.6912 -0.777086C31.462 -0.577833 31.213 -0.498132 30.9539 -0.498132C30.3362 -0.498132 29.609 -0.966376 29.609 -2.20174C29.609 -3.51681 30.4658 -3.92528 31.0535 -3.92528C31.5019 -3.92528 31.8007 -3.69614 32.0199 -3.37733ZM32.0199 -3.37733" fill="black"/>
 </g>
 <g transform="matrix(1.000000,0.000000,0.000000,1.000000,124.724409,-17.007874)">
  <path d="M-7.39631 -0M-7.09743 -3.31756C-7.04961 -3.24583 -7.01972 -3.24583 -7.00776 -3.24583C-6.96592 -3.24583 -6.95397 -3.26974 -6.92408 -3.31158C-6.61922 -3.74795 -6.19481 -3.74795 -6.1171 -3.74795C-5.73454 -3.74795 -5.68074 -3.55068 -5.68074 -3.25778C-5.68074 -3.1741 -5.68074 -2.88717 -5.86605 -2.66002C-6.00951 -2.49265 -6.15895 -2.4807 -6.33827 -2.46874C-6.40403 -2.46276 -6.5176 -2.45679 -6.53553 -2.44483C-6.57738 -2.4269 -6.57738 -2.39103 -6.57738 -2.29539L-6.57738 -2.1878C-6.57738 -2.03238 -6.5714 -2.0264 -6.41598 -2.0264L-6.15297 -2.0264C-5.60901 -2.0264 -5.54326 -1.68568 -5.54326 -1.2254C-5.54326 -0.824907 -5.5851 -0.430386 -6.12906 -0.430386C-6.32034 -0.430386 -6.76268 -0.472229 -7.16318 -0.848817C-7.21698 -0.902615 -7.22296 -0.908593 -7.24687 -0.908593C-7.30664 -0.908593 -7.3186 -0.854795 -7.32458 -0.842839C-7.32458 -0.836862 -7.39631 -0.460274 -7.39631 -0.430386C-7.39631 -0.352677 -6.88223 0.131507 -6.09917 0.131507C-5.07103 0.131507 -4.66455 -0.418431 -4.66455 -1.21345C-4.66455 -1.75143 -4.95147 -2.11606 -5.48946 -2.25355C-5.00527 -2.51656 -4.84388 -2.90511 -4.84388 -3.24583C-4.84388 -4.20224 -5.69867 -4.27995 -6.08722 -4.27995C-6.90614 -4.27995 -7.30664 -3.69415 -7.30664 -3.64633C-7.30664 -3.61046 -7.27078 -3.56264 -7.2648 -3.55666ZM-7.2648 -3.55666M-3.83964 -0M-3.55272 -4.14844C-3.76791 -4.14844 -3.83964 -4.08269 -3.83964 -3.86152L-3.83964 -0.286924C-3.83964 -0.071731 -3.77389 -0 -3.55272 -0L-1.91486 -0C-1.47252 -0 -0.372645 -0.0777086 -0.372645 -1.15965C-0.372645 -2.00249 -1.20353 -2.134 -1.4247 -2.16986C-0.874762 -2.29539 -0.55795 -2.60623 -0.55795 -3.07248C-0.55795 -4.14844 -1.83118 -4.14844 -2.08223 -4.14844ZM-2.08223 -4.14844M-2.9968 -2.3731L-2.9968 -3.63437L-2.29743 -3.63437C-2.0643 -3.63437 -1.3709 -3.61644 -1.3709 -3.05455C-1.3709 -2.3731 -2.15397 -2.3731 -2.3034 -2.3731ZM-2.3034 -2.3731M-2.9968 -0.514072L-2.9968 -1.94271L-2.24363 -1.94271C-2.03441 -1.94271 -1.20353 -1.94271 -1.20353 -1.17161C-1.20353 -0.555915 -1.84313 -0.514072 -2.13006 -0.514072ZM-2.13006 -0.514072" fill="black"/>
 </g>
 <g transform="matrix(1.000000,0.000000,0.000000,1.000000,127.559055,-17.007874)">
  <path d="M0.418431 -0M4.55293 -3.24782C4.55293 -4.03487 4.51308 -4.96139 4.09465 -5.76837C3.68618 -6.51557 2.99875 -6.75467 2.49066 -6.75467C1.90286 -6.75467 1.20548 -6.48568 0.797011 -5.599C0.468244 -4.87173 0.418431 -4.04483 0.418431 -3.24782C0.418431 -2.46077 0.458281 -1.7335 0.757161 -1.00623C1.15567 -0.0498132 1.91283 0.219178 2.4807 0.219178C3.20797 0.219178 3.83562 -0.18929 4.15442 -0.876712C4.4533 -1.52428 4.55293 -2.18182 4.55293 -3.24782ZM4.55293 -3.24782M2.49066 -0.388543C1.9726 -0.388543 1.56413 -0.767123 1.36488 -1.48443C1.20548 -2.0523 1.19552 -2.59029 1.19552 -3.36737C1.19552 -3.99502 1.19552 -4.59278 1.36488 -5.14072C1.42466 -5.33001 1.67372 -6.14695 2.4807 -6.14695C3.25778 -6.14695 3.51681 -5.38979 3.58655 -5.21046C3.77584 -4.65255 3.77584 -3.98506 3.77584 -3.36737C3.77584 -2.70984 3.77584 -2.08219 3.59651 -1.45455C3.33748 -0.547945 2.80946 -0.388543 2.49066 -0.388543ZM2.49066 -0.388543" fill="black"/>
 </g>
 <g stroke-width="0.400879">
  <path d="M226.881 -5.79858C335.084 2.93658 462.836 28.3086 468.165 -64.8986" stroke="#7f33cc"/>
  <g stroke-linecap="butt" stroke-dasharray="none">
   <path d="M466.49 -64.1934C467.107 -65.4374 467.71 -66.7166 468.297 -68.0315C468.812 -66.6866 469.29 -65.3561 469.733 -64.0396L468.165 -64.8986Z" fill="#7f33cc"/>
  </g>
 </g>
 <g stroke-width="1.133858">
  <path d="M407.189 -67.0315L529.487 -67.0315L529.487 -75.1198L407.189 -75.1198Z" stroke="#7f33cc" fill="#9cc"/>
 </g>
 <g transform="matrix(1.000000,0.000000,0.000000,1.000000,408.188976,-68.031496)">
  <path d="M0.498132 -0M4.72229 -3.03861C4.72229 -4.89166 3.7061 -6.19676 2.61021 -6.19676C1.4944 -6.19676 0.498132 -4.86177 0.498132 -3.04857C0.498132 -1.19552 1.51432 0.109589 2.61021 0.109589C3.72603 0.109589 4.72229 -1.2254 4.72229 -3.03861ZM4.72229 -3.03861M2.61021 -0.498132C1.83313 -0.498132 1.18555 -1.67372 1.18555 -3.14819C1.18555 -4.60274 1.87298 -5.58904 2.61021 -5.58904C3.33748 -5.58904 4.03487 -4.6127 4.03487 -3.14819C4.03487 -1.67372 3.3873 -0.498132 2.61021 -0.498132ZM2.61021 -0.498132M5.66874 -0M8.9863 -5.47945C7.26276 -3.64633 6.92403 -1.45455 6.92403 -0.358655C6.92403 -0.219178 6.92403 0.109589 7.27273 0.109589C7.44209 0.109589 7.61146 -0 7.61146 -0.288917C7.66127 -3.11831 9.18555 -4.85181 9.79328 -5.4396C9.99253 -5.61893 10.0125 -5.63885 10.0125 -5.77833C10.0125 -6.08717 9.77335 -6.08717 9.61395 -6.08717L6.32628 -6.08717C6.2665 -6.24658 6.08717 -6.24658 6.00747 -6.24658C5.66874 -6.24658 5.66874 -6.0274 5.66874 -5.83811L5.66874 -5.41968C5.66874 -5.23039 5.66874 -5.01121 6.00747 -5.01121C6.35616 -5.01121 6.35616 -5.2005 6.35616 -5.47945ZM6.35616 -5.47945" fill="black"/>
  <path d="M16.239 -0M19.3373 -0.318804C19.5565 -0.00996264 20.0347 -0 20.4133 -0C20.6923 -0 20.9114 -0 20.9114 -0.308842C20.9114 -0.607721 20.6624 -0.607721 20.5129 -0.607721C20.0945 -0.607721 19.9949 -0.657534 19.9152 -0.687422L19.9152 -2.83935C19.9152 -3.5467 19.3772 -4.38356 17.9426 -4.38356C17.5142 -4.38356 16.498 -4.38356 16.498 -3.65629C16.498 -3.35741 16.7072 -3.19801 16.9463 -3.19801C17.0958 -3.19801 17.3747 -3.28767 17.3847 -3.65629C17.3847 -3.73599 17.3946 -3.74595 17.5939 -3.76588C17.7334 -3.77584 17.8629 -3.77584 17.9525 -3.77584C18.7097 -3.77584 19.2278 -3.467 19.2278 -2.75965C17.4644 -2.72976 16.239 -2.23163 16.239 -1.27522C16.239 -0.587796 16.8666 0.0597758 17.8828 0.0597758C18.2514 0.0597758 18.8691 -0.00996264 19.3373 -0.318804ZM19.3373 -0.318804M19.2278 -2.17186L19.2278 -1.33499C19.2278 -1.10585 19.2278 -0.896638 18.8392 -0.71731C18.4806 -0.547945 18.0322 -0.547945 17.9525 -0.547945C17.3349 -0.547945 16.9264 -0.886675 16.9264 -1.27522C16.9264 -1.76339 17.7832 -2.132 19.2278 -2.17186ZM19.2278 -2.17186M21.4395 -0M21.5889 -0.577833C21.4992 -0.498132 21.4395 -0.448319 21.4395 -0.308842C21.4395 -0 21.6885 -0 21.8479 -0L25.2253 -0C25.554 -0 25.6238 -0.0896638 25.6238 -0.408468L25.6238 -0.667497C25.6238 -0.856787 25.6238 -1.07597 25.285 -1.07597C24.9364 -1.07597 24.9364 -0.886675 24.9364 -0.607721L22.5652 -0.607721C23.153 -1.11582 24.1095 -1.86301 24.5378 -2.26152C25.1655 -2.81943 25.6238 -3.45704 25.6238 -4.25405C25.6238 -5.44956 24.6175 -6.19676 23.4021 -6.19676C22.2265 -6.19676 21.4395 -5.37983 21.4395 -4.533C21.4395 -4.16438 21.7184 -4.05479 21.8878 -4.05479C22.097 -4.05479 22.3261 -4.22416 22.3261 -4.50311C22.3261 -4.62267 22.2763 -4.75218 22.1867 -4.82192C22.3361 -5.2802 22.8043 -5.58904 23.3523 -5.58904C24.1692 -5.58904 24.9364 -5.13076 24.9364 -4.25405C24.9364 -3.55666 24.4482 -2.97883 23.7906 -2.43088ZM23.7906 -2.43088" fill="black"/>
  <path d="M31.8802 -0M36.1043 -3.03861C36.1043 -4.89166 35.0881 -6.19676 33.9923 -6.19676C32.8764 -6.19676 31.8802 -4.86177 31.8802 -3.04857C31.8802 -1.19552 32.8964 0.109589 33.9923 0.109589C35.1081 0.109589 36.1043 -1.2254 36.1043 -3.03861ZM36.1043 -3.03861M33.9923 -0.498132C33.2152 -0.498132 32.5676 -1.67372 32.5676 -3.14819C32.5676 -4.60274 33.255 -5.58904 33.9923 -5.58904C34.7195 -5.58904 35.4169 -4.6127 35.4169 -3.14819C35.4169 -1.67372 34.7693 -0.498132 33.9923 -0.498132ZM33.9923 -0.498132M37.1106 -0M41.3347 -3.03861C41.3347 -4.89166 40.3185 -6.19676 39.2226 -6.19676C38.1068 -6.19676 37.1106 -4.86177 37.1106 -3.04857C37.1106 -1.19552 38.1268 0.109589 39.2226 0.109589C40.3385 0.109589 41.3347 -1.2254 41.3347 -3.03861ZM41.3347 -3.03861M39.2226 -0.498132C38.4456 -0.498132 37.798 -1.67372 37.798 -3.14819C37.798 -4.60274 38.4854 -5.58904 39.2226 -5.58904C39.9499 -5.58904 40.6473 -4.6127 40.6473 -3.14819C40.6473 -1.67372 39.9997 -0.498132 39.2226 -0.498132ZM39.2226 -0.498132" fill="black"/>
  <path d="M47.4915 -0M49.5936 -3.68618L50.8091 -3.68618C50.9585 -3.68618 51.2076 -3.68618 51.2076 -3.98506C51.2076 -4.2939 50.9685 -4.2939 50.8091 -4.2939L49.5936 -4.2939L49.5936 -4.76214C49.5936 -5.53923 50.2611 -5.53923 50.56 -5.53923C50.56 -5.49938 50.6497 -5.11083 50.9983 -5.11083C51.1976 -5.11083 51.4267 -5.27024 51.4267 -5.54919C51.4267 -6.14695 50.6297 -6.14695 50.4703 -6.14695C49.6733 -6.14695 48.9062 -5.68867 48.9062 -4.82192L48.9062 -4.2939L47.9099 -4.2939C47.7505 -4.2939 47.5015 -4.2939 47.5015 -3.98506C47.5015 -3.68618 47.7505 -3.68618 47.9 -3.68618L48.9062 -3.68618L48.9062 -0.607721L47.9 -0.607721C47.7505 -0.607721 47.4915 -0.607721 47.4915 -0.308842C47.4915 -0 47.7505 -0 47.9 -0L50.5998 -0C50.7493 -0 51.0083 -0 51.0083 -0.298879C51.0083 -0.607721 50.7493 -0.607721 50.5998 -0.607721L49.5936 -0.607721ZM49.5936 -0.607721M52.7219 -0M54.824 -3.68618L56.0394 -3.68618C56.1889 -3.68618 56.4379 -3.68618 56.4379 -3.98506C56.4379 -4.2939 56.1988 -4.2939 56.0394 -4.2939L54.824 -4.2939L54.824 -4.76214C54.824 -5.53923 55.4915 -5.53923 55.7904 -5.53923C55.7904 -5.49938 55.88 -5.11083 56.2287 -5.11083C56.428 -5.11083 56.6571 -5.27024 56.6571 -5.54919C56.6571 -6.14695 55.8601 -6.14695 55.7007 -6.14695C54.9037 -6.14695 54.1366 -5.68867 54.1366 -4.82192L54.1366 -4.2939L53.1403 -4.2939C52.9809 -4.2939 52.7318 -4.2939 52.7318 -3.98506C52.7318 -3.68618 52.9809 -3.68618 53.1303 -3.68618L54.1366 -3.68618L54.1366 -0.607721L53.1303 -0.607721C52.9809 -0.607721 52.7219 -0.607721 52.7219 -0.308842C52.7219 -0 52.9809 -0 53.1303 -0L55.8302 -0C55.9797 -0 56.2387 -0 56.2387 -0.298879C56.2387 -0.607721 55.9797 -0.607721 55.8302 -0.607721L54.824 -0.607721ZM54.824 -0.607721" fill="black"/>
  <path d="M63.2622 -0M67.4864 -3.03861C67.4864 -4.89166 66.4702 -6.19676 65.3743 -6.19676C64.2585 -6.19676 63.2622 -4.86177 63.2622 -3.04857C63.2622 -1.19552 64.2784 0.109589 65.3743 0.109589C66.4901 0.109589 67.4864 -1.2254 67.4864 -3.03861ZM67.4864 -3.03861M65.3743 -0.498132C64.5972 -0.498132 63.9496 -1.67372 63.9496 -3.14819C63.9496 -4.60274 64.6371 -5.58904 65.3743 -5.58904C66.1016 -5.58904 66.799 -4.6127 66.799 -3.14819C66.799 -1.67372 66.1514 -0.498132 65.3743 -0.498132ZM65.3743 -0.498132M68.4926 -0M72.7168 -3.03861C72.7168 -4.89166 71.7006 -6.19676 70.6047 -6.19676C69.4889 -6.19676 68.4926 -4.86177 68.4926 -3.04857C68.4926 -1.19552 69.5088 0.109589 70.6047 0.109589C71.7205 0.109589 72.7168 -1.2254 72.7168 -3.03861ZM72.7168 -3.03861M70.6047 -0.498132C69.8276 -0.498132 69.18 -1.67372 69.18 -3.14819C69.18 -4.60274 69.8674 -5.58904 70.6047 -5.58904C71.332 -5.58904 72.0293 -4.6127 72.0293 -3.14819C72.0293 -1.67372 71.3818 -0.498132 70.6047 -0.498132ZM70.6047 -0.498132" fill="black"/>
  <path d="M78.9532 -0M83.1774 -3.03861C83.1774 -4.89166 82.1612 -6.19676 81.0653 -6.19676C79.9495 -6.19676 78.9532 -4.86177 78.9532 -3.04857C78.9532 -1.19552 79.9694 0.109589 81.0653 0.109589C82.1811 0.109589 83.1774 -1.2254 83.1774 -3.03861ZM83.1774 -3.03861M81.0653 -0.498132C80.2882 -0.498132 79.6407 -1.67372 79.6407 -3.14819C79.6407 -4.60274 80.3281 -5.58904 81.0653 -5.58904C81.7926 -5.58904 82.49 -4.6127 82.49 -3.14819C82.49 -1.67372 81.8424 -0.498132 81.0653 -0.498132ZM81.0653 -0.498132M84.1836 -0M88.4078 -3.03861C88.4078 -4.89166 87.3916 -6.19676 86.2957 -6.19676C85.1799 -6.19676 84.1836 -4.86177 84.1836 -3.04857C84.1836 -1.19552 85.1998 0.109589 86.2957 0.109589C87.4115 0.109589 88.4078 -1.2254 88.4078 -3.03861ZM88.4078 -3.03861M86.2957 -0.498132C85.5186 -0.498132 84.871 -1.67372 84.871 -3.14819C84.871 -4.60274 85.5585 -5.58904 86.2957 -5.58904C87.023 -5.58904 87.7204 -4.6127 87.7204 -3.14819C87.7204 -1.67372 87.0728 -0.498132 86.2957 -0.498132ZM86.2957 -0.498132" fill="black"/>
  <path d="M94.5646 -0M96.6667 -3.68618L97.8821 -3.68618C98.0316 -3.68618 98.2806 -3.68618 98.2806 -3.98506C98.2806 -4.2939 98.0415 -4.2939 97.8821 -4.2939L96.6667 -4.2939L96.6667 -4.76214C96.6667 -5.53923 97.3342 -5.53923 97.6331 -5.53923C97.6331 -5.49938 97.7227 -5.11083 98.0714 -5.11083C98.2707 -5.11083 98.4998 -5.27024 98.4998 -5.54919C98.4998 -6.14695 97.7028 -6.14695 97.5434 -6.14695C96.7464 -6.14695 95.9793 -5.68867 95.9793 -4.82192L95.9793 -4.2939L94.983 -4.2939C94.8236 -4.2939 94.5745 -4.2939 94.5745 -3.98506C94.5745 -3.68618 94.8236 -3.68618 94.973 -3.68618L95.9793 -3.68618L95.9793 -0.607721L94.973 -0.607721C94.8236 -0.607721 94.5646 -0.607721 94.5646 -0.308842C94.5646 -0 94.8236 -0 94.973 -0L97.6729 -0C97.8223 -0 98.0814 -0 98.0814 -0.298879C98.0814 -0.607721 97.8223 -0.607721 97.6729 -0.607721L96.6667 -0.607721ZM96.6667 -0.607721M99.7949 -0M101.897 -3.68618L103.113 -3.68618C103.262 -3.68618 103.511 -3.68618 103.511 -3.98506C103.511 -4.2939 103.272 -4.2939 103.113 -4.2939L101.897 -4.2939L101.897 -4.76214C101.897 -5.53923 102.565 -5.53923 102.863 -5.53923C102.863 -5.49938 102.953 -5.11083 103.302 -5.11083C103.501 -5.11083 103.73 -5.27024 103.73 -5.54919C103.73 -6.14695 102.933 -6.14695 102.774 -6.14695C101.977 -6.14695 101.21 -5.68867 101.21 -4.82192L101.21 -4.2939L100.213 -4.2939C100.054 -4.2939 99.8049 -4.2939 99.8049 -3.98506C99.8049 -3.68618 100.054 -3.68618 100.203 -3.68618L101.21 -3.68618L101.21 -0.607721L100.203 -0.607721C100.054 -0.607721 99.7949 -0.607721 99.7949 -0.308842C99.7949 -0 100.054 -0 100.203 -0L102.903 -0C103.053 -0 103.312 -0 103.312 -0.298879C103.312 -0.607721 103.053 -0.607721 102.903 -0.607721L101.897 -0.607721ZM101.897 -0.607721" fill="black"/>
  <path d="M110.256 -0M112.358 -3.68618L113.573 -3.68618C113.723 -3.68618 113.972 -3.68618 113.972 -3.98506C113.972 -4.2939 113.733 -4.2939 113.573 -4.2939L112.358 -4.2939L112.358 -4.76214C112.358 -5.53923 113.025 -5.53923 113.324 -5.53923C113.324 -5.49938 113.414 -5.11083 113.762 -5.11083C113.962 -5.11083 114.191 -5.27024 114.191 -5.54919C114.191 -6.14695 113.394 -6.14695 113.234 -6.14695C112.437 -6.14695 111.67 -5.68867 111.67 -4.82192L111.67 -4.2939L110.674 -4.2939C110.515 -4.2939 110.266 -4.2939 110.266 -3.98506C110.266 -3.68618 110.515 -3.68618 110.664 -3.68618L111.67 -3.68618L111.67 -0.607721L110.664 -0.607721C110.515 -0.607721 110.256 -0.607721 110.256 -0.308842C110.256 -0 110.515 -0 110.664 -0L113.364 -0C113.513 -0 113.772 -0 113.772 -0.298879C113.772 -0.607721 113.513 -0.607721 113.364 -0.607721L112.358 -0.607721ZM112.358 -0.607721M115.486 -0M117.588 -3.68618L118.804 -3.68618C118.953 -3.68618 119.202 -3.68618 119.202 -3.98506C119.202 -4.2939 118.963 -4.2939 118.804 -4.2939L117.588 -4.2939L117.588 -4.76214C117.588 -5.53923 118.256 -5.53923 118.554 -5.53923C118.554 -5.49938 118.644 -5.11083 118.993 -5.11083C119.192 -5.11083 119.421 -5.27024 119.421 -5.54919C119.421 -6.14695 118.624 -6.14695 118.465 -6.14695C117.668 -6.14695 116.901 -5.68867 116.901 -4.82192L116.901 -4.2939L115.904 -4.2939C115.745 -4.2939 115.496 -4.2939 115.496 -3.98506C115.496 -3.68618 115.745 -3.68618 115.894 -3.68618L116.901 -3.68618L116.901 -0.607721L115.894 -0.607721C115.745 -0.607721 115.486 -0.607721 115.486 -0.308842C115.486 -0 115.745 -0 115.894 -0L118.594 -0C118.744 -0 119.003 -0 119.003 -0.298879C119.003 -0.607721 118.744 -0.607721 118.594 -0.607721L117.588 -0.607721ZM117.588 -0.607721" fill="black"/>
 </g>
 <g transform="matrix(1.000000,0.000000,0.000000,1.000000,28.346457,-5.669291)">
  <path d="M0.358655 -0M4.32379 -6.91407L3.57659 -6.91407L3.57659 -3.98506C3.04857 -4.42341 2.49066 -4.533 2.12204 -4.533C1.13574 -4.533 0.358655 -3.49689 0.358655 -2.21171C0.358655 -0.9066 1.12578 0.109589 2.07223 0.109589C2.401 0.109589 2.98879 0.0199253 3.5467 -0.518057L3.5467 -0L4.32379 -0ZM4.32379 -0M3.5467 -1.38481C3.5467 -1.24533 3.53674 -1.066 3.21793 -0.777086C2.98879 -0.577833 2.73973 -0.498132 2.4807 -0.498132C1.86301 -0.498132 1.13574 -0.966376 1.13574 -2.20174C1.13574 -3.51681 1.99253 -3.92528 2.58032 -3.92528C3.02864 -3.92528 3.32752 -3.69614 3.5467 -3.37733ZM3.5467 -3.37733M5.57908 -0M9.11582 -2.8792C9.11582 -3.89539 8.38854 -4.59278 7.47198 -4.59278C6.82441 -4.59278 6.37609 -4.43337 5.90785 -4.16438L5.96762 -3.50685C6.48568 -3.87547 6.98381 -4.00498 7.47198 -4.00498C7.94022 -4.00498 8.33873 -3.60648 8.33873 -2.86924L8.33873 -2.44085C6.84433 -2.42092 5.57908 -2.00249 5.57908 -1.12578C5.57908 -0.697385 5.84807 0.109589 6.71482 0.109589C6.8543 0.109589 7.79078 0.0896638 8.36862 -0.358655L8.36862 -0L9.11582 -0ZM9.11582 -0M8.33873 -1.31507C8.33873 -1.12578 8.33873 -0.876712 8 -0.687422C7.71108 -0.508095 7.3325 -0.498132 7.22291 -0.498132C6.74471 -0.498132 6.29639 -0.727273 6.29639 -1.1457C6.29639 -1.84309 7.91034 -1.91283 8.33873 -1.93275ZM8.33873 -1.93275M10.1121 -0M11.6663 -3.84558L13.071 -3.84558L13.071 -4.42341L11.6663 -4.42341L11.6663 -5.68867L10.9788 -5.68867L10.9788 -4.42341L10.1121 -4.42341L10.1121 -3.84558L10.9489 -3.84558L10.9489 -1.18555C10.9489 -0.587796 11.0884 0.109589 11.7758 0.109589C12.4732 0.109589 12.9813 -0.139477 13.2304 -0.268991L13.071 -0.856787C12.812 -0.647572 12.4932 -0.52802 12.1743 -0.52802C11.8057 -0.52802 11.6663 -0.826899 11.6663 -1.35492ZM11.6663 -1.35492M13.9577 -0M17.4944 -2.8792C17.4944 -3.89539 16.7671 -4.59278 15.8506 -4.59278C15.203 -4.59278 14.7547 -4.43337 14.2864 -4.16438L14.3462 -3.50685C14.8643 -3.87547 15.3624 -4.00498 15.8506 -4.00498C16.3188 -4.00498 16.7173 -3.60648 16.7173 -2.86924L16.7173 -2.44085C15.2229 -2.42092 13.9577 -2.00249 13.9577 -1.12578C13.9577 -0.697385 14.2267 0.109589 15.0934 0.109589C15.2329 0.109589 16.1694 0.0896638 16.7472 -0.358655L16.7472 -0L17.4944 -0ZM17.4944 -0M16.7173 -1.31507C16.7173 -1.12578 16.7173 -0.876712 16.3786 -0.687422C16.0897 -0.508095 15.7111 -0.498132 15.6015 -0.498132C15.1233 -0.498132 14.675 -0.727273 14.675 -1.1457C14.675 -1.84309 16.2889 -1.91283 16.7173 -1.93275ZM16.7173 -1.93275" fill="black"/>
 </g>
 <g transform="matrix(1.000000,0.000000,0.000000,1.000000,124.724409,-5.669291)">
  <path d="M-7.39631 -0M-5.39979 -2.23562C-4.82595 -2.4269 -4.75421 -2.84533 -4.75421 -3.11432C-4.75421 -3.99303 -5.31611 -4.27995 -6.02744 -4.27995C-6.679 -4.27995 -7.30664 -4.04682 -7.30664 -3.11432C-7.30664 -2.79751 -7.19905 -2.41494 -6.66106 -2.23562C-7.27675 -2.06227 -7.39631 -1.59004 -7.39631 -1.21345C-7.39631 -0.280946 -6.89419 0.131507 -6.03342 0.131507C-5.1308 0.131507 -4.66455 -0.316812 -4.66455 -1.21345C-4.66455 -1.75741 -4.92159 -2.09813 -5.39979 -2.23562ZM-5.39979 -2.23562M-6.02744 -2.45679C-6.52956 -2.45679 -6.54151 -2.74969 -6.54151 -3.10834C-6.54151 -3.5208 -6.50565 -3.74795 -6.03342 -3.74795C-5.56119 -3.74795 -5.51935 -3.53275 -5.51935 -3.10834C-5.51935 -2.76164 -5.52532 -2.45679 -6.02744 -2.45679ZM-6.02744 -2.45679M-6.02744 -0.430386C-6.55347 -0.430386 -6.56542 -0.765131 -6.56542 -1.2254C-6.56542 -1.61395 -6.56542 -2.0264 -6.03342 -2.0264C-5.49543 -2.0264 -5.49543 -1.61993 -5.49543 -1.2254C-5.49543 -0.777086 -5.50739 -0.430386 -6.02744 -0.430386ZM-6.02744 -0.430386M-3.83964 -0M-3.55272 -4.14844C-3.76791 -4.14844 -3.83964 -4.08269 -3.83964 -3.86152L-3.83964 -0.286924C-3.83964 -0.071731 -3.77389 -0 -3.55272 -0L-1.91486 -0C-1.47252 -0 -0.372645 -0.0777086 -0.372645 -1.15965C-0.372645 -2.00249 -1.20353 -2.134 -1.4247 -2.16986C-0.874762 -2.29539 -0.55795 -2.60623 -0.55795 -3.07248C-0.55795 -4.14844 -1.83118 -4.14844 -2.08223 -4.14844ZM-2.08223 -4.14844M-2.9968 -2.3731L-2.9968 -3.63437L-2.29743 -3.63437C-2.0643 -3.63437 -1.3709 -3.61644 -1.3709 -3.05455C-1.3709 -2.3731 -2.15397 -2.3731 -2.3034 -2.3731ZM-2.3034 -2.3731M-2.9968 -0.514072L-2.9968 -1.94271L-2.24363 -1.94271C-2.03441 -1.94271 -1.20353 -1.94271 -1.20353 -1.17161C-1.20353 -0.555915 -1.84313 -0.514072 -2.13006 -0.514072ZM-2.13006 -0.514072" fill="black"/>
 </g>
 <g transform="matrix(1.000000,0.000000,0.000000,1.000000,127.559055,-5.669291)">
  <path d="M0.966376 -0M1.79328 -6.09714L1.79328 -6.91407L0.966376 -6.91407L0.966376 -6.08717L1.21544 -6.08717L0.966376 -4.84184L1.37484 -4.84184ZM1.37484 -4.84184" fill="black"/>
  <path d="M3.34524 -0M4.04263 -6.64508C3.99281 -6.74471 3.91311 -6.91407 3.69393 -6.91407C3.49468 -6.91407 3.34524 -6.74471 3.34524 -6.56538C3.34524 -6.48568 3.38509 -6.38605 3.41498 -6.32628L6.71261 0.557908C6.76243 0.657534 6.84213 0.826899 7.06131 0.826899C7.26056 0.826899 7.41 0.657534 7.41 0.478207C7.41 0.398506 7.37015 0.298879 7.34026 0.239103ZM7.34026 0.239103" fill="black"/>
  <path d="M7.99775 -0M10.588 -2.28144L12.4112 -4.42341L11.5943 -4.42341L10.2593 -2.77958L8.88442 -4.42341L8.05752 -4.42341L9.9305 -2.28144L7.99775 -0L8.81469 -0L10.2593 -1.87298L11.7537 -0L12.5806 -0ZM12.5806 -0M13.009 -0M17.1435 -3.24782C17.1435 -4.03487 17.1036 -4.96139 16.6852 -5.76837C16.2767 -6.51557 15.5893 -6.75467 15.0812 -6.75467C14.4934 -6.75467 13.796 -6.48568 13.3875 -5.599C13.0588 -4.87173 13.009 -4.04483 13.009 -3.24782C13.009 -2.46077 13.0488 -1.7335 13.3477 -1.00623C13.7462 -0.0498132 14.5034 0.219178 15.0712 0.219178C15.7985 0.219178 16.4261 -0.18929 16.7449 -0.876712C17.0438 -1.52428 17.1435 -2.18182 17.1435 -3.24782ZM17.1435 -3.24782M15.0812 -0.388543C14.5631 -0.388543 14.1547 -0.767123 13.9554 -1.48443C13.796 -2.0523 13.786 -2.59029 13.786 -3.36737C13.786 -3.99502 13.786 -4.59278 13.9554 -5.14072C14.0152 -5.33001 14.2642 -6.14695 15.0712 -6.14695C15.8483 -6.14695 16.1073 -5.38979 16.1771 -5.21046C16.3664 -4.65255 16.3664 -3.98506 16.3664 -3.36737C16.3664 -2.70984 16.3664 -2.08219 16.187 -1.45455C15.928 -0.547945 15.4 -0.388543 15.0812 -0.388543ZM15.0812 -0.388543M17.9903 -0M19.8832 -5.82814C20.0027 -5.82814 20.1223 -5.83811 20.2418 -5.83811L21.4473 -5.83811C19.9728 -4.2142 19.0862 -2.22167 19.0862 0.109589L19.923 0.109589C19.923 -2.8792 21.3477 -5.01121 22.1248 -5.88792L22.1248 -6.53549L17.9903 -6.53549L17.9903 -5.82814ZM17.9903 -5.82814" fill="black"/>
  <path d="M23.1322 -0M23.8295 -6.64508C23.7797 -6.74471 23.7 -6.91407 23.4808 -6.91407C23.2816 -6.91407 23.1322 -6.74471 23.1322 -6.56538C23.1322 -6.48568 23.172 -6.38605 23.2019 -6.32628L26.4995 0.557908C26.5493 0.657534 26.629 0.826899 26.8482 0.826899C27.0475 0.826899 27.1969 0.657534 27.1969 0.478207C27.1969 0.398506 27.1571 0.298879 27.1272 0.239103ZM27.1272 0.239103M28.3625 -0M29.0599 -6.64508C29.0101 -6.74471 28.9304 -6.91407 28.7112 -6.91407C28.512 -6.91407 28.3625 -6.74471 28.3625 -6.56538C28.3625 -6.48568 28.4024 -6.38605 28.4323 -6.32628L31.7299 0.557908C31.7797 0.657534 31.8594 0.826899 32.0786 0.826899C32.2779 0.826899 32.4273 0.657534 32.4273 0.478207C32.4273 0.398506 32.3874 0.298879 32.3576 0.239103ZM32.3576 0.239103" fill="black"/>
  <path d="M33.015 -0M35.6053 -2.28144L37.4285 -4.42341L36.6115 -4.42341L35.2765 -2.77958L33.9017 -4.42341L33.0748 -4.42341L34.9478 -2.28144L33.015 -0L33.8319 -0L35.2765 -1.87298L36.7709 -0L37.5978 -0ZM37.5978 -0M38.0461 -0M41.5829 -2.8792C41.5829 -3.89539 40.8556 -4.59278 39.939 -4.59278C39.2915 -4.59278 38.8431 -4.43337 38.3749 -4.16438L38.4347 -3.50685C38.9527 -3.87547 39.4509 -4.00498 39.939 -4.00498C40.4073 -4.00498 40.8058 -3.60648 40.8058 -2.86924L40.8058 -2.44085C39.3114 -2.42092 38.0461 -2.00249 38.0461 -1.12578C38.0461 -0.697385 38.3151 0.109589 39.1819 0.109589C39.3214 0.109589 40.2578 0.0896638 40.8357 -0.358655L40.8357 -0L41.5829 -0ZM41.5829 -0M40.8058 -1.31507C40.8058 -1.12578 40.8058 -0.876712 40.4671 -0.687422C40.1781 -0.508095 39.7996 -0.498132 39.69 -0.498132C39.2118 -0.498132 38.7634 -0.727273 38.7634 -1.1457C38.7634 -1.84309 40.3774 -1.91283 40.8058 -1.93275ZM40.8058 -1.93275M42.8083 -0M44.1233 -1.87298L42.888 -0.637609L42.888 -0L46.8631 -0L46.8631 -0.707347L45.0499 -0.707347C44.9303 -0.707347 44.8108 -0.697385 44.6912 -0.697385L43.6053 -0.697385C43.9241 -0.976339 44.6813 -1.72354 44.9901 -2.01245C45.1794 -2.19178 45.6875 -2.61021 45.8768 -2.78954C46.3251 -3.23786 46.8631 -3.76588 46.8631 -4.6127C46.8631 -5.75841 46.0561 -6.75467 44.741 -6.75467C43.6053 -6.75467 43.0474 -5.97758 42.8083 -5.1208C42.9278 -4.95143 42.9776 -4.89166 42.9976 -4.86177C43.0175 -4.84184 43.1171 -4.71233 43.2167 -4.57285C43.416 -5.33998 43.695 -6.11706 44.6016 -6.11706C45.538 -6.11706 46.0461 -5.36986 46.0461 -4.59278C46.0461 -3.74595 45.4783 -3.17808 44.8905 -2.58032ZM44.8905 -2.58032" fill="black"/>
  <path d="M47.9557 -0M48.6531 -6.64508C48.6033 -6.74471 48.5236 -6.91407 48.3044 -6.91407C48.1051 -6.91407 47.9557 -6.74471 47.9557 -6.56538C47.9557 -6.48568 47.9955 -6.38605 48.0254 -6.32628L51.3231 0.557908C51.3729 0.657534 51.4526 0.826899 51.6718 0.826899C51.871 0.826899 52.0205 0.657534 52.0205 0.478207C52.0205 0.398506 51.9806 0.298879 51.9507 0.239103ZM51.9507 0.239103" fill="black"/>
  <path d="M52.6082 -0M55.1985 -2.28144L57.0216 -4.42341L56.2047 -4.42341L54.8697 -2.77958L53.4949 -4.42341L52.668 -4.42341L54.541 -2.28144L52.6082 -0L53.4251 -0L54.8697 -1.87298L56.3641 -0L57.191 -0ZM57.191 -0M57.6194 -0M61.7539 -3.24782C61.7539 -4.03487 61.7141 -4.96139 61.2956 -5.76837C60.8872 -6.51557 60.1997 -6.75467 59.6916 -6.75467C59.1038 -6.75467 58.4065 -6.48568 57.998 -5.599C57.6692 -4.87173 57.6194 -4.04483 57.6194 -3.24782C57.6194 -2.46077 57.6593 -1.7335 57.9581 -1.00623C58.3566 -0.0498132 59.1138 0.219178 59.6817 0.219178C60.4089 0.219178 61.0366 -0.18929 61.3554 -0.876712C61.6543 -1.52428 61.7539 -2.18182 61.7539 -3.24782ZM61.7539 -3.24782M59.6916 -0.388543C59.1736 -0.388543 58.7651 -0.767123 58.5659 -1.48443C58.4065 -2.0523 58.3965 -2.59029 58.3965 -3.36737C58.3965 -3.99502 58.3965 -4.59278 58.5659 -5.14072C58.6256 -5.33001 58.8747 -6.14695 59.6817 -6.14695C60.4588 -6.14695 60.7178 -5.38979 60.7875 -5.21046C60.9768 -4.65255 60.9768 -3.98506 60.9768 -3.36737C60.9768 -2.70984 60.9768 -2.08219 60.7975 -1.45455C60.5385 -0.547945 60.0104 -0.388543 59.6916 -0.388543ZM59.6916 -0.388543M62.6007 -0M66.7352 -3.24782C66.7352 -4.03487 66.6954 -4.96139 66.2769 -5.76837C65.8685 -6.51557 65.1811 -6.75467 64.673 -6.75467C64.0852 -6.75467 63.3878 -6.48568 62.9793 -5.599C62.6505 -4.87173 62.6007 -4.04483 62.6007 -3.24782C62.6007 -2.46077 62.6406 -1.7335 62.9395 -1.00623C63.338 -0.0498132 64.0951 0.219178 64.663 0.219178C65.3903 0.219178 66.0179 -0.18929 66.3367 -0.876712C66.6356 -1.52428 66.7352 -2.18182 66.7352 -3.24782ZM66.7352 -3.24782M64.673 -0.388543C64.1549 -0.388543 63.7464 -0.767123 63.5472 -1.48443C63.3878 -2.0523 63.3778 -2.59029 63.3778 -3.36737C63.3778 -3.99502 63.3778 -4.59278 63.5472 -5.14072C63.607 -5.33001 63.856 -6.14695 64.663 -6.14695C65.4401 -6.14695 65.6991 -5.38979 65.7688 -5.21046C65.9581 -4.65255 65.9581 -3.98506 65.9581 -3.36737C65.9581 -2.70984 65.9581 -2.08219 65.7788 -1.45455C65.5198 -0.547945 64.9918 -0.388543 64.673 -0.388543ZM64.673 -0.388543" fill="black"/>
  <path d="M67.7426 -0M68.44 -6.64508C68.3902 -6.74471 68.3105 -6.91407 68.0913 -6.91407C67.892 -6.91407 67.7426 -6.74471 67.7426 -6.56538C67.7426 -6.48568 67.7825 -6.38605 67.8123 -6.32628L71.11 0.557908C71.1598 0.657534 71.2395 0.826899 71.4587 0.826899C71.6579 0.826899 71.8074 0.657534 71.8074 0.478207C71.8074 0.398506 71.7675 0.298879 71.7376 0.239103ZM71.7376 0.239103M72.973 -0M73.6704 -6.64508C73.6206 -6.74471 73.5409 -6.91407 73.3217 -6.91407C73.1224 -6.91407 72.973 -6.74471 72.973 -6.56538C72.973 -6.48568 73.0128 -6.38605 73.0427 -6.32628L76.3404 0.557908C76.3902 0.657534 76.4699 0.826899 76.6891 0.826899C76.8883 0.826899 77.0377 0.657534 77.0377 0.478207C77.0377 0.398506 76.9979 0.298879 76.968 0.239103ZM76.968 0.239103" fill="black"/>
  <path d="M77.6255 -0M80.2157 -2.28144L82.0389 -4.42341L81.222 -4.42341L79.887 -2.77958L78.5121 -4.42341L77.6852 -4.42341L79.5582 -2.28144L77.6255 -0L78.4424 -0L79.887 -1.87298L81.3814 -0L82.2083 -0ZM82.2083 -0M82.4872 -0M83.9717 -3.84558L85.0675 -3.84558L85.0675 -4.42341L83.9418 -4.42341L83.9418 -5.60897C83.9418 -6.3462 84.6093 -6.41594 84.8683 -6.41594C85.0675 -6.41594 85.3365 -6.39601 85.6753 -6.24658L85.6753 -6.91407C85.5557 -6.94396 85.2469 -7.02366 84.8783 -7.02366C83.9418 -7.02366 83.2245 -6.31631 83.2245 -5.32005L83.2245 -4.42341L82.4872 -4.42341L82.4872 -3.84558L83.2245 -3.84558L83.2245 -0L83.9717 -0ZM83.9717 -0M86.273 -0M87.9069 2.49066L87.9069 1.88294L86.9903 1.88294L86.9903 -6.86426L87.9069 -6.86426L87.9069 -7.47198L86.273 -7.47198L86.273 2.49066ZM86.273 2.49066M89.0925 -0M89.9194 -0.826899L89.0925 -0.826899L89.0925 -0L89.9194 -0ZM89.9194 -0M91.8521 -0M92.679 -0.826899L91.8521 -0.826899L91.8521 -0L92.679 -0ZM92.679 -0M94.6118 -0M95.4387 -0.826899L94.6118 -0.826899L94.6118 -0L95.4387 -0ZM95.4387 -0M96.6242 -0M98.2581 -7.47198L96.6242 -7.47198L96.6242 -6.86426L97.5408 -6.86426L97.5408 1.88294L96.6242 1.88294L96.6242 2.49066L98.2581 2.49066ZM98.2581 2.49066" fill="black"/>
 </g>
</svg>
